<svg xmlns="http://www.w3.org/2000/svg" xmlns:xlink="http://www.w3.org/1999/xlink" width="793" zoomAndPan="magnify" viewBox="0 0 595.5 842.249979" height="1122" preserveAspectRatio="xMidYMid meet" version="1.0"><defs><clipPath id="c676b0bd90"><path d="M 148.238281 229.542969 L 496 229.542969 L 496 533.46875 L 148.238281 533.46875 Z M 148.238281 229.542969 " clip-rule="nonzero"/></clipPath><clipPath id="41aa04b9b4"><path d="M 99.113281 229.542969 L 446.878906 229.542969 L 446.878906 533.46875 L 99.113281 533.46875 Z M 99.113281 229.542969 " clip-rule="nonzero"/></clipPath></defs><g clip-path="url(#c676b0bd90)"><path fill="#df3a44" d="M 375.160156 229.542969 L 269.066406 229.542969 C 202.332031 229.542969 148.238281 282.324219 148.238281 347.433594 C 148.238281 394.570312 176.597656 435.226562 217.566406 454.089844 L 217.566406 533.46875 L 299.632812 465.324219 L 375.160156 465.324219 C 441.902344 465.324219 495.996094 412.539062 495.996094 347.429688 C 496.003906 282.324219 441.902344 229.542969 375.160156 229.542969 " fill-opacity="1" fill-rule="nonzero"/></g><g clip-path="url(#41aa04b9b4)"><path fill="#ffffff" d="M 326.039062 229.542969 L 219.945312 229.542969 C 153.207031 229.542969 99.117188 282.324219 99.117188 347.433594 C 99.117188 394.570312 127.472656 435.226562 168.445312 454.089844 L 168.445312 533.46875 L 250.507812 465.324219 L 326.039062 465.324219 C 392.777344 465.324219 446.875 412.539062 446.875 347.429688 C 446.878906 282.324219 392.777344 229.542969 326.039062 229.542969 " fill-opacity="1" fill-rule="nonzero"/></g></svg>