<svg xmlns="http://www.w3.org/2000/svg" xmlns:xlink="http://www.w3.org/1999/xlink" width="793" zoomAndPan="magnify" viewBox="0 0 595.5 842.249979" height="1122" preserveAspectRatio="xMidYMid meet" version="1.0"><defs><clipPath id="f8e1a6b371"><path d="M 0.015625 0 L 594.984375 0 L 594.984375 841.5 L 0.015625 841.5 Z M 0.015625 0 " clip-rule="nonzero"/></clipPath></defs><g clip-path="url(#f8e1a6b371)"><path fill="#ffffff" d="M 0.015625 0 L 595.484375 0 L 595.484375 848.957031 L 0.015625 848.957031 Z M 0.015625 0 " fill-opacity="1" fill-rule="nonzero"/><path fill="#ffffff" d="M 0.015625 0 L 595.484375 0 L 595.484375 842.207031 L 0.015625 842.207031 Z M 0.015625 0 " fill-opacity="1" fill-rule="nonzero"/><path fill="#ffffff" d="M 0.015625 0 L 595.484375 0 L 595.484375 842.207031 L 0.015625 842.207031 Z M 0.015625 0 " fill-opacity="1" fill-rule="nonzero"/></g><path fill="#f4f4f4" d="M 142.675781 298.742188 C 201.566406 239.476562 184.703125 202.332031 224.996094 174.894531 C 287 132.671875 402.71875 168.992188 470.984375 227.066406 C 554.597656 298.199219 597.738281 428.074219 548.597656 545.566406 C 496.261719 670.695312 358.5625 735.644531 235.6875 716.070312 C 125.964844 698.59375 18.101562 612.117188 7.292969 508.40625 C 6.121094 497.164062 0.953125 436.394531 37.21875 384 C 67.199219 340.699219 95.992188 345.71875 142.675781 298.742188 " fill-opacity="1" fill-rule="nonzero"/><path fill="#f4f4f4" d="M 526.984375 352.976562 L 58.359375 338.511719 C 47.214844 338.511719 38.148438 345.761719 38.148438 354.671875 L 38.148438 616.296875 C 38.148438 625.207031 47.214844 632.457031 58.359375 632.457031 L 227.6875 623.285156 L 205.949219 686.742188 L 182.945312 686.886719 C 175.773438 686.886719 169.9375 691.554688 169.9375 697.289062 C 169.9375 703.027344 175.773438 707.695312 182.945312 707.695312 L 375.585938 700.34375 C 382.757812 700.34375 369.332031 632.457031 369.332031 632.457031 C 369.332031 632.457031 538.128906 352.976562 526.984375 352.976562 " fill-opacity="1" fill-rule="nonzero"/><path fill="#ffffff" d="M 366.304688 599.011719 L 246.804688 599.011719 L 212.90625 697.96875 L 400.207031 697.96875 L 366.304688 599.011719 " fill-opacity="1" fill-rule="nonzero"/><path fill="#ffffff" d="M 545.136719 339.425781 L 67.976562 339.425781 C 57.445312 339.425781 48.90625 346.253906 48.90625 354.671875 L 48.90625 616.296875 C 48.90625 624.71875 57.445312 631.546875 67.976562 631.546875 L 545.136719 631.546875 C 555.667969 631.546875 564.207031 624.71875 564.207031 616.296875 L 564.207031 354.671875 C 564.207031 346.253906 555.667969 339.425781 545.136719 339.425781 " fill-opacity="1" fill-rule="nonzero"/><path fill="#262b42" d="M 67.976562 340.441406 C 58.023438 340.441406 49.921875 346.824219 49.921875 354.671875 L 49.921875 616.296875 C 49.921875 624.144531 58.023438 630.527344 67.976562 630.527344 L 545.136719 630.527344 C 555.089844 630.527344 563.1875 624.144531 563.1875 616.296875 L 563.1875 354.671875 C 563.1875 346.824219 555.089844 340.441406 545.136719 340.441406 Z M 545.136719 632.5625 L 67.976562 632.5625 C 56.898438 632.5625 47.890625 625.265625 47.890625 616.296875 L 47.890625 354.671875 C 47.890625 345.703125 56.898438 338.40625 67.976562 338.40625 L 545.136719 338.40625 C 556.210938 338.40625 565.222656 345.703125 565.222656 354.671875 L 565.222656 616.296875 C 565.222656 625.265625 556.210938 632.5625 545.136719 632.5625 " fill-opacity="1" fill-rule="nonzero"/><path fill="#ffffff" d="M 420.550781 687.800781 L 192.5625 687.800781 C 186.011719 687.800781 180.699219 692.046875 180.699219 697.289062 C 180.699219 702.53125 186.011719 706.777344 192.5625 706.777344 L 420.550781 706.777344 C 427.101562 706.777344 432.414062 702.53125 432.414062 697.289062 C 432.414062 692.046875 427.101562 687.800781 420.550781 687.800781 " fill-opacity="1" fill-rule="nonzero"/><path fill="#ffffff" d="M 395.417969 683.992188 L 385.894531 656.1875 L 395.417969 683.992188 " fill-opacity="1" fill-rule="nonzero"/><path fill="#262b42" d="M 395.417969 685.007812 C 394.996094 685.007812 394.601562 684.746094 394.457031 684.324219 L 384.933594 656.519531 C 384.75 655.984375 385.035156 655.410156 385.5625 655.226562 C 386.09375 655.042969 386.671875 655.328125 386.855469 655.859375 L 396.382812 683.664062 C 396.5625 684.195312 396.277344 684.773438 395.75 684.957031 C 395.640625 684.992188 395.53125 685.007812 395.417969 685.007812 " fill-opacity="1" fill-rule="nonzero"/><path fill="#262b42" d="M 420.546875 707.796875 C 419.984375 707.796875 419.53125 707.339844 419.53125 706.777344 C 419.53125 706.21875 419.984375 705.761719 420.546875 705.761719 C 426.53125 705.761719 431.394531 701.960938 431.394531 697.289062 C 431.394531 692.617188 426.53125 688.816406 420.546875 688.816406 L 373.898438 688.816406 C 373.335938 688.816406 372.878906 688.363281 372.878906 687.800781 C 372.878906 687.238281 373.335938 686.78125 373.898438 686.78125 L 420.546875 686.78125 C 427.652344 686.78125 433.429688 691.496094 433.429688 697.289062 C 433.429688 703.082031 427.652344 707.796875 420.546875 707.796875 " fill-opacity="1" fill-rule="nonzero"/><path fill="#262b42" d="M 403.964844 707.796875 L 343.828125 707.796875 C 343.261719 707.796875 342.808594 707.339844 342.808594 706.777344 C 342.808594 706.21875 343.261719 705.761719 343.828125 705.761719 L 403.964844 705.761719 C 404.523438 705.761719 404.984375 706.21875 404.984375 706.777344 C 404.984375 707.339844 404.523438 707.796875 403.964844 707.796875 " fill-opacity="1" fill-rule="nonzero"/><path fill="#ffffff" d="M 65.855469 610.410156 C 65.855469 614.59375 70.101562 617.988281 75.339844 617.988281 L 537.769531 617.988281 C 543.007812 617.988281 547.253906 614.59375 547.253906 610.410156 L 547.253906 507.324219 L 65.855469 610.410156 " fill-opacity="1" fill-rule="nonzero"/><path fill="#262b42" d="M 537.769531 619.007812 L 75.339844 619.007812 C 69.550781 619.007812 64.839844 615.148438 64.839844 610.410156 C 64.839844 609.84375 65.296875 609.390625 65.855469 609.390625 C 66.417969 609.390625 66.875 609.84375 66.875 610.410156 C 66.875 614.027344 70.671875 616.972656 75.339844 616.972656 L 537.769531 616.972656 C 542.4375 616.972656 546.234375 614.027344 546.234375 610.410156 L 546.234375 507.324219 C 546.234375 506.761719 546.6875 506.308594 547.253906 506.308594 C 547.816406 506.308594 548.269531 506.761719 548.269531 507.324219 L 548.269531 610.410156 C 548.269531 615.148438 543.558594 619.007812 537.769531 619.007812 " fill-opacity="1" fill-rule="nonzero"/><path fill="#262b42" d="M 65.855469 390.429688 C 65.296875 390.429688 64.839844 389.972656 64.839844 389.410156 L 64.839844 373.328125 C 64.839844 372.765625 65.296875 372.308594 65.855469 372.308594 C 66.417969 372.308594 66.875 372.765625 66.875 373.328125 L 66.875 389.410156 C 66.875 389.972656 66.417969 390.429688 65.855469 390.429688 " fill-opacity="1" fill-rule="nonzero"/><path fill="#ffffff" d="M 102.839844 352.980469 L 75.339844 352.980469 C 70.101562 352.980469 65.855469 356.375 65.855469 360.5625 L 102.839844 352.980469 " fill-opacity="1" fill-rule="nonzero"/><path fill="#262b42" d="M 65.855469 361.578125 C 65.296875 361.578125 64.839844 361.121094 64.839844 360.5625 C 64.839844 355.820312 69.550781 351.960938 75.339844 351.960938 L 102.839844 351.960938 C 103.402344 351.960938 103.855469 352.417969 103.855469 352.980469 C 103.855469 353.542969 103.402344 353.996094 102.839844 353.996094 L 75.339844 353.996094 C 70.671875 353.996094 66.875 356.941406 66.875 360.5625 C 66.875 361.121094 66.417969 361.578125 65.855469 361.578125 " fill-opacity="1" fill-rule="nonzero"/><path fill="#ffffff" d="M 547.253906 373.324219 L 547.253906 360.5625 C 547.253906 356.375 543.007812 352.976562 537.769531 352.976562 L 509.492188 352.976562 L 547.253906 373.324219 " fill-opacity="1" fill-rule="nonzero"/><path fill="#262b42" d="M 547.253906 374.347656 C 546.6875 374.347656 546.234375 373.890625 546.234375 373.328125 L 546.234375 360.5625 C 546.234375 356.941406 542.4375 354 537.769531 354 L 509.492188 354 C 508.929688 354 508.472656 353.539062 508.472656 352.980469 C 508.472656 352.417969 508.929688 351.960938 509.492188 351.960938 L 537.769531 351.960938 C 543.558594 351.960938 548.269531 355.820312 548.269531 360.5625 L 548.269531 373.328125 C 548.269531 373.890625 547.816406 374.347656 547.253906 374.347656 " fill-opacity="1" fill-rule="nonzero"/><path fill="#262b42" d="M 547.253906 409.976562 C 546.6875 409.976562 546.234375 409.523438 546.234375 408.960938 L 546.234375 391.179688 C 546.234375 390.621094 546.6875 390.164062 547.253906 390.164062 C 547.816406 390.164062 548.269531 390.621094 548.269531 391.179688 L 548.269531 408.960938 C 548.269531 409.523438 547.816406 409.976562 547.253906 409.976562 " fill-opacity="1" fill-rule="nonzero"/><path fill="#f4f4f4" d="M 532.707031 616.996094 L 124.042969 616.996094 L 124.042969 353.644531 L 532.707031 353.644531 L 532.707031 616.996094 " fill-opacity="1" fill-rule="nonzero"/><path fill="#f4f4f4" d="M 351.496094 375.957031 L 154.21875 375.957031 L 154.21875 369.382812 L 351.496094 369.382812 L 351.496094 375.957031 " fill-opacity="1" fill-rule="nonzero"/><path fill="#ffffff" d="M 451.175781 387.375 L 220.578125 387.375 L 220.578125 380.535156 L 451.175781 380.535156 L 451.175781 387.375 " fill-opacity="1" fill-rule="nonzero"/><path fill="#ffffff" d="M 502.535156 398.65625 L 271.933594 398.65625 L 271.933594 391.8125 L 502.535156 391.8125 L 502.535156 398.65625 " fill-opacity="1" fill-rule="nonzero"/><path fill="#ffffff" d="M 474.726562 409.9375 L 355.539062 409.9375 L 355.539062 403.09375 L 474.726562 403.09375 L 474.726562 409.9375 " fill-opacity="1" fill-rule="nonzero"/><path fill="#f4f4f4" d="M 351.496094 466.214844 L 154.21875 466.214844 L 154.21875 459.636719 L 351.496094 459.636719 L 351.496094 466.214844 " fill-opacity="1" fill-rule="nonzero"/><path fill="#ffffff" d="M 451.175781 477.632812 L 220.578125 477.632812 L 220.578125 470.789062 L 451.175781 470.789062 L 451.175781 477.632812 " fill-opacity="1" fill-rule="nonzero"/><path fill="#ffffff" d="M 502.535156 488.914062 L 271.933594 488.914062 L 271.933594 482.070312 L 502.535156 482.070312 L 502.535156 488.914062 " fill-opacity="1" fill-rule="nonzero"/><path fill="#ffffff" d="M 502.535156 500.195312 L 355.535156 500.195312 L 355.535156 493.351562 L 502.535156 493.351562 L 502.535156 500.195312 " fill-opacity="1" fill-rule="nonzero"/><path fill="#ffffff" d="M 451.175781 421.222656 L 220.578125 421.222656 L 220.578125 414.378906 L 451.175781 414.378906 L 451.175781 421.222656 " fill-opacity="1" fill-rule="nonzero"/><path fill="#ffffff" d="M 502.535156 432.503906 L 271.933594 432.503906 L 271.933594 425.660156 L 502.535156 425.660156 L 502.535156 432.503906 " fill-opacity="1" fill-rule="nonzero"/><path fill="#ffffff" d="M 446.921875 455.066406 L 355.535156 455.066406 L 355.535156 448.222656 L 446.921875 448.222656 L 446.921875 455.066406 " fill-opacity="1" fill-rule="nonzero"/><path fill="#ffffff" d="M 502.535156 443.785156 L 355.535156 443.785156 L 355.535156 436.941406 L 502.535156 436.941406 L 502.535156 443.785156 " fill-opacity="1" fill-rule="nonzero"/><path fill="#f4f4f4" d="M 351.496094 511.34375 L 154.21875 511.34375 L 154.21875 504.765625 L 351.496094 504.765625 L 351.496094 511.34375 " fill-opacity="1" fill-rule="nonzero"/><path fill="#ffffff" d="M 451.175781 522.761719 L 342.734375 522.761719 L 342.734375 515.917969 L 451.175781 515.917969 L 451.175781 522.761719 " fill-opacity="1" fill-rule="nonzero"/><path fill="#ffffff" d="M 495.117188 534.042969 L 296.324219 534.042969 L 296.324219 527.199219 L 495.117188 527.199219 L 495.117188 534.042969 " fill-opacity="1" fill-rule="nonzero"/><path fill="#f4f4f4" d="M 502.535156 545.324219 L 355.535156 545.324219 L 355.535156 538.480469 L 502.535156 538.480469 L 502.535156 545.324219 " fill-opacity="1" fill-rule="nonzero"/><path fill="#f4f4f4" d="M 396.539062 601.734375 L 271.933594 601.734375 L 271.933594 594.890625 L 396.539062 594.890625 L 396.539062 601.734375 " fill-opacity="1" fill-rule="nonzero"/><path fill="#ffffff" d="M 451.175781 556.609375 L 220.578125 556.609375 L 220.578125 549.765625 L 451.175781 549.765625 L 451.175781 556.609375 " fill-opacity="1" fill-rule="nonzero"/><path fill="#ffffff" d="M 502.535156 567.890625 L 271.933594 567.890625 L 271.933594 561.046875 L 502.535156 561.046875 L 502.535156 567.890625 " fill-opacity="1" fill-rule="nonzero"/><path fill="#ffffff" d="M 502.535156 590.453125 L 355.535156 590.453125 L 355.535156 583.609375 L 502.535156 583.609375 L 502.535156 590.453125 " fill-opacity="1" fill-rule="nonzero"/><path fill="#ffffff" d="M 439.6875 579.171875 L 355.535156 579.171875 L 355.535156 572.328125 L 439.6875 572.328125 L 439.6875 579.171875 " fill-opacity="1" fill-rule="nonzero"/><path fill="#df3a44" d="M 324.222656 179.589844 L 136.101562 179.589844 C 129.425781 179.589844 124.011719 185 124.011719 191.675781 L 124.011719 270.007812 C 124.011719 276.683594 129.425781 282.097656 136.101562 282.097656 L 324.222656 282.097656 C 330.898438 282.097656 336.308594 276.683594 336.308594 270.007812 L 336.308594 191.675781 C 336.308594 185 330.898438 179.589844 324.222656 179.589844 " fill-opacity="1" fill-rule="nonzero"/><path fill="#ffffff" d="M 289.203125 207.34375 L 146.570312 207.34375 L 146.570312 195.148438 L 289.203125 195.148438 L 289.203125 207.34375 " fill-opacity="1" fill-rule="nonzero"/><path fill="#f4f4f4" d="M 313.75 230.511719 L 180.402344 230.511719 L 180.402344 222.0625 L 313.75 222.0625 L 313.75 230.511719 " fill-opacity="1" fill-rule="nonzero"/><path fill="#f4f4f4" d="M 313.75 248.527344 L 180.402344 248.527344 L 180.402344 240.074219 L 313.75 240.074219 L 313.75 248.527344 " fill-opacity="1" fill-rule="nonzero"/><path fill="#f4f4f4" d="M 313.75 266.542969 L 180.402344 266.542969 L 180.402344 258.089844 L 313.75 258.089844 L 313.75 266.542969 " fill-opacity="1" fill-rule="nonzero"/><path fill="#df3a44" d="M 324.21875 298.210938 L 136.097656 298.210938 C 129.425781 298.210938 124.011719 303.625 124.011719 310.300781 L 124.011719 388.628906 C 124.011719 395.304688 129.425781 400.71875 136.097656 400.71875 L 324.21875 400.71875 C 330.894531 400.71875 336.308594 395.304688 336.308594 388.628906 L 336.308594 310.300781 C 336.308594 303.625 330.894531 298.210938 324.21875 298.210938 " fill-opacity="1" fill-rule="nonzero"/><path fill="#ffffff" d="M 289.207031 325.960938 L 146.570312 325.960938 L 146.570312 313.765625 L 289.207031 313.765625 L 289.207031 325.960938 " fill-opacity="1" fill-rule="nonzero"/><path fill="#f4f4f4" d="M 313.75 349.132812 L 180.402344 349.132812 L 180.402344 340.679688 L 313.75 340.679688 L 313.75 349.132812 " fill-opacity="1" fill-rule="nonzero"/><path fill="#f4f4f4" d="M 313.75 367.148438 L 180.402344 367.148438 L 180.402344 358.695312 L 313.75 358.695312 L 313.75 367.148438 " fill-opacity="1" fill-rule="nonzero"/><path fill="#f4f4f4" d="M 313.75 385.164062 L 180.402344 385.164062 L 180.402344 376.710938 L 313.75 376.710938 L 313.75 385.164062 " fill-opacity="1" fill-rule="nonzero"/><path fill="#df3a44" d="M 324.222656 416.832031 L 136.097656 416.832031 C 129.425781 416.832031 124.011719 422.242188 124.011719 428.917969 L 124.011719 507.25 C 124.011719 513.925781 129.425781 519.339844 136.097656 519.339844 L 324.222656 519.339844 C 330.894531 519.339844 336.304688 513.925781 336.304688 507.25 L 336.304688 428.917969 C 336.304688 422.242188 330.894531 416.832031 324.222656 416.832031 " fill-opacity="1" fill-rule="nonzero"/><path fill="#ffffff" d="M 289.203125 444.585938 L 146.570312 444.585938 L 146.570312 432.386719 L 289.203125 432.386719 L 289.203125 444.585938 " fill-opacity="1" fill-rule="nonzero"/><path fill="#f4f4f4" d="M 313.75 467.753906 L 180.402344 467.753906 L 180.402344 459.300781 L 313.75 459.300781 L 313.75 467.753906 " fill-opacity="1" fill-rule="nonzero"/><path fill="#f4f4f4" d="M 313.75 485.769531 L 180.402344 485.769531 L 180.402344 477.316406 L 313.75 477.316406 L 313.75 485.769531 " fill-opacity="1" fill-rule="nonzero"/><path fill="#f4f4f4" d="M 313.75 503.785156 L 180.402344 503.785156 L 180.402344 495.328125 L 313.75 495.328125 L 313.75 503.785156 " fill-opacity="1" fill-rule="nonzero"/><path fill="#262b42" d="M 349.242188 699.335938 L 277.171875 699.335938 L 326.96875 617.167969 C 328.527344 614.601562 331.363281 613.042969 334.488281 613.042969 L 392.980469 613.042969 C 396.695312 613.042969 399.125 617.019531 397.277344 620.070312 L 349.242188 699.335938 " fill-opacity="1" fill-rule="nonzero"/><path fill="#f4f4f4" d="M 362.074219 641.859375 C 359.890625 645.457031 354.988281 648.378906 351.113281 648.378906 C 347.246094 648.378906 345.875 645.457031 348.058594 641.859375 C 350.238281 638.253906 355.148438 635.332031 359.019531 635.332031 C 362.890625 635.332031 364.257812 638.253906 362.074219 641.859375 " fill-opacity="1" fill-rule="nonzero"/><path fill="#262b42" d="M 348.164062 707.441406 L 194.253906 707.441406 C 192.742188 707.441406 191.515625 706.214844 191.515625 704.703125 L 191.515625 698.640625 L 350.902344 698.640625 L 350.902344 704.703125 C 350.902344 706.214844 349.675781 707.441406 348.164062 707.441406 " fill-opacity="1" fill-rule="nonzero"/><path fill="#ffffff" d="M 346.164062 700.4375 L 273.027344 700.4375 C 272.46875 700.4375 272.011719 699.984375 272.011719 699.425781 C 272.011719 698.863281 272.46875 698.40625 273.027344 698.40625 L 346.164062 698.40625 C 346.726562 698.40625 347.183594 698.863281 347.183594 699.425781 C 347.183594 699.984375 346.726562 700.4375 346.164062 700.4375 " fill-opacity="1" fill-rule="nonzero"/><path fill="#262b42" d="M 128.75 555.550781 C 128.75 555.550781 113.84375 541.765625 108.371094 538.554688 C 102.902344 535.347656 96.085938 522.191406 114.472656 514.132812 C 120.429688 511.523438 121.605469 504.289062 133.078125 503.050781 C 144.554688 501.816406 154.085938 507.640625 155.320312 514.875 C 156.554688 522.113281 149.695312 528.378906 144.566406 529.21875 C 139.4375 530.054688 128.75 555.550781 128.75 555.550781 " fill-opacity="1" fill-rule="nonzero"/><path fill="#ffffff" d="M 154.667969 538.539062 L 156.265625 536.230469 L 149.945312 528.144531 L 145.613281 517.523438 C 133.371094 516.695312 128.464844 520.039062 128.300781 529.433594 C 128.199219 535.449219 125.027344 535.597656 125.027344 535.597656 C 125.027344 535.597656 120.375 530.585938 117.964844 536.527344 C 115.558594 542.46875 125.570312 546.601562 125.570312 546.601562 C 126.867188 549.34375 126.554688 552.582031 124.757812 555.027344 L 106.953125 579.222656 C 106.953125 579.222656 140.335938 588.058594 140.6875 582.792969 C 140.789062 581.300781 140.28125 580.027344 139.5 578.964844 C 135.652344 573.722656 142.605469 559.554688 142.605469 559.554688 L 153.75 555.054688 C 155.792969 554.230469 156.878906 551.992188 156.261719 549.878906 L 154.058594 542.296875 C 153.6875 541.015625 153.910156 539.636719 154.667969 538.539062 " fill-opacity="1" fill-rule="nonzero"/><path fill="#262b42" d="M 108.660156 578.613281 C 119.726562 581.457031 136.765625 584.875 139.542969 582.882812 C 139.667969 582.792969 139.671875 582.75 139.671875 582.726562 C 139.746094 581.625 139.414062 580.5625 138.683594 579.570312 C 134.585938 573.992188 140.953125 560.617188 141.691406 559.105469 C 141.800781 558.882812 141.992188 558.707031 142.226562 558.609375 L 153.367188 554.109375 C 154.929688 553.480469 155.757812 551.78125 155.285156 550.160156 L 153.082031 542.578125 C 152.625 541 152.894531 539.316406 153.832031 537.960938 L 155.003906 536.269531 L 149.144531 528.769531 C 149.085938 528.695312 149.039062 528.617188 149.003906 528.527344 L 144.914062 518.5 C 138.578125 518.136719 134.523438 518.980469 132.171875 521.144531 C 130.292969 522.867188 129.386719 525.507812 129.320312 529.449219 C 129.203125 536.34375 125.242188 536.601562 125.074219 536.609375 C 124.78125 536.628906 124.488281 536.503906 124.285156 536.289062 C 123.785156 535.753906 122.203125 534.425781 120.914062 534.667969 C 120.128906 534.8125 119.453125 535.566406 118.910156 536.910156 C 116.902344 541.855469 125.867188 545.621094 125.957031 545.660156 C 126.191406 545.753906 126.378906 545.9375 126.488281 546.164062 C 127.949219 549.253906 127.601562 552.878906 125.578125 555.628906 Z M 135.875 585.457031 C 127.085938 585.457031 110.597656 581.238281 106.691406 580.203125 C 106.367188 580.117188 106.105469 579.875 105.992188 579.558594 C 105.882812 579.242188 105.933594 578.890625 106.132812 578.617188 L 123.9375 554.425781 C 125.445312 552.378906 125.761719 549.710938 124.800781 547.371094 C 122.855469 546.492188 114.53125 542.296875 117.023438 536.144531 C 117.847656 534.113281 119.03125 532.941406 120.550781 532.664062 C 122.59375 532.285156 124.480469 533.703125 125.328125 534.46875 C 125.957031 534.175781 127.222656 533.125 127.285156 529.414062 C 127.363281 524.941406 128.511719 521.742188 130.796875 519.644531 C 133.664062 517.011719 138.394531 516.011719 145.683594 516.507812 C 146.070312 516.535156 146.410156 516.78125 146.554688 517.140625 L 150.835938 527.628906 L 157.066406 535.605469 C 157.339844 535.953125 157.355469 536.445312 157.105469 536.808594 L 155.503906 539.121094 C 154.917969 539.96875 154.75 541.019531 155.035156 542.011719 L 157.238281 549.589844 C 158.003906 552.21875 156.667969 554.972656 154.128906 556 L 143.351562 560.351562 C 141.421875 564.410156 137.550781 574.589844 140.320312 578.367188 C 141.34375 579.753906 141.808594 581.269531 141.703125 582.859375 C 141.671875 583.328125 141.476562 584 140.730469 584.535156 C 139.816406 585.191406 138.089844 585.457031 135.875 585.457031 " fill-opacity="1" fill-rule="nonzero"/><path fill="#262b42" d="M 125.925781 527.671875 L 134.394531 539.128906 C 137.984375 543.984375 144.5625 545.535156 149.945312 542.792969 L 154.542969 540.445312 L 163.039062 556.089844 C 163.949219 558.316406 162.769531 560.847656 160.480469 561.578125 L 148.128906 566.699219 C 144.601562 567.832031 140.734375 566.882812 138.132812 564.242188 L 124.855469 550.785156 C 124.855469 550.785156 129.890625 546.113281 125.027344 535.597656 C 120.167969 525.074219 125.925781 527.671875 125.925781 527.671875 " fill-opacity="1" fill-rule="nonzero"/><path fill="#df3a44" d="M 268.515625 562.28125 L 244.328125 565.824219 C 244.328125 565.824219 234.515625 603.507812 209.902344 604.742188 C 198.0625 605.339844 189.101562 601.648438 182.992188 597.664062 C 173.742188 591.628906 163.183594 587.894531 152.175781 586.988281 L 107.941406 583.347656 C 83.496094 581.335938 60.195312 594.0625 48.703125 615.730469 C 36.417969 638.902344 21.191406 669.804688 11.472656 697.304688 C 9.679688 702.371094 13.414062 707.695312 18.792969 707.695312 L 136.171875 707.695312 L 161.996094 643.023438 C 174.863281 648.503906 194.691406 653.339844 222.546875 650.773438 C 281.429688 645.351562 268.515625 562.28125 268.515625 562.28125 " fill-opacity="1" fill-rule="nonzero"/><path fill="#262b42" d="M 102.867188 584.15625 C 80.660156 584.15625 60.128906 596.359375 49.601562 616.207031 C 38.125 637.859375 22.355469 669.558594 12.429688 697.640625 C 11.683594 699.75 11.996094 702.003906 13.285156 703.828125 C 14.566406 705.636719 16.574219 706.675781 18.792969 706.675781 L 135.480469 706.675781 L 161.050781 642.648438 C 161.152344 642.390625 161.355469 642.191406 161.605469 642.089844 C 161.859375 641.980469 162.144531 641.984375 162.394531 642.089844 C 174.023438 647.039062 193.882812 652.394531 222.453125 649.761719 C 236.089844 648.503906 246.910156 642.855469 254.617188 632.976562 C 272.648438 609.859375 268.515625 570.222656 267.648438 563.4375 L 245.136719 566.734375 C 243.65625 571.964844 233.511719 604.578125 209.953125 605.761719 C 199.839844 606.265625 190.582031 603.828125 182.4375 598.519531 C 173.242188 592.515625 162.746094 588.878906 152.089844 588.003906 L 107.859375 584.359375 C 106.1875 584.222656 104.519531 584.15625 102.867188 584.15625 Z M 136.167969 708.707031 L 18.792969 708.707031 C 15.902344 708.707031 13.289062 707.359375 11.625 705 C 9.949219 702.632812 9.542969 699.703125 10.511719 696.964844 C 20.480469 668.765625 36.292969 636.964844 47.804688 615.253906 C 59.496094 593.207031 83.136719 580.289062 108.023438 582.335938 L 152.257812 585.976562 C 163.25 586.882812 174.070312 590.628906 183.546875 596.8125 C 191.324219 601.886719 200.175781 604.207031 209.851562 603.726562 C 233.445312 602.542969 243.246094 565.9375 243.347656 565.570312 C 243.445312 565.171875 243.777344 564.878906 244.183594 564.820312 L 268.367188 561.277344 C 268.921875 561.191406 269.4375 561.574219 269.519531 562.125 C 269.59375 562.585938 276.425781 608.324219 256.222656 634.226562 C 248.15625 644.566406 236.855469 650.476562 222.636719 651.785156 C 194.414062 654.386719 174.519531 649.289062 162.558594 644.363281 L 137.113281 708.070312 C 136.960938 708.457031 136.585938 708.707031 136.167969 708.707031 " fill-opacity="1" fill-rule="nonzero"/><path fill="#df3a44" d="M 166.8125 655.90625 C 148.527344 649.851562 138.648438 621.429688 138.648438 621.429688 L 84.800781 632.269531 C 84.800781 632.269531 122.121094 691.824219 147.84375 697.277344 C 163.871094 700.679688 196.078125 685.558594 218.070312 673.679688 C 215.253906 667.441406 211.199219 658.5 208.191406 651.917969 C 192.109375 655.824219 175.117188 658.652344 166.8125 655.90625 " fill-opacity="1" fill-rule="nonzero"/><path fill="#262b42" d="M 152.945312 698.78125 C 151.03125 698.78125 149.253906 698.617188 147.632812 698.273438 C 121.789062 692.792969 85.472656 635.261719 83.941406 632.8125 C 83.640625 632.335938 83.785156 631.710938 84.261719 631.410156 C 84.738281 631.113281 85.367188 631.257812 85.664062 631.730469 C 86.035156 632.324219 123.046875 690.980469 148.054688 696.28125 C 159.996094 698.820312 184.375 690.636719 216.753906 673.234375 C 214.042969 667.238281 210.421875 659.253906 207.613281 653.105469 C 187.425781 657.957031 173.59375 659.222656 166.496094 656.871094 C 147.945312 650.730469 138.097656 622.945312 137.6875 621.765625 C 137.503906 621.234375 137.785156 620.65625 138.316406 620.46875 C 138.84375 620.285156 139.425781 620.566406 139.609375 621.09375 C 139.707031 621.375 149.539062 649.117188 167.132812 654.941406 C 173.867188 657.167969 187.980469 655.78125 207.949219 650.929688 C 208.425781 650.816406 208.914062 651.054688 209.117188 651.496094 C 212.105469 658.035156 216.140625 666.941406 219 673.261719 C 219.21875 673.746094 219.027344 674.320312 218.554688 674.574219 C 197.433594 685.980469 169.941406 698.78125 152.945312 698.78125 " fill-opacity="1" fill-rule="nonzero"/><path fill="#ffffff" d="M 276.5625 658.207031 L 251.636719 644.359375 C 247.789062 642.21875 243.230469 641.769531 239.039062 643.121094 C 232.089844 645.363281 220.40625 648.953125 208.191406 651.917969 C 211.199219 658.5 215.253906 667.441406 218.070312 673.679688 C 231.367188 666.496094 240.933594 660.503906 240.933594 660.503906 L 257.023438 668.976562 C 257.023438 668.976562 256.125 683.101562 259.324219 683.488281 C 262.515625 683.875 263.714844 670.847656 263.714844 670.847656 C 263.714844 670.847656 266.464844 687.019531 271.207031 683.488281 L 273.027344 663.949219 C 273.027344 663.949219 276.179688 672.605469 277.988281 672.960938 C 279.792969 673.320312 279.792969 673.320312 279.792969 673.320312 L 276.5625 658.207031 " fill-opacity="1" fill-rule="nonzero"/><path fill="#262b42" d="M 263.71875 669.828125 C 264.210938 669.828125 264.636719 670.1875 264.722656 670.679688 C 265.503906 675.265625 267.515625 682.09375 269.558594 682.910156 C 269.730469 682.980469 269.9375 683.023438 270.242188 682.886719 L 272.015625 663.855469 C 272.058594 663.382812 272.429688 663.003906 272.898438 662.945312 C 273.371094 662.878906 273.820312 663.15625 273.984375 663.605469 C 275.503906 667.769531 277.453125 671.605469 278.234375 671.976562 L 278.476562 672.023438 L 275.664062 658.871094 L 251.140625 645.246094 C 247.550781 643.253906 243.253906 642.832031 239.351562 644.089844 C 232.117188 646.421875 221.191406 649.761719 209.628906 652.613281 C 212.394531 658.671875 215.894531 666.394531 218.550781 672.265625 C 231.171875 665.410156 240.300781 659.699219 240.394531 659.640625 C 240.703125 659.449219 241.085938 659.4375 241.410156 659.605469 L 257.496094 668.078125 C 257.851562 668.265625 258.066406 668.644531 258.039062 669.042969 C 257.578125 676.335938 258.433594 682.351562 259.445312 682.480469 C 259.5 682.484375 259.570312 682.449219 259.660156 682.375 C 261.128906 681.191406 262.324219 674.863281 262.703125 670.75 C 262.75 670.246094 263.167969 669.851562 263.679688 669.828125 C 263.691406 669.828125 263.703125 669.828125 263.71875 669.828125 Z M 269.871094 685.007812 C 269.457031 685.007812 269.09375 684.917969 268.796875 684.800781 C 266.539062 683.894531 264.941406 679.949219 263.945312 676.460938 C 263.363281 679.476562 262.410156 682.773438 260.941406 683.957031 C 260.273438 684.5 259.625 684.546875 259.199219 684.5 C 255.628906 684.0625 255.703125 674.398438 255.96875 669.570312 L 240.976562 661.671875 C 238.835938 663 230.035156 668.375 218.554688 674.574219 C 218.308594 674.707031 218.015625 674.730469 217.746094 674.644531 C 217.480469 674.550781 217.261719 674.355469 217.144531 674.097656 C 214.289062 667.777344 210.253906 658.875 207.265625 652.34375 C 207.140625 652.066406 207.144531 651.746094 207.277344 651.472656 C 207.40625 651.203125 207.65625 651.003906 207.949219 650.929688 C 219.890625 648.027344 231.28125 644.554688 238.730469 642.152344 C 243.164062 640.722656 248.050781 641.203125 252.132812 643.46875 L 277.054688 657.3125 C 277.3125 657.460938 277.496094 657.703125 277.554688 657.988281 L 280.789062 673.105469 C 280.859375 673.441406 280.761719 673.789062 280.519531 674.03125 C 280.28125 674.277344 279.933594 674.382812 279.597656 674.316406 L 277.789062 673.960938 C 276.417969 673.6875 274.886719 671.007812 273.652344 668.238281 L 272.222656 683.582031 C 272.195312 683.871094 272.046875 684.132812 271.816406 684.304688 C 271.105469 684.832031 270.441406 685.007812 269.871094 685.007812 " fill-opacity="1" fill-rule="nonzero"/><path fill="#df3a44" d="M 149.535156 589.023438 L 150.632812 582.359375 C 151 580.132812 149.554688 578.015625 147.347656 577.546875 C 136.34375 575.230469 105.84375 568.621094 101.871094 565.824219 C 97.015625 562.398438 61.839844 595.542969 67.109375 594.671875 C 106.378906 588.199219 149.535156 589.023438 149.535156 589.023438 " fill-opacity="1" fill-rule="nonzero"/><path fill="#262b42" d="M 100.9375 566.597656 C 100.644531 566.597656 100.136719 566.671875 99.296875 567 C 90.8125 570.316406 71.546875 588.507812 68.105469 593.480469 C 103.644531 587.765625 142.378906 587.929688 148.671875 587.996094 L 149.628906 582.195312 C 149.90625 580.5 148.8125 578.898438 147.136719 578.542969 C 131.695312 575.292969 105.207031 569.421875 101.285156 566.652344 C 101.285156 566.652344 101.195312 566.597656 100.9375 566.597656 Z M 66.925781 595.703125 C 66.089844 595.703125 65.761719 595.144531 65.675781 594.953125 C 65.378906 594.304688 64.929688 593.316406 71.363281 586.726562 C 75.058594 582.941406 79.964844 578.441406 84.492188 574.6875 C 99.066406 562.601562 101.617188 564.402344 102.457031 564.992188 C 105.527344 567.15625 127.769531 572.382812 147.558594 576.550781 C 150.300781 577.132812 152.09375 579.753906 151.636719 582.527344 L 150.539062 589.191406 C 150.457031 589.6875 150.023438 590.023438 149.515625 590.042969 C 149.085938 590.03125 106 589.296875 67.277344 595.675781 C 67.152344 595.695312 67.035156 595.703125 66.925781 595.703125 " fill-opacity="1" fill-rule="nonzero"/><path fill="#ffffff" d="M 256.394531 522.488281 C 257.0625 521.148438 260.421875 517.148438 261.957031 516 L 278.121094 500.96875 C 278.121094 500.96875 280.222656 508.214844 277.675781 512.484375 C 282.636719 512.644531 286.5625 513.492188 286.5625 513.492188 C 286.5625 513.492188 293.949219 506.988281 295.785156 505.863281 C 297.625 504.742188 300.027344 502.964844 302.5 502.996094 C 304.980469 503.03125 307.4375 504.921875 307.4375 504.921875 L 293.238281 522.921875 L 267.417969 530.027344 L 268.863281 569.175781 L 244.328125 565.824219 L 256.394531 522.488281 " fill-opacity="1" fill-rule="nonzero"/><path fill="#262b42" d="M 245.621094 564.976562 L 267.800781 568.007812 L 266.398438 530.066406 C 266.382812 529.59375 266.691406 529.171875 267.148438 529.046875 L 292.644531 522.027344 L 305.953125 505.167969 C 305.113281 504.671875 303.78125 504.03125 302.484375 504.015625 C 302.472656 504.015625 302.453125 504.015625 302.433594 504.015625 C 300.621094 504.015625 298.691406 505.238281 297.132812 506.222656 C 296.851562 506.402344 296.582031 506.574219 296.320312 506.730469 C 294.871094 507.613281 289.273438 512.460938 287.238281 514.253906 C 286.996094 514.46875 286.667969 514.554688 286.347656 514.488281 C 286.3125 514.480469 282.445312 513.65625 277.644531 513.5 C 277.285156 513.488281 276.953125 513.285156 276.78125 512.96875 C 276.609375 512.65625 276.617188 512.273438 276.800781 511.960938 C 278.394531 509.289062 277.949219 505.191406 277.523438 502.917969 L 262.648438 516.746094 C 262.625 516.769531 262.597656 516.792969 262.566406 516.816406 C 261.1875 517.847656 258.042969 521.574219 257.34375 522.867188 Z M 268.863281 570.195312 C 268.820312 570.195312 268.773438 570.191406 268.726562 570.1875 L 244.191406 566.832031 C 243.898438 566.792969 243.640625 566.628906 243.476562 566.382812 C 243.320312 566.136719 243.273438 565.832031 243.347656 565.550781 L 255.414062 522.214844 C 255.429688 522.152344 255.453125 522.089844 255.484375 522.03125 C 256.210938 520.582031 259.605469 516.515625 261.304688 515.21875 L 277.429688 500.226562 C 277.6875 499.984375 278.050781 499.894531 278.394531 499.992188 C 278.734375 500.085938 279.003906 500.347656 279.097656 500.6875 C 279.179688 500.96875 280.886719 506.988281 279.238281 511.539062 C 282.550781 511.738281 285.199219 512.195312 286.269531 512.398438 C 287.824219 511.035156 293.589844 506.011719 295.257812 504.996094 C 295.511719 504.839844 295.769531 504.675781 296.046875 504.503906 C 297.84375 503.367188 300.089844 501.964844 302.511719 501.980469 C 305.300781 502.015625 307.949219 504.035156 308.058594 504.121094 C 308.273438 504.285156 308.414062 504.53125 308.445312 504.800781 C 308.480469 505.070312 308.402344 505.34375 308.238281 505.554688 L 294.039062 523.550781 C 293.902344 523.722656 293.71875 523.84375 293.507812 523.902344 L 268.464844 530.792969 L 269.878906 569.140625 C 269.890625 569.441406 269.769531 569.730469 269.546875 569.933594 C 269.359375 570.101562 269.113281 570.195312 268.863281 570.195312 " fill-opacity="1" fill-rule="nonzero"/><path fill="#262b42" d="M 416.199219 212.523438 C 422.554688 223.367188 437.472656 225.5 440.816406 225.878906 C 454.414062 227.398438 464.453125 220.859375 467.167969 218.960938 C 471.875 221.851562 483.285156 227.945312 498.179688 226.804688 C 509.957031 225.902344 529.796875 220.023438 533.636719 206.257812 C 538.238281 189.773438 517.496094 170.636719 499.710938 163.878906 C 484.785156 158.207031 462.039062 157.484375 451.152344 168.960938 C 447.152344 173.171875 446.535156 177.15625 441.8125 178.53125 C 433.335938 181.003906 427.097656 170.574219 416.109375 171.105469 C 409.519531 171.421875 404.375 175.53125 401.195312 178.722656 C 393.089844 181.402344 388.117188 186.785156 388.726562 191.117188 C 389.355469 195.628906 395.949219 198.363281 397.238281 198.894531 C 403.914062 201.664062 407.460938 198.871094 411.417969 201.773438 C 414.925781 204.347656 413.503906 207.921875 416.199219 212.523438 " fill-opacity="1" fill-rule="nonzero"/><path fill="#ffffff" d="M 424.917969 223.671875 C 424.917969 223.671875 391.550781 234.332031 375.324219 223.671875 C 367.699219 218.664062 339.304688 183.265625 333.152344 179.996094 C 329.40625 178.003906 323.589844 175.015625 319.601562 172.980469 C 316.828125 171.558594 313.574219 171.40625 310.675781 172.558594 L 294.09375 179.152344 C 294.09375 179.152344 298.917969 183.027344 306.785156 181.476562 C 311.851562 180.480469 317.101562 180.992188 321.773438 183.203125 L 322.089844 183.355469 L 307.195312 187.988281 C 307.195312 187.988281 309.453125 191.753906 317.433594 190.308594 C 321.652344 189.539062 326.730469 190.492188 330.589844 191.550781 L 330.855469 191.695312 C 330.855469 191.695312 345.097656 231.230469 365.984375 243.601562 C 396.371094 261.601562 428.308594 250.289062 428.308594 250.289062 L 424.917969 223.671875 " fill-opacity="1" fill-rule="nonzero"/><path fill="#262b42" d="M 320.742188 189.011719 C 324.332031 189.011719 328.066406 189.800781 330.859375 190.570312 L 331.058594 190.648438 L 331.683594 190.972656 L 331.816406 191.347656 C 331.960938 191.738281 346.179688 230.683594 366.503906 242.726562 C 393.523438 258.726562 422.152344 251.113281 427.191406 249.574219 L 424.0625 224.992188 C 417.890625 226.808594 389.671875 234.3125 374.769531 224.519531 C 370.871094 221.957031 362.242188 212.285156 353.101562 202.046875 C 344.5 192.414062 335.613281 182.453125 332.671875 180.886719 C 328.957031 178.914062 323.265625 175.988281 319.140625 173.878906 C 316.628906 172.59375 313.679688 172.457031 311.050781 173.5 L 296.394531 179.328125 C 298.339844 180.261719 301.898438 181.398438 306.585938 180.476562 C 312.046875 179.402344 317.445312 180.023438 322.210938 182.28125 L 324.882812 183.546875 L 309.152344 188.4375 C 310.394531 189.234375 312.84375 190.101562 317.253906 189.300781 C 318.375 189.101562 319.554688 189.011719 320.742188 189.011719 Z M 404.363281 254.753906 C 393.019531 254.753906 379.050781 252.519531 365.46875 244.472656 C 345.433594 232.605469 331.738281 197 330.058594 192.460938 C 326.554688 191.511719 321.640625 190.574219 317.617188 191.304688 C 309.042969 192.855469 306.429688 188.6875 306.324219 188.507812 L 305.660156 187.394531 L 319.113281 183.210938 C 315.320312 181.90625 311.171875 181.648438 306.984375 182.472656 C 298.75 184.09375 293.667969 180.117188 293.457031 179.945312 L 292.09375 178.847656 L 310.296875 171.613281 C 313.46875 170.347656 317.03125 170.515625 320.070312 172.070312 C 324.199219 174.179688 329.902344 177.113281 333.628906 179.09375 C 336.890625 180.824219 345.5 190.476562 354.617188 200.695312 C 363.265625 210.382812 372.207031 220.402344 375.882812 222.820312 C 391.511719 233.089844 424.285156 222.804688 424.613281 222.703125 L 425.773438 222.328125 L 429.425781 250.96875 L 428.648438 251.242188 C 428.46875 251.308594 418.445312 254.753906 404.363281 254.753906 " fill-opacity="1" fill-rule="nonzero"/><path fill="#262b42" d="M 495.363281 289.945312 C 495.363281 289.945312 466.339844 309.652344 425.84375 303.847656 C 425.84375 303.847656 431.316406 293.277344 440.675781 289.480469 C 450.035156 285.6875 495.363281 289.945312 495.363281 289.945312 " fill-opacity="1" fill-rule="nonzero"/><path fill="#262b42" d="M 535.308594 339.65625 C 533.503906 295.453125 508.019531 279.164062 508.019531 279.164062 L 455.507812 292.261719 L 433.847656 339.65625 L 535.308594 339.65625 " fill-opacity="1" fill-rule="nonzero"/><path fill="#df3a44" d="M 426.046875 219.523438 L 453.65625 205.734375 C 460.65625 202.238281 469.128906 203.816406 474.378906 209.617188 C 486.429688 222.914062 507.175781 248.617188 517.613281 277.882812 C 517.613281 277.882812 498.847656 301.808594 474.042969 300.144531 C 449.234375 298.472656 434.613281 296.882812 425.839844 303.847656 C 425.839844 303.847656 418.546875 267.164062 417.070312 234.761719 C 416.777344 228.355469 420.3125 222.386719 426.046875 219.523438 " fill-opacity="1" fill-rule="nonzero"/><path fill="#262b42" d="M 470.023438 294.496094 C 469.5 294.496094 469.058594 294.101562 469.011719 293.574219 C 468.078125 283.621094 464.972656 276.550781 459.78125 272.554688 C 455.816406 269.503906 451.621094 268.902344 447.171875 268.261719 C 442.441406 267.582031 437.554688 266.882812 432.5625 263.261719 C 427.324219 259.460938 423.597656 253.589844 421.476562 245.808594 C 421.328125 245.269531 421.644531 244.707031 422.1875 244.558594 C 422.726562 244.410156 423.289062 244.730469 423.441406 245.273438 C 425.433594 252.59375 428.902344 258.09375 433.761719 261.613281 C 438.34375 264.9375 442.976562 265.605469 447.457031 266.25 C 451.972656 266.894531 456.636719 267.566406 461.019531 270.941406 C 466.679688 275.296875 470.050781 282.84375 471.03125 293.382812 C 471.085938 293.941406 470.675781 294.441406 470.117188 294.492188 C 470.082031 294.496094 470.050781 294.496094 470.023438 294.496094 " fill-opacity="1" fill-rule="nonzero"/><path fill="#ffffff" d="M 513.445312 338.144531 L 455.136719 218.949219 C 452.78125 214.128906 454.765625 208.308594 459.574219 205.933594 C 464.050781 203.71875 469.464844 205.246094 472.132812 209.46875 C 479.910156 221.789062 494.800781 246.605469 498.148438 260.910156 C 502.722656 280.484375 509.367188 290.175781 513.445312 296.414062 C 516.070312 300.441406 519.363281 314.738281 521.363281 324.359375 C 522.382812 329.242188 527.382812 332.183594 532.140625 330.679688 L 532.160156 330.675781 C 536.410156 329.335938 541.050781 330.121094 544.632812 332.78125 L 550.90625 337.441406 C 551.582031 337.945312 551.214844 339.027344 550.367188 339.003906 L 513.445312 338.144531 " fill-opacity="1" fill-rule="nonzero"/><path fill="#262b42" d="M 514.078125 337.140625 L 549.917969 337.980469 L 544.023438 333.597656 C 540.71875 331.140625 536.394531 330.410156 532.457031 331.648438 C 529.90625 332.457031 527.136719 332.140625 524.835938 330.796875 C 522.539062 329.449219 520.910156 327.175781 520.367188 324.570312 C 517.277344 309.726562 514.515625 299.921875 512.585938 296.96875 L 512.144531 296.296875 C 507.953125 289.890625 501.609375 280.203125 497.15625 261.144531 C 493.886719 247.164062 479.535156 223.109375 471.273438 210.015625 C 468.878906 206.222656 464.042969 204.863281 460.023438 206.847656 C 455.726562 208.96875 453.941406 214.199219 456.050781 218.503906 Z M 550.386719 340.023438 C 550.371094 340.023438 550.359375 340.023438 550.34375 340.023438 L 512.796875 339.144531 L 512.523438 338.59375 L 454.222656 219.398438 C 451.625 214.085938 453.824219 207.640625 459.125 205.023438 C 464.082031 202.570312 470.039062 204.253906 472.988281 208.929688 C 481.324219 222.128906 495.800781 246.410156 499.136719 260.679688 C 503.507812 279.390625 509.730469 288.894531 513.847656 295.183594 L 514.292969 295.855469 C 516.933594 299.910156 520.140625 313.480469 522.359375 324.15625 C 522.785156 326.203125 524.066406 327.984375 525.867188 329.039062 C 527.664062 330.097656 529.839844 330.339844 531.835938 329.714844 C 536.402344 328.269531 541.410156 329.117188 545.238281 331.964844 L 551.507812 336.628906 C 552.171875 337.121094 552.433594 337.972656 552.167969 338.753906 C 551.902344 339.519531 551.195312 340.023438 550.386719 340.023438 " fill-opacity="1" fill-rule="nonzero"/><path fill="#ffffff" d="M 426.113281 196.460938 C 426.15625 196.410156 428.980469 193.179688 427.433594 190.816406 C 425.871094 188.429688 422.785156 191.589844 422.785156 191.589844 C 422.785156 191.589844 420.171875 187.054688 414.191406 187.214844 C 414.191406 187.214844 411.644531 193.011719 405.132812 192.980469 C 405.132812 192.980469 406.617188 196.375 408.8125 200.132812 L 409.523438 204.1875 C 409.632812 204.800781 410.3125 205.117188 410.851562 204.800781 C 411.253906 204.5625 411.765625 204.671875 412.042969 205.042969 C 413.660156 207.15625 415.40625 208.933594 417.121094 209.703125 C 419.519531 210.777344 421.667969 209.671875 423.285156 207.605469 C 427.09375 212.21875 432.71875 220.074219 430.09375 223.46875 C 430.09375 223.46875 438.65625 225.949219 447.128906 214.300781 L 426.113281 196.460938 " fill-opacity="1" fill-rule="nonzero"/><path fill="#262b42" d="M 431.605469 222.671875 C 434.058594 222.820312 439.796875 222.195312 445.738281 214.457031 L 424.667969 196.566406 L 425.347656 195.789062 C 425.371094 195.761719 427.675781 193.050781 426.582031 191.371094 C 426.351562 191.023438 426.140625 190.960938 425.984375 190.945312 C 425.199219 190.859375 423.957031 191.84375 423.515625 192.300781 L 422.578125 193.257812 L 421.902344 192.097656 C 421.8125 191.941406 419.65625 188.378906 414.8125 188.234375 C 413.992188 189.691406 411.511719 193.273438 406.679688 193.90625 C 407.308594 195.21875 408.371094 197.363281 409.691406 199.621094 L 409.785156 199.78125 L 410.492188 203.839844 C 411.308594 203.457031 412.300781 203.691406 412.855469 204.425781 C 414.582031 206.691406 416.15625 208.15625 417.539062 208.777344 C 419.703125 209.746094 421.421875 208.335938 422.484375 206.980469 L 423.265625 205.980469 L 424.070312 206.960938 C 429.988281 214.136719 432.515625 219.40625 431.605469 222.671875 Z M 432.199219 224.71875 C 430.792969 224.71875 429.917969 224.476562 429.808594 224.445312 L 428.375 224.035156 L 429.285156 222.847656 C 430.804688 220.878906 428.554688 215.804688 423.25 209.179688 C 421.296875 211.109375 418.964844 211.640625 416.703125 210.628906 C 415.023438 209.875 413.199219 208.226562 411.285156 205.71875 C 410.761719 205.996094 410.140625 206.015625 409.597656 205.765625 C 409.03125 205.503906 408.625 204.976562 408.519531 204.363281 L 407.84375 200.488281 C 405.691406 196.785156 404.257812 193.53125 404.195312 193.390625 L 403.570312 191.957031 L 405.136719 191.964844 C 405.152344 191.964844 405.167969 191.964844 405.179688 191.964844 C 410.925781 191.964844 413.242188 186.859375 413.261719 186.804688 L 413.523438 186.21875 L 414.164062 186.199219 C 418.9375 186.078125 421.742188 188.632812 422.957031 190.097656 C 423.753906 189.496094 424.960938 188.804688 426.183594 188.917969 C 426.78125 188.980469 427.632812 189.257812 428.285156 190.257812 C 429.710938 192.4375 428.382812 195.011719 427.503906 196.304688 L 448.503906 214.140625 L 447.949219 214.898438 C 441.777344 223.390625 435.511719 224.71875 432.199219 224.71875 " fill-opacity="1" fill-rule="nonzero"/><path fill="#262b42" d="M 423.285156 208.625 C 423.054688 208.625 422.824219 208.542969 422.628906 208.382812 C 422.203125 208.023438 422.148438 207.378906 422.507812 206.949219 C 423.457031 205.824219 424.3125 203.363281 424.558594 202.511719 C 424.71875 201.972656 425.285156 201.667969 425.824219 201.824219 C 426.359375 201.980469 426.671875 202.546875 426.515625 203.082031 C 426.472656 203.222656 425.484375 206.578125 424.0625 208.261719 C 423.863281 208.5 423.578125 208.625 423.285156 208.625 " fill-opacity="1" fill-rule="nonzero"/><path fill="#df3a44" d="M 484.03125 680.554688 C 484.03125 680.554688 497.546875 676.328125 519.683594 633.371094 C 538.371094 597.113281 521.710938 562.070312 518.347656 538.632812 C 518.003906 536.238281 514.734375 535.894531 513.925781 538.167969 C 508.320312 553.917969 499.308594 582.554688 500.761719 600.1875 C 502.867188 625.597656 484.03125 680.554688 484.03125 680.554688 " fill-opacity="1" fill-rule="nonzero"/><path fill="#df3a44" d="M 498.679688 657.070312 L 503.492188 619.007812 C 505.585938 602.484375 502.878906 585.703125 495.710938 570.699219 C 485.265625 548.839844 484.445312 523.546875 493.453125 501.042969 L 501.183594 481.726562 C 502.160156 479.285156 499.050781 477.304688 497.285156 479.242188 L 486.425781 491.191406 C 461.789062 518.289062 453.476562 556.652344 464.648438 591.660156 L 484.652344 654.371094 L 498.679688 657.070312 " fill-opacity="1" fill-rule="nonzero"/><path fill="#f4f4f4" d="M 501 639.746094 C 500.957031 639.746094 500.914062 639.742188 500.871094 639.738281 C 500.3125 639.667969 499.917969 639.160156 499.988281 638.597656 L 502.484375 618.878906 C 503.746094 608.886719 503.253906 598.84375 501.015625 589.027344 C 500.894531 588.480469 501.234375 587.933594 501.785156 587.8125 C 502.335938 587.6875 502.875 588.03125 503 588.574219 C 505.289062 598.625 505.796875 608.90625 504.5 619.132812 L 502.007812 638.855469 C 501.941406 639.371094 501.503906 639.746094 501 639.746094 " fill-opacity="1" fill-rule="nonzero"/><path fill="#df3a44" d="M 492.476562 658.316406 L 475.777344 615.660156 C 471.027344 603.527344 461.027344 594.257812 448.648438 590.507812 L 437.261719 587.058594 C 434.496094 586.222656 432.640625 589.875 434.925781 591.652344 L 441.925781 597.097656 C 449.511719 602.996094 454.035156 612.042969 454.234375 621.703125 L 454.234375 621.707031 C 454.351562 627.378906 455.96875 632.921875 458.917969 637.757812 L 470.234375 656.316406 L 492.476562 658.316406 " fill-opacity="1" fill-rule="nonzero"/><path fill="#f4f4f4" d="M 490.007812 639.289062 C 489.972656 639.289062 489.941406 639.289062 489.910156 639.285156 C 489.347656 639.234375 488.9375 638.738281 488.988281 638.179688 C 491.53125 611.019531 486.070312 593.523438 481.257812 578.089844 C 479.023438 570.921875 476.910156 564.15625 475.65625 556.871094 C 469.722656 522.433594 489.949219 492.554688 490.15625 492.253906 C 490.472656 491.792969 491.105469 491.675781 491.570312 491.992188 C 492.03125 492.3125 492.148438 492.945312 491.828125 493.40625 C 491.628906 493.699219 471.875 522.917969 477.660156 556.523438 C 478.890625 563.679688 480.984375 570.386719 483.199219 577.484375 C 488.066406 593.101562 493.59375 610.800781 491.019531 638.367188 C 490.96875 638.898438 490.523438 639.289062 490.007812 639.289062 " fill-opacity="1" fill-rule="nonzero"/><path fill="#f4f4f4" d="M 482.914062 626.738281 C 482.488281 626.738281 482.089844 626.464844 481.949219 626.039062 C 479.808594 619.558594 474.964844 612.8125 471.273438 608.296875 C 470.917969 607.859375 470.980469 607.222656 471.414062 606.863281 C 471.855469 606.511719 472.496094 606.574219 472.851562 607.007812 C 476.648438 611.660156 481.644531 618.625 483.882812 625.398438 C 484.058594 625.933594 483.769531 626.507812 483.234375 626.683594 C 483.128906 626.722656 483.023438 626.738281 482.914062 626.738281 " fill-opacity="1" fill-rule="nonzero"/><path fill="#f4f4f4" d="M 512.246094 621.082031 C 512.191406 621.082031 512.132812 621.074219 512.074219 621.066406 C 511.519531 620.972656 511.152344 620.449219 511.242188 619.890625 C 515.785156 593.035156 514.214844 551.664062 514.199219 551.25 C 514.175781 550.6875 514.613281 550.214844 515.171875 550.191406 C 515.765625 550.171875 516.210938 550.605469 516.226562 551.167969 C 516.246094 551.585938 517.828125 593.164062 513.25 620.234375 C 513.167969 620.730469 512.738281 621.082031 512.246094 621.082031 " fill-opacity="1" fill-rule="nonzero"/><path fill="#f4f4f4" d="M 472.371094 643.367188 C 471.816406 643.367188 471.359375 642.917969 471.355469 642.359375 C 471.035156 609.128906 444.476562 594.492188 444.210938 594.351562 C 443.714844 594.085938 443.527344 593.46875 443.792969 592.972656 C 444.058594 592.476562 444.675781 592.289062 445.171875 592.558594 C 445.449219 592.703125 473.054688 607.875 473.386719 642.339844 C 473.394531 642.902344 472.941406 643.359375 472.382812 643.367188 C 472.378906 643.367188 472.375 643.367188 472.371094 643.367188 " fill-opacity="1" fill-rule="nonzero"/><path fill="#f4f4f4" d="M 476.003906 580.664062 C 475.695312 580.664062 475.398438 580.53125 475.195312 580.273438 C 467.898438 570.898438 464.761719 558.625 464.632812 558.109375 C 464.496094 557.5625 464.824219 557.011719 465.371094 556.875 C 465.914062 556.742188 466.46875 557.066406 466.605469 557.613281 C 466.636719 557.734375 469.773438 569.996094 476.804688 579.023438 C 477.148438 579.464844 477.066406 580.105469 476.625 580.449219 C 476.4375 580.59375 476.21875 580.664062 476.003906 580.664062 " fill-opacity="1" fill-rule="nonzero"/><path fill="#f4f4f4" d="M 488.519531 707.878906 C 471.046875 707.878906 456.878906 693.714844 456.878906 676.242188 L 456.878906 648.003906 L 520.152344 648.003906 L 520.152344 676.242188 C 520.152344 693.714844 505.992188 707.878906 488.519531 707.878906 " fill-opacity="1" fill-rule="nonzero"/><path fill="#f4f4f4" d="M 513.953125 659.589844 L 463.085938 659.589844 C 462.527344 659.589844 462.066406 659.132812 462.066406 658.570312 C 462.066406 658.011719 462.527344 657.554688 463.085938 657.554688 L 513.953125 657.554688 C 514.519531 657.554688 514.972656 658.011719 514.972656 658.570312 C 514.972656 659.132812 514.519531 659.589844 513.953125 659.589844 " fill-opacity="1" fill-rule="nonzero"/><path fill="#262b42" d="M 17.699219 300.871094 C 17.4375 300.871094 17.175781 300.773438 16.976562 300.574219 C 16.582031 300.179688 16.582031 299.535156 16.976562 299.136719 L 83.136719 232.984375 C 83.535156 232.585938 84.179688 232.585938 84.574219 232.984375 C 84.972656 233.378906 84.972656 234.023438 84.574219 234.421875 L 18.417969 300.574219 C 18.21875 300.773438 17.957031 300.871094 17.699219 300.871094 " fill-opacity="1" fill-rule="nonzero"/><path fill="#262b42" d="M 53.652344 289.308594 C 53.394531 289.308594 53.132812 289.207031 52.933594 289.011719 C 52.535156 288.613281 52.535156 287.96875 52.933594 287.570312 L 113.339844 227.171875 C 113.734375 226.773438 114.378906 226.773438 114.777344 227.171875 C 115.175781 227.566406 115.175781 228.210938 114.777344 228.605469 L 54.375 289.011719 C 54.171875 289.207031 53.914062 289.308594 53.652344 289.308594 " fill-opacity="1" fill-rule="nonzero"/><path fill="#262b42" d="M 94.605469 227.359375 C 91.28125 227.359375 88.578125 224.660156 88.578125 221.332031 C 88.578125 220.769531 89.035156 220.316406 89.59375 220.316406 C 90.15625 220.316406 90.613281 220.769531 90.613281 221.332031 C 90.613281 223.53125 92.402344 225.324219 94.605469 225.324219 C 96.804688 225.324219 98.597656 223.53125 98.597656 221.332031 C 98.597656 219.132812 96.804688 217.339844 94.605469 217.339844 C 94.042969 217.339844 93.585938 216.886719 93.585938 216.324219 C 93.585938 215.761719 94.042969 215.308594 94.605469 215.308594 C 97.925781 215.308594 100.628906 218.011719 100.628906 221.332031 C 100.628906 224.660156 97.925781 227.359375 94.605469 227.359375 " fill-opacity="1" fill-rule="nonzero"/><path fill="#262b42" d="M 365.496094 306.632812 C 365.238281 306.632812 364.976562 306.535156 364.777344 306.335938 C 364.382812 305.9375 364.382812 305.296875 364.777344 304.898438 L 393.714844 275.960938 C 394.113281 275.5625 394.757812 275.5625 395.15625 275.960938 C 395.550781 276.359375 395.550781 277.003906 395.15625 277.398438 L 366.214844 306.335938 C 366.019531 306.535156 365.757812 306.632812 365.496094 306.632812 " fill-opacity="1" fill-rule="nonzero"/><path fill="#262b42" d="M 356.859375 328.15625 C 356.597656 328.15625 356.339844 328.054688 356.140625 327.855469 C 355.746094 327.460938 355.746094 326.816406 356.140625 326.417969 L 384.308594 298.257812 C 384.703125 297.855469 385.351562 297.855469 385.746094 298.257812 C 386.140625 298.652344 386.140625 299.292969 385.746094 299.695312 L 357.578125 327.855469 C 357.378906 328.054688 357.121094 328.15625 356.859375 328.15625 " fill-opacity="1" fill-rule="nonzero"/></svg>