<svg xmlns="http://www.w3.org/2000/svg" xmlns:xlink="http://www.w3.org/1999/xlink" width="793" zoomAndPan="magnify" viewBox="0 0 595.5 842.249979" height="1122" preserveAspectRatio="xMidYMid meet" version="1.0"><defs><clipPath id="a797aafcbc"><path d="M 0.015625 0 L 594.984375 0 L 594.984375 841.5 L 0.015625 841.5 Z M 0.015625 0 " clip-rule="nonzero"/></clipPath><clipPath id="5d2c583c25"><path d="M 0.015625 630 L 594.984375 630 L 594.984375 841.5 L 0.015625 841.5 Z M 0.015625 630 " clip-rule="nonzero"/></clipPath><clipPath id="5250ae4f58"><path d="M 0.015625 693 L 594.984375 693 L 594.984375 841.5 L 0.015625 841.5 Z M 0.015625 693 " clip-rule="nonzero"/></clipPath><clipPath id="e413720731"><path d="M 0.015625 567 L 594.984375 567 L 594.984375 782 L 0.015625 782 Z M 0.015625 567 " clip-rule="nonzero"/></clipPath><clipPath id="7ca3ffd068"><path d="M 0.015625 504 L 594.984375 504 L 594.984375 719 L 0.015625 719 Z M 0.015625 504 " clip-rule="nonzero"/></clipPath><clipPath id="1f98974d0c"><path d="M 0.015625 441 L 594.984375 441 L 594.984375 656 L 0.015625 656 Z M 0.015625 441 " clip-rule="nonzero"/></clipPath><clipPath id="10280c056b"><path d="M 0.015625 378 L 594.984375 378 L 594.984375 593 L 0.015625 593 Z M 0.015625 378 " clip-rule="nonzero"/></clipPath><clipPath id="0d4dd20de9"><path d="M 0.015625 303 L 594.984375 303 L 594.984375 518 L 0.015625 518 Z M 0.015625 303 " clip-rule="nonzero"/></clipPath><clipPath id="f9a4c03867"><path d="M 0.015625 240 L 594.984375 240 L 594.984375 455 L 0.015625 455 Z M 0.015625 240 " clip-rule="nonzero"/></clipPath><clipPath id="8dadb053c1"><path d="M 0.015625 177 L 594.984375 177 L 594.984375 392 L 0.015625 392 Z M 0.015625 177 " clip-rule="nonzero"/></clipPath><clipPath id="74c1e4e943"><path d="M 0.015625 114 L 594.984375 114 L 594.984375 329 L 0.015625 329 Z M 0.015625 114 " clip-rule="nonzero"/></clipPath><clipPath id="6f7df5ca46"><path d="M 0.015625 51 L 594.984375 51 L 594.984375 266 L 0.015625 266 Z M 0.015625 51 " clip-rule="nonzero"/></clipPath><clipPath id="69185cfa02"><path d="M 0.015625 0 L 594.984375 0 L 594.984375 203 L 0.015625 203 Z M 0.015625 0 " clip-rule="nonzero"/></clipPath><clipPath id="1486885b2e"><path d="M 0.015625 743 L 314 743 L 314 782 L 0.015625 782 Z M 0.015625 743 " clip-rule="nonzero"/></clipPath><clipPath id="4a766a0f28"><path d="M 0.015625 806 L 377 806 L 377 841.5 L 0.015625 841.5 Z M 0.015625 806 " clip-rule="nonzero"/></clipPath><clipPath id="2e3bbf45cc"><path d="M 501 114 L 594.984375 114 L 594.984375 153 L 501 153 Z M 501 114 " clip-rule="nonzero"/></clipPath><clipPath id="6d675b2a35"><path d="M 438 51 L 594.984375 51 L 594.984375 90 L 438 90 Z M 438 51 " clip-rule="nonzero"/></clipPath><clipPath id="cfc4cda2bf"><path d="M 313 0 L 594.984375 0 L 594.984375 27 L 313 27 Z M 313 0 " clip-rule="nonzero"/></clipPath></defs><g clip-path="url(#a797aafcbc)"><path fill="#ffffff" d="M 0.015625 0 L 595.484375 0 L 595.484375 848.957031 L 0.015625 848.957031 Z M 0.015625 0 " fill-opacity="1" fill-rule="nonzero"/><path fill="#ffffff" d="M 0.015625 0 L 595.484375 0 L 595.484375 842.207031 L 0.015625 842.207031 Z M 0.015625 0 " fill-opacity="1" fill-rule="nonzero"/><path fill="#ffffff" d="M 0.015625 0 L 595.484375 0 L 595.484375 842.207031 L 0.015625 842.207031 Z M 0.015625 0 " fill-opacity="1" fill-rule="nonzero"/></g><g clip-path="url(#5d2c583c25)"><path fill="#1a1852" d="M 941.949219 806.34375 L 564.675781 812.691406 L 571.117188 814.476562 L 253.546875 631.074219 L 251.933594 630.140625 L 250.285156 630.167969 L -126.988281 636.519531 L 250.285156 642.867188 L 247.019531 641.964844 L 558.238281 835.945312 L 561 837.671875 L 564.675781 837.730469 L 941.949219 844.082031 Z M 941.949219 806.34375 " fill-opacity="1" fill-rule="nonzero"/></g><g clip-path="url(#5250ae4f58)"><path fill="#1a1852" d="M 941.949219 869.238281 L 564.675781 875.589844 L 571.117188 877.375 L 253.546875 693.972656 L 251.933594 693.039062 L 250.285156 693.066406 L -126.988281 699.417969 L 250.285156 705.765625 L 247.019531 704.859375 L 558.238281 898.84375 L 561 900.566406 L 564.675781 900.628906 L 941.949219 906.976562 Z M 941.949219 869.238281 " fill-opacity="1" fill-rule="nonzero"/></g><g clip-path="url(#e413720731)"><path fill="#1a1852" d="M 941.949219 743.445312 L 564.675781 749.792969 L 571.117188 751.578125 L 253.546875 568.175781 L 251.933594 567.242188 L 250.285156 567.269531 L -126.988281 573.621094 L 250.285156 579.972656 L 247.019531 579.066406 L 558.238281 773.050781 L 561 774.773438 L 564.675781 774.832031 L 941.949219 781.183594 Z M 941.949219 743.445312 " fill-opacity="1" fill-rule="nonzero"/></g><g clip-path="url(#7ca3ffd068)"><path fill="#1a1852" d="M 941.949219 680.546875 L 564.675781 686.898438 L 571.117188 688.679688 L 253.546875 505.28125 L 251.933594 504.347656 L 250.285156 504.375 L -126.988281 510.722656 L 250.285156 517.074219 L 247.019531 516.167969 L 558.238281 710.152344 L 561 711.875 L 564.675781 711.933594 L 941.949219 718.285156 Z M 941.949219 680.546875 " fill-opacity="1" fill-rule="nonzero"/></g><g clip-path="url(#1f98974d0c)"><path fill="#1a1852" d="M 941.949219 617.648438 L 564.675781 624 L 571.117188 625.785156 L 253.546875 442.382812 L 251.933594 441.449219 L 250.285156 441.476562 L -126.988281 447.828125 L 250.285156 454.175781 L 247.019531 453.269531 L 558.238281 647.253906 L 561 648.976562 L 564.675781 649.039062 L 941.949219 655.386719 Z M 941.949219 617.648438 " fill-opacity="1" fill-rule="nonzero"/></g><g clip-path="url(#10280c056b)"><path fill="#1a1852" d="M 941.949219 554.753906 L 564.675781 561.101562 L 571.117188 562.886719 L 253.546875 379.484375 L 251.933594 378.550781 L 250.285156 378.578125 L -126.988281 384.929688 L 250.285156 391.277344 L 247.019531 390.375 L 558.238281 584.355469 L 561 586.078125 L 564.675781 586.140625 L 941.949219 592.492188 Z M 941.949219 554.753906 " fill-opacity="1" fill-rule="nonzero"/></g><g clip-path="url(#0d4dd20de9)"><path fill="#1a1852" d="M -126.988281 340.902344 L 250.285156 334.550781 L 243.84375 332.765625 L 561.414062 516.167969 L 563.027344 517.101562 L 564.675781 517.074219 L 941.949219 510.722656 L 564.675781 504.375 L 567.941406 505.28125 L 256.722656 311.296875 L 253.960938 309.574219 L 250.285156 309.511719 L -126.988281 303.160156 Z M -126.988281 340.902344 " fill-opacity="1" fill-rule="nonzero"/></g><g clip-path="url(#f9a4c03867)"><path fill="#1a1852" d="M -126.988281 278.003906 L 250.285156 271.652344 L 243.84375 269.867188 L 561.414062 453.269531 L 563.027344 454.203125 L 564.675781 454.175781 L 941.949219 447.828125 L 564.675781 441.476562 L 567.941406 442.382812 L 256.722656 248.398438 L 253.960938 246.675781 L 250.285156 246.613281 L -126.988281 240.265625 Z M -126.988281 278.003906 " fill-opacity="1" fill-rule="nonzero"/></g><g clip-path="url(#8dadb053c1)"><path fill="#1a1852" d="M -126.988281 215.105469 L 250.285156 208.753906 L 243.84375 206.972656 L 561.414062 390.375 L 563.027344 391.304688 L 564.675781 391.277344 L 941.949219 384.929688 L 564.675781 378.578125 L 567.941406 379.484375 L 256.722656 185.5 L 253.960938 183.777344 L 250.285156 183.71875 L -126.988281 177.367188 Z M -126.988281 215.105469 " fill-opacity="1" fill-rule="nonzero"/></g><g clip-path="url(#74c1e4e943)"><path fill="#1a1852" d="M -126.988281 152.207031 L 250.285156 145.859375 L 243.84375 144.074219 L 561.414062 327.476562 L 563.027344 328.410156 L 564.675781 328.382812 L 941.949219 322.03125 L 564.675781 315.679688 L 567.941406 316.585938 L 256.722656 122.601562 L 253.960938 120.878906 L 250.285156 120.820312 L -126.988281 114.46875 Z M -126.988281 152.207031 " fill-opacity="1" fill-rule="nonzero"/></g><g clip-path="url(#6f7df5ca46)"><path fill="#1a1852" d="M -126.988281 89.3125 L 250.285156 82.960938 L 243.84375 81.175781 L 561.414062 264.578125 L 563.027344 265.511719 L 564.675781 265.484375 L 941.949219 259.132812 L 564.675781 252.785156 L 567.941406 253.6875 L 256.722656 59.707031 L 253.960938 57.984375 L 250.285156 57.921875 L -126.988281 51.570312 Z M -126.988281 89.3125 " fill-opacity="1" fill-rule="nonzero"/></g><g clip-path="url(#69185cfa02)"><path fill="#1a1852" d="M -126.988281 26.414062 L 250.285156 20.0625 L 243.84375 18.277344 L 561.414062 201.679688 L 563.027344 202.613281 L 564.675781 202.585938 L 941.949219 196.234375 L 564.675781 189.886719 L 567.941406 190.792969 L 256.722656 -3.191406 L 253.960938 -4.914062 L 250.285156 -4.976562 L -126.988281 -11.324219 Z M -126.988281 26.414062 " fill-opacity="1" fill-rule="nonzero"/></g><g clip-path="url(#1486885b2e)"><path fill="#1a1852" d="M -126.988281 781.183594 L 313.160156 762.3125 L -126.988281 743.445312 Z M -126.988281 781.183594 " fill-opacity="1" fill-rule="nonzero"/></g><g clip-path="url(#4a766a0f28)"><path fill="#1a1852" d="M -126.988281 844.082031 L 376.039062 825.210938 L -126.988281 806.34375 Z M -126.988281 844.082031 " fill-opacity="1" fill-rule="nonzero"/></g><g clip-path="url(#2e3bbf45cc)"><path fill="#1a1852" d="M 941.949219 114.46875 L 501.796875 133.339844 L 941.949219 152.207031 Z M 941.949219 114.46875 " fill-opacity="1" fill-rule="nonzero"/></g><g clip-path="url(#6d675b2a35)"><path fill="#1a1852" d="M 941.949219 51.570312 L 438.917969 70.441406 L 941.949219 89.3125 Z M 941.949219 51.570312 " fill-opacity="1" fill-rule="nonzero"/></g><g clip-path="url(#cfc4cda2bf)"><path fill="#1a1852" d="M 941.949219 -11.324219 L 313.160156 7.542969 L 941.949219 26.414062 Z M 941.949219 -11.324219 " fill-opacity="1" fill-rule="nonzero"/></g></svg>