<svg xmlns="http://www.w3.org/2000/svg" xmlns:xlink="http://www.w3.org/1999/xlink" width="793" zoomAndPan="magnify" viewBox="0 0 595.5 842.249979" height="1122" preserveAspectRatio="xMidYMid meet" version="1.0"><path fill="#ffffff" d="M 563.621094 225.609375 C 545.433594 188.953125 509.097656 169.144531 486.5625 156.863281 C 389.148438 103.761719 256.4375 117.902344 168.238281 167.410156 C 81.171875 216.277344 5.296875 331.988281 37.101562 457.707031 C 69.03125 583.90625 164.863281 644.042969 258.855469 657.800781 C 408.105469 679.648438 561.941406 585.015625 568.800781 550.519531 C 570.917969 539.878906 570.367188 530.453125 570.367188 530.453125 C 567.71875 505.554688 547.214844 490.757812 542.4375 434.007812 C 533.648438 329.582031 595.515625 289.902344 563.621094 225.609375 " fill-opacity="1" fill-rule="nonzero"/><path fill="#f4f4f4" d="M 353.082031 451.175781 L 354.28125 133.726562 C 354.296875 129.460938 357.753906 125.988281 362.003906 125.96875 L 565.015625 125.054688 C 569.265625 125.035156 572.691406 128.476562 572.675781 132.742188 L 571.476562 450.191406 C 571.460938 454.453125 568.003906 457.929688 563.753906 457.949219 L 360.742188 458.863281 C 356.496094 458.882812 353.066406 455.441406 353.082031 451.175781 " fill-opacity="1" fill-rule="nonzero"/><path fill="#ffffff" d="M 336.328125 438.976562 L 337.433594 147.613281 C 337.449219 143.347656 340.902344 139.875 345.148438 139.855469 L 548.164062 138.9375 C 552.414062 138.921875 555.839844 142.363281 555.824219 146.628906 L 554.71875 437.996094 C 554.707031 442.261719 551.246094 445.734375 547.003906 445.753906 L 343.988281 446.671875 C 339.746094 446.6875 336.308594 443.246094 336.328125 438.976562 " fill-opacity="1" fill-rule="nonzero"/><path fill="#ffffff" d="M 327.726562 437.671875 L 328.832031 146.308594 C 328.847656 142.042969 332.304688 138.570312 336.550781 138.550781 L 539.566406 137.632812 C 543.8125 137.613281 547.242188 141.054688 547.226562 145.320312 L 546.121094 436.691406 C 546.105469 440.957031 542.648438 444.429688 538.402344 444.449219 L 335.386719 445.363281 C 331.140625 445.382812 327.710938 441.941406 327.726562 437.671875 " fill-opacity="1" fill-rule="nonzero"/><path fill="#df3a44" d="M 316.40625 457.476562 L 317.65625 127.753906 C 317.667969 123.492188 321.128906 120.015625 325.371094 119.996094 L 528.386719 119.082031 C 532.632812 119.0625 536.066406 122.507812 536.046875 126.773438 L 534.804688 456.488281 C 534.785156 460.757812 531.328125 464.230469 527.082031 464.25 L 324.066406 465.164062 C 319.820312 465.1875 316.390625 461.742188 316.40625 457.476562 " fill-opacity="1" fill-rule="nonzero"/><path fill="#000000" d="M 252.890625 510.726562 C 253.757812 510.25 254.628906 509.785156 255.511719 509.34375 C 263.300781 505.457031 271.699219 502.558594 279.875 499.59375 C 310.148438 488.621094 341.34375 480.542969 372.183594 471.378906 C 383.101562 468.140625 394.019531 464.945312 404.996094 461.960938 C 447.277344 373.410156 523.320312 212.113281 516.222656 212.113281 L 104.847656 196.246094 C 95.066406 196.246094 87.082031 204.199219 87.082031 213.972656 L 87.082031 500.832031 C 87.082031 510.609375 95.066406 518.558594 104.847656 518.558594 L 253.496094 508.5 L 252.890625 510.726562 " fill-opacity="1" fill-rule="nonzero"/><path fill="#ffffff" d="M 375.179688 481.957031 L 270.285156 481.957031 L 240.527344 590.472656 L 404.941406 590.472656 L 375.179688 481.957031 " fill-opacity="1" fill-rule="nonzero"/><path fill="#000000" d="M 241.8125 589.492188 L 403.652344 589.492188 L 374.433594 482.941406 L 271.03125 482.941406 Z M 404.9375 591.453125 L 240.527344 591.453125 C 240.21875 591.453125 239.929688 591.308594 239.746094 591.066406 C 239.558594 590.820312 239.5 590.507812 239.578125 590.210938 L 269.339844 481.703125 C 269.453125 481.273438 269.84375 480.980469 270.285156 480.980469 L 375.179688 480.980469 C 375.621094 480.980469 376.011719 481.273438 376.128906 481.703125 L 405.886719 590.210938 C 405.96875 590.507812 405.90625 590.820312 405.71875 591.066406 C 405.535156 591.308594 405.246094 591.453125 404.9375 591.453125 " fill-opacity="1" fill-rule="nonzero"/><path fill="#ffffff" d="M 548.414062 214.003906 C 548.414062 204.765625 540.921875 197.28125 531.675781 197.28125 L 112.984375 197.28125 C 103.738281 197.28125 96.246094 204.765625 96.246094 214.003906 L 96.246094 500.863281 C 96.246094 510.097656 103.738281 517.585938 112.984375 517.585938 L 531.675781 517.585938 C 540.921875 517.585938 548.414062 510.097656 548.414062 500.863281 L 548.414062 214.003906 " fill-opacity="1" fill-rule="nonzero"/><path fill="#ffffff" d="M 422.792969 579.359375 L 222.671875 579.359375 C 216.917969 579.359375 212.257812 583.746094 212.257812 589.492188 C 212.257812 595.238281 216.917969 599.621094 222.671875 599.621094 L 422.792969 599.621094 C 428.546875 599.621094 433.207031 595.238281 433.207031 589.492188 C 433.207031 583.746094 428.546875 579.359375 422.792969 579.359375 " fill-opacity="1" fill-rule="nonzero"/><path fill="#000000" d="M 222.671875 580.339844 C 217.382812 580.339844 213.238281 584.359375 213.238281 589.492188 C 213.238281 594.625 217.382812 598.640625 222.671875 598.640625 L 422.789062 598.640625 C 428.082031 598.640625 432.226562 594.625 432.226562 589.492188 C 432.226562 584.359375 428.082031 580.339844 422.789062 580.339844 Z M 422.789062 600.601562 L 222.671875 600.601562 C 216.28125 600.601562 211.273438 595.722656 211.273438 589.492188 C 211.273438 583.257812 216.28125 578.378906 222.671875 578.378906 L 422.789062 578.378906 C 429.183594 578.378906 434.191406 583.257812 434.191406 589.492188 C 434.191406 595.722656 429.183594 600.601562 422.789062 600.601562 " fill-opacity="1" fill-rule="nonzero"/><path fill="#000000" d="M 548.082031 376.71875 C 547.542969 376.71875 547.101562 376.277344 547.101562 375.738281 L 547.101562 214.332031 C 547.101562 205.652344 540.03125 198.589844 531.34375 198.589844 L 501.296875 198.589844 C 500.753906 198.589844 500.316406 198.148438 500.316406 197.609375 C 500.316406 197.066406 500.753906 196.628906 501.296875 196.628906 L 531.34375 196.628906 C 541.117188 196.628906 549.066406 204.570312 549.066406 214.332031 L 549.066406 375.738281 C 549.066406 376.277344 548.628906 376.71875 548.082031 376.71875 " fill-opacity="1" fill-rule="nonzero"/><path fill="#000000" d="M 401.835938 518.894531 L 112.65625 518.894531 C 102.886719 518.894531 94.9375 510.953125 94.9375 501.191406 L 94.9375 214.332031 C 94.9375 204.570312 102.886719 196.628906 112.65625 196.628906 L 130.273438 196.628906 C 130.816406 196.628906 131.253906 197.066406 131.253906 197.609375 C 131.253906 198.148438 130.816406 198.589844 130.273438 198.589844 L 112.65625 198.589844 C 103.96875 198.589844 96.898438 205.648438 96.898438 214.332031 L 96.898438 501.191406 C 96.898438 509.871094 103.96875 516.933594 112.65625 516.933594 L 401.835938 516.933594 C 402.378906 516.933594 402.816406 517.371094 402.816406 517.914062 C 402.816406 518.457031 402.378906 518.894531 401.835938 518.894531 " fill-opacity="1" fill-rule="nonzero"/><path fill="#ffffff" d="M 534.015625 220.628906 C 534.015625 216.039062 530.289062 212.3125 525.695312 212.3125 L 119.621094 212.3125 C 115.023438 212.3125 111.296875 216.039062 111.296875 220.628906 L 111.296875 494.890625 C 111.296875 499.484375 115.023438 503.203125 119.621094 503.203125 L 525.695312 503.203125 C 530.289062 503.203125 534.015625 499.484375 534.015625 494.890625 L 534.015625 220.628906 " fill-opacity="1" fill-rule="nonzero"/><path fill="#f4f4f4" d="M 191.132812 494.707031 L 191.191406 425.417969 L 166.164062 425.417969 L 166.113281 494.707031 L 191.132812 494.707031 " fill-opacity="1" fill-rule="nonzero"/><path fill="#f4f4f4" d="M 221.136719 494.707031 L 221.808594 399.269531 L 196.78125 399.269531 L 196.113281 494.707031 L 221.136719 494.707031 " fill-opacity="1" fill-rule="nonzero"/><path fill="#f4f4f4" d="M 251.140625 494.707031 L 251.605469 406.460938 L 226.578125 406.460938 L 226.117188 494.707031 L 251.140625 494.707031 " fill-opacity="1" fill-rule="nonzero"/><path fill="#f4f4f4" d="M 281.140625 494.707031 L 282.007812 373.777344 L 256.980469 373.777344 L 256.121094 494.707031 L 281.140625 494.707031 " fill-opacity="1" fill-rule="nonzero"/><path fill="#f4f4f4" d="M 311.144531 494.707031 L 311.980469 342.398438 L 286.957031 342.398438 L 286.121094 494.707031 L 311.144531 494.707031 " fill-opacity="1" fill-rule="nonzero"/><path fill="#f4f4f4" d="M 341.144531 494.707031 L 342.625 351.550781 L 317.601562 351.550781 L 316.121094 494.707031 L 341.144531 494.707031 " fill-opacity="1" fill-rule="nonzero"/><path fill="#f4f4f4" d="M 371.714844 494.707031 L 373.601562 328.019531 L 348.578125 328.019531 L 346.691406 494.707031 L 371.714844 494.707031 " fill-opacity="1" fill-rule="nonzero"/><path fill="#f4f4f4" d="M 402.273438 494.707031 L 404.8125 320.175781 L 379.789062 320.175781 L 377.25 494.707031 L 402.273438 494.707031 " fill-opacity="1" fill-rule="nonzero"/><path fill="#f4f4f4" d="M 432.84375 494.707031 L 434.464844 366.585938 L 409.441406 366.585938 L 407.820312 494.707031 L 432.84375 494.707031 " fill-opacity="1" fill-rule="nonzero"/><path fill="#f4f4f4" d="M 463.421875 494.707031 L 465.628906 394.695312 L 440.601562 394.695312 L 438.398438 494.707031 L 463.421875 494.707031 " fill-opacity="1" fill-rule="nonzero"/><path fill="#f4f4f4" d="M 493.988281 494.707031 L 495.234375 407.765625 L 470.207031 407.765625 L 468.964844 494.707031 L 493.988281 494.707031 " fill-opacity="1" fill-rule="nonzero"/><path fill="#f4f4f4" d="M 524.558594 494.707031 L 525.945312 404.5 L 500.917969 404.5 L 499.53125 494.707031 L 524.558594 494.707031 " fill-opacity="1" fill-rule="nonzero"/><path fill="#000000" d="M 329.632812 337.886719 C 329.394531 337.886719 329.164062 337.796875 328.984375 337.640625 L 310.320312 321.179688 C 309.914062 320.820312 309.875 320.203125 310.234375 319.796875 C 310.59375 319.390625 311.210938 319.351562 311.621094 319.710938 L 329.546875 335.519531 L 373.132812 286.003906 C 373.300781 285.808594 373.542969 285.691406 373.804688 285.675781 C 374.070312 285.65625 374.320312 285.746094 374.515625 285.917969 L 397.988281 306.625 L 425.785156 275.046875 C 426.144531 274.640625 426.765625 274.601562 427.171875 274.960938 C 427.582031 275.316406 427.621094 275.933594 427.261719 276.34375 L 398.816406 308.65625 C 398.640625 308.855469 398.402344 308.972656 398.140625 308.988281 C 397.878906 309.007812 397.625 308.917969 397.429688 308.746094 L 373.953125 288.039062 L 330.371094 337.554688 C 330.199219 337.75 329.953125 337.867188 329.691406 337.886719 C 329.675781 337.886719 329.652344 337.886719 329.632812 337.886719 " fill-opacity="1" fill-rule="nonzero"/><path fill="#000000" d="M 168.570312 411.808594 C 168.339844 411.808594 168.109375 411.726562 167.921875 411.5625 C 167.511719 411.207031 167.472656 410.589844 167.832031 410.179688 L 205.628906 367.238281 C 205.804688 367.042969 206.046875 366.925781 206.304688 366.90625 C 206.570312 366.890625 206.824219 366.976562 207.015625 367.152344 L 232.578125 389.695312 L 293.609375 320.363281 C 293.96875 319.953125 294.585938 319.917969 294.992188 320.277344 C 295.402344 320.628906 295.441406 321.253906 295.082031 321.660156 L 233.398438 391.730469 C 233.226562 391.925781 232.984375 392.046875 232.726562 392.0625 C 232.464844 392.078125 232.210938 391.988281 232.015625 391.820312 L 206.457031 369.269531 L 169.308594 411.472656 C 169.113281 411.695312 168.839844 411.808594 168.570312 411.808594 " fill-opacity="1" fill-rule="nonzero"/><path fill="#df3a44" d="M 202.152344 367.886719 C 201.859375 365.574219 203.511719 363.703125 205.835938 363.703125 C 208.164062 363.703125 210.289062 365.574219 210.582031 367.886719 C 210.875 370.199219 209.226562 372.070312 206.898438 372.070312 C 204.570312 372.070312 202.445312 370.199219 202.152344 367.886719 " fill-opacity="1" fill-rule="nonzero"/><path fill="#000000" d="M 205.835938 361.738281 C 204.140625 361.738281 202.617188 362.410156 201.542969 363.628906 C 200.464844 364.847656 199.992188 366.449219 200.207031 368.132812 C 200.625 371.441406 203.566406 374.03125 206.898438 374.03125 C 208.59375 374.03125 210.117188 373.363281 211.191406 372.144531 C 212.269531 370.925781 212.742188 369.328125 212.53125 367.640625 C 212.109375 364.332031 209.171875 361.738281 205.835938 361.738281 Z M 205.835938 363.703125 C 208.164062 363.703125 210.289062 365.574219 210.582031 367.886719 C 210.875 370.199219 209.226562 372.070312 206.898438 372.070312 C 204.570312 372.070312 202.445312 370.199219 202.152344 367.886719 C 201.859375 365.574219 203.511719 363.703125 205.835938 363.703125 " fill-opacity="1" fill-rule="nonzero"/><path fill="#f4f4f4" d="M 325.527344 336.734375 C 325.234375 334.421875 326.882812 332.546875 329.210938 332.546875 C 331.539062 332.546875 333.664062 334.421875 333.957031 336.734375 C 334.246094 339.042969 332.597656 340.921875 330.273438 340.921875 C 327.945312 340.921875 325.824219 339.042969 325.527344 336.734375 " fill-opacity="1" fill-rule="nonzero"/><path fill="#000000" d="M 329.210938 330.589844 C 327.515625 330.589844 325.992188 331.257812 324.917969 332.476562 C 323.839844 333.695312 323.367188 335.292969 323.578125 336.980469 C 324 340.289062 326.941406 342.882812 330.273438 342.882812 C 331.96875 342.882812 333.496094 342.207031 334.566406 340.996094 C 335.640625 339.773438 336.117188 338.175781 335.902344 336.488281 C 335.484375 333.175781 332.546875 330.589844 329.210938 330.589844 Z M 329.210938 332.546875 C 331.539062 332.546875 333.664062 334.421875 333.957031 336.734375 C 334.246094 339.042969 332.597656 340.921875 330.273438 340.921875 C 327.945312 340.921875 325.824219 339.042969 325.527344 336.734375 C 325.234375 334.421875 326.882812 332.546875 329.210938 332.546875 " fill-opacity="1" fill-rule="nonzero"/><path fill="#df3a44" d="M 370.027344 286.179688 C 369.734375 283.867188 371.382812 281.992188 373.710938 281.992188 C 376.039062 281.992188 378.164062 283.867188 378.457031 286.179688 C 378.75 288.488281 377.101562 290.363281 374.773438 290.363281 C 372.445312 290.363281 370.324219 288.488281 370.027344 286.179688 " fill-opacity="1" fill-rule="nonzero"/><path fill="#000000" d="M 373.710938 280.03125 C 372.015625 280.03125 370.492188 280.703125 369.417969 281.917969 C 368.34375 283.140625 367.867188 284.738281 368.078125 286.425781 C 368.5 289.734375 371.441406 292.324219 374.773438 292.324219 C 376.46875 292.324219 377.996094 291.652344 379.070312 290.4375 C 380.144531 289.21875 380.621094 287.617188 380.40625 285.933594 C 379.984375 282.625 377.046875 280.03125 373.710938 280.03125 Z M 373.710938 281.992188 C 376.039062 281.992188 378.164062 283.867188 378.457031 286.179688 C 378.75 288.488281 377.101562 290.363281 374.773438 290.363281 C 372.445312 290.363281 370.324219 288.488281 370.027344 286.179688 C 369.734375 283.867188 371.382812 281.992188 373.710938 281.992188 " fill-opacity="1" fill-rule="nonzero"/><path fill="#f4f4f4" d="M 394.421875 307.695312 C 394.128906 305.382812 395.777344 303.511719 398.109375 303.511719 C 400.433594 303.511719 402.558594 305.382812 402.847656 307.695312 C 403.144531 310.007812 401.492188 311.882812 399.167969 311.882812 C 396.835938 311.882812 394.714844 310.007812 394.421875 307.695312 " fill-opacity="1" fill-rule="nonzero"/><path fill="#000000" d="M 398.109375 301.550781 C 396.410156 301.550781 394.886719 302.21875 393.8125 303.4375 C 392.738281 304.65625 392.261719 306.253906 392.472656 307.941406 C 392.894531 311.25 395.832031 313.84375 399.167969 313.84375 C 400.863281 313.84375 402.386719 313.171875 403.460938 311.957031 C 404.539062 310.738281 405.011719 309.136719 404.796875 307.449219 C 404.378906 304.140625 401.4375 301.550781 398.109375 301.550781 Z M 398.109375 303.511719 C 400.433594 303.511719 402.558594 305.382812 402.847656 307.695312 C 403.144531 310.007812 401.492188 311.882812 399.167969 311.882812 C 396.835938 311.882812 394.714844 310.007812 394.421875 307.695312 C 394.128906 305.382812 395.777344 303.511719 398.109375 303.511719 " fill-opacity="1" fill-rule="nonzero"/><path fill="#f4f4f4" d="M 421.496094 276.933594 C 421.207031 274.625 422.855469 272.75 425.1875 272.75 C 427.507812 272.75 429.636719 274.625 429.925781 276.933594 C 430.222656 279.246094 428.574219 281.121094 426.246094 281.121094 C 423.914062 281.121094 421.789062 279.246094 421.496094 276.933594 " fill-opacity="1" fill-rule="nonzero"/><path fill="#000000" d="M 425.183594 270.789062 C 423.484375 270.789062 421.960938 271.460938 420.886719 272.675781 C 419.808594 273.894531 419.335938 275.496094 419.550781 277.179688 C 419.96875 280.492188 422.90625 283.082031 426.242188 283.082031 C 427.9375 283.082031 429.460938 282.414062 430.535156 281.195312 C 431.613281 279.976562 432.085938 278.378906 431.875 276.691406 C 431.457031 273.382812 428.519531 270.789062 425.183594 270.789062 Z M 425.183594 272.753906 C 427.507812 272.753906 429.632812 274.628906 429.925781 276.9375 C 430.21875 279.25 428.570312 281.121094 426.242188 281.121094 C 423.914062 281.121094 421.789062 279.25 421.496094 276.9375 C 421.207031 274.628906 422.855469 272.753906 425.183594 272.753906 " fill-opacity="1" fill-rule="nonzero"/><path fill="#f4f4f4" d="M 228.777344 390.597656 C 228.484375 388.285156 230.136719 386.410156 232.460938 386.410156 C 234.789062 386.410156 236.914062 388.285156 237.207031 390.597656 C 237.5 392.910156 235.851562 394.785156 233.523438 394.785156 C 231.195312 394.785156 229.070312 392.910156 228.777344 390.597656 " fill-opacity="1" fill-rule="nonzero"/><path fill="#000000" d="M 232.460938 384.453125 C 230.765625 384.453125 229.242188 385.121094 228.167969 386.335938 C 227.089844 387.558594 226.617188 389.15625 226.828125 390.84375 C 227.25 394.152344 230.1875 396.746094 233.523438 396.746094 C 235.21875 396.746094 236.742188 396.074219 237.816406 394.859375 C 238.894531 393.636719 239.367188 392.039062 239.15625 390.351562 C 238.734375 387.042969 235.796875 384.453125 232.460938 384.453125 Z M 232.460938 386.410156 C 234.789062 386.410156 236.914062 388.285156 237.207031 390.597656 C 237.5 392.910156 235.851562 394.785156 233.523438 394.785156 C 231.195312 394.785156 229.070312 392.910156 228.777344 390.597656 C 228.484375 388.285156 230.136719 386.410156 232.460938 386.410156 " fill-opacity="1" fill-rule="nonzero"/><path fill="#df3a44" d="M 297.714844 312.761719 C 297.421875 310.449219 299.070312 308.574219 301.398438 308.574219 C 303.726562 308.574219 305.847656 310.449219 306.144531 312.761719 C 306.4375 315.070312 304.785156 316.945312 302.457031 316.945312 C 300.132812 316.945312 298.007812 315.070312 297.714844 312.761719 " fill-opacity="1" fill-rule="nonzero"/><path fill="#000000" d="M 301.398438 306.613281 C 299.703125 306.613281 298.175781 307.285156 297.101562 308.5 C 296.027344 309.722656 295.550781 311.320312 295.765625 313.007812 C 296.1875 316.316406 299.125 318.90625 302.457031 318.90625 C 304.152344 318.90625 305.679688 318.234375 306.753906 317.019531 C 307.828125 315.800781 308.304688 314.203125 308.089844 312.515625 C 307.667969 309.207031 304.730469 306.613281 301.398438 306.613281 Z M 301.398438 308.574219 C 303.726562 308.574219 305.847656 310.449219 306.144531 312.761719 C 306.4375 315.070312 304.785156 316.949219 302.457031 316.949219 C 300.132812 316.949219 298.007812 315.070312 297.714844 312.761719 C 297.421875 310.449219 299.070312 308.574219 301.398438 308.574219 " fill-opacity="1" fill-rule="nonzero"/><path fill="#f4f4f4" d="M 163.445312 411.152344 C 163.152344 408.839844 164.800781 406.96875 167.128906 406.96875 C 169.457031 406.96875 171.582031 408.839844 171.875 411.152344 C 172.167969 413.464844 170.519531 415.335938 168.191406 415.335938 C 165.863281 415.335938 163.738281 413.464844 163.445312 411.152344 " fill-opacity="1" fill-rule="nonzero"/><path fill="#000000" d="M 167.128906 405.003906 C 165.433594 405.003906 163.910156 405.675781 162.835938 406.894531 C 161.761719 408.109375 161.285156 409.710938 161.5 411.398438 C 161.917969 414.707031 164.855469 417.296875 168.191406 417.296875 C 169.886719 417.296875 171.410156 416.628906 172.484375 415.410156 C 173.5625 414.191406 174.035156 412.589844 173.820312 410.90625 C 173.402344 407.597656 170.464844 405.003906 167.128906 405.003906 Z M 167.128906 406.96875 C 169.457031 406.96875 171.582031 408.839844 171.875 411.152344 C 172.167969 413.464844 170.519531 415.335938 168.191406 415.335938 C 165.863281 415.335938 163.738281 413.464844 163.445312 411.152344 C 163.152344 408.839844 164.800781 406.96875 167.128906 406.96875 " fill-opacity="1" fill-rule="nonzero"/><path fill="#f4f4f4" d="M 254.816406 269.839844 L 135.652344 269.839844 C 134.894531 269.839844 134.15625 268.40625 134.089844 266.585938 L 133.8125 258.71875 C 133.757812 257.253906 134.175781 256.113281 134.789062 256.113281 L 253.949219 256.113281 C 254.703125 256.113281 255.449219 257.914062 255.511719 259.730469 L 255.792969 267.414062 C 255.84375 268.882812 255.425781 269.839844 254.816406 269.839844 " fill-opacity="1" fill-rule="nonzero"/><path fill="#f4f4f4" d="M 253.890625 295.335938 L 134.484375 295.335938 C 133.800781 295.335938 133.121094 293.921875 133.0625 292.285156 L 132.714844 283.566406 C 132.667969 282.246094 133 280.953125 133.550781 280.953125 L 252.960938 280.953125 C 253.640625 280.953125 254.34375 282.78125 254.40625 284.417969 L 254.742188 292.929688 C 254.789062 294.25 254.445312 295.335938 253.890625 295.335938 " fill-opacity="1" fill-rule="nonzero"/><path fill="#000000" d="M 390.597656 649.953125 C 390.113281 649.953125 389.691406 649.597656 389.625 649.105469 C 389.554688 648.566406 389.929688 648.074219 390.46875 648.003906 C 414.96875 644.679688 437.886719 636.164062 458.578125 622.683594 C 459.03125 622.386719 459.640625 622.511719 459.9375 622.964844 C 460.234375 623.421875 460.105469 624.027344 459.648438 624.324219 C 438.714844 637.964844 415.527344 646.585938 390.730469 649.945312 C 390.683594 649.953125 390.640625 649.953125 390.597656 649.953125 " fill-opacity="1" fill-rule="nonzero"/><path fill="#000000" d="M 328.683594 644.425781 C 325.507812 644.425781 323.695312 644.359375 323.582031 644.351562 C 323.039062 644.332031 322.621094 643.871094 322.640625 643.332031 C 322.664062 642.789062 323.117188 642.371094 323.667969 642.394531 C 324.386719 642.421875 396.679688 645.097656 445.710938 614.75 C 446.175781 614.464844 446.777344 614.609375 447.0625 615.066406 C 447.347656 615.527344 447.207031 616.132812 446.746094 616.417969 C 404.8125 642.367188 346.167969 644.425781 328.683594 644.425781 " fill-opacity="1" fill-rule="nonzero"/><path fill="#000000" d="M 45.328125 383.855469 C 45.300781 383.855469 45.269531 383.851562 45.242188 383.847656 C 44.699219 383.800781 44.300781 383.324219 44.351562 382.785156 C 47.421875 348.535156 56.929688 315.683594 72.605469 285.152344 C 72.855469 284.671875 73.445312 284.480469 73.929688 284.726562 C 74.410156 284.976562 74.601562 285.566406 74.355469 286.046875 C 58.792969 316.355469 49.355469 348.960938 46.304688 382.960938 C 46.261719 383.46875 45.832031 383.855469 45.328125 383.855469 " fill-opacity="1" fill-rule="nonzero"/><path fill="#000000" d="M 35.804688 364.960938 C 35.75 364.960938 35.695312 364.957031 35.640625 364.949219 C 35.105469 364.859375 34.742188 364.355469 34.832031 363.820312 C 37.445312 347.996094 41.515625 332.328125 46.929688 317.253906 C 47.113281 316.742188 47.675781 316.480469 48.183594 316.660156 C 48.695312 316.84375 48.960938 317.402344 48.777344 317.914062 C 43.402344 332.878906 39.363281 348.429688 36.769531 364.140625 C 36.691406 364.621094 36.273438 364.960938 35.804688 364.960938 " fill-opacity="1" fill-rule="nonzero"/><path fill="#ffffff" d="M 512 289.628906 L 471.078125 329.875 L 512 289.628906 " fill-opacity="1" fill-rule="nonzero"/><path fill="#000000" d="M 471.082031 330.855469 C 470.828125 330.855469 470.574219 330.757812 470.382812 330.5625 C 470.003906 330.175781 470.007812 329.554688 470.394531 329.179688 L 511.316406 288.929688 C 511.703125 288.550781 512.324219 288.554688 512.703125 288.941406 C 513.082031 289.328125 513.082031 289.945312 512.695312 290.324219 L 471.773438 330.578125 C 471.578125 330.761719 471.332031 330.855469 471.082031 330.855469 " fill-opacity="1" fill-rule="nonzero"/><path fill="#ffffff" d="M 511.726562 267.523438 L 490.1875 288.710938 L 511.726562 267.523438 " fill-opacity="1" fill-rule="nonzero"/><path fill="#000000" d="M 490.191406 289.683594 C 489.9375 289.683594 489.683594 289.589844 489.492188 289.394531 C 489.113281 289.007812 489.117188 288.386719 489.5 288.003906 L 511.042969 266.824219 C 511.425781 266.445312 512.046875 266.449219 512.429688 266.832031 C 512.808594 267.222656 512.800781 267.84375 512.414062 268.222656 L 490.878906 289.402344 C 490.691406 289.589844 490.441406 289.683594 490.191406 289.683594 " fill-opacity="1" fill-rule="nonzero"/><path fill="#000000" d="M 262.714844 629.457031 C 262.472656 629.457031 262.230469 629.367188 262.039062 629.183594 C 261.648438 628.8125 261.632812 628.1875 262.007812 627.796875 L 265.097656 624.570312 C 265.472656 624.179688 266.09375 624.167969 266.484375 624.542969 C 266.875 624.914062 266.886719 625.539062 266.515625 625.929688 L 263.425781 629.15625 C 263.234375 629.355469 262.976562 629.457031 262.714844 629.457031 " fill-opacity="1" fill-rule="nonzero"/><path fill="#000000" d="M 251.90625 640.746094 C 251.660156 640.746094 251.417969 640.652344 251.226562 640.472656 C 250.835938 640.101562 250.824219 639.476562 251.195312 639.085938 L 254.28125 635.859375 C 254.660156 635.472656 255.28125 635.457031 255.671875 635.832031 C 256.066406 636.203125 256.078125 636.828125 255.703125 637.214844 L 252.613281 640.445312 C 252.421875 640.640625 252.164062 640.746094 251.90625 640.746094 " fill-opacity="1" fill-rule="nonzero"/><path fill="#000000" d="M 254.9375 629.628906 C 254.6875 629.628906 254.4375 629.535156 254.25 629.347656 L 251.113281 626.261719 C 250.722656 625.882812 250.722656 625.257812 251.101562 624.875 C 251.480469 624.488281 252.105469 624.484375 252.488281 624.863281 L 255.625 627.949219 C 256.011719 628.332031 256.015625 628.949219 255.636719 629.335938 C 255.441406 629.53125 255.191406 629.628906 254.9375 629.628906 " fill-opacity="1" fill-rule="nonzero"/><path fill="#000000" d="M 265.910156 640.433594 C 265.660156 640.433594 265.414062 640.339844 265.222656 640.152344 L 262.085938 637.066406 C 261.703125 636.683594 261.695312 636.066406 262.074219 635.679688 C 262.457031 635.289062 263.078125 635.289062 263.464844 635.667969 L 266.601562 638.753906 C 266.988281 639.132812 266.988281 639.757812 266.609375 640.140625 C 266.417969 640.335938 266.164062 640.433594 265.910156 640.433594 " fill-opacity="1" fill-rule="nonzero"/><path fill="#000000" d="M 545.292969 545.285156 C 542.746094 546.429688 541.589844 549.484375 542.714844 552.085938 C 543.265625 553.359375 544.265625 554.328125 545.53125 554.824219 C 546.769531 555.304688 548.121094 555.269531 549.332031 554.722656 C 551.878906 553.582031 553.039062 550.527344 551.917969 547.921875 C 551.367188 546.648438 550.363281 545.679688 549.09375 545.1875 C 547.855469 544.707031 546.507812 544.742188 545.292969 545.285156 Z M 547.320312 557.125 C 546.476562 557.125 545.632812 556.96875 544.824219 556.652344 C 543.0625 555.96875 541.671875 554.625 540.914062 552.863281 C 539.371094 549.28125 540.96875 545.078125 544.492188 543.496094 C 546.191406 542.734375 548.074219 542.6875 549.808594 543.359375 C 551.574219 544.042969 552.960938 545.386719 553.71875 547.144531 C 555.265625 550.730469 553.65625 554.929688 550.140625 556.511719 C 549.234375 556.917969 548.277344 557.125 547.320312 557.125 " fill-opacity="1" fill-rule="nonzero"/><path fill="#f4f4f4" d="M 482.507812 163.550781 L 283.3125 163.550781 C 278.886719 163.550781 275.292969 167.140625 275.292969 171.566406 L 275.292969 249.019531 C 275.292969 253.441406 278.886719 257.03125 283.3125 257.03125 L 482.507812 257.03125 C 486.9375 257.03125 490.527344 253.441406 490.527344 249.019531 L 490.527344 171.566406 C 490.527344 167.140625 486.9375 163.550781 482.507812 163.550781 " fill-opacity="1" fill-rule="nonzero"/><path fill="#000000" d="M 283.3125 164.535156 C 279.433594 164.535156 276.273438 167.6875 276.273438 171.566406 L 276.273438 249.019531 C 276.273438 252.894531 279.433594 256.050781 283.3125 256.050781 L 482.507812 256.050781 C 486.386719 256.050781 489.546875 252.894531 489.546875 249.019531 L 489.546875 171.566406 C 489.546875 167.6875 486.386719 164.535156 482.507812 164.535156 Z M 482.507812 258.011719 L 283.3125 258.011719 C 278.351562 258.011719 274.3125 253.976562 274.3125 249.019531 L 274.3125 171.566406 C 274.3125 166.605469 278.351562 162.570312 283.3125 162.570312 L 482.507812 162.570312 C 487.46875 162.570312 491.507812 166.605469 491.507812 171.566406 L 491.507812 249.019531 C 491.507812 253.976562 487.46875 258.011719 482.507812 258.011719 " fill-opacity="1" fill-rule="nonzero"/><path fill="#ffffff" d="M 484.28125 177.675781 L 282.085938 177.675781 C 281.542969 177.675781 281.105469 177.234375 281.105469 176.691406 C 281.105469 176.148438 281.542969 175.710938 282.085938 175.710938 L 484.28125 175.710938 C 484.824219 175.710938 485.265625 176.148438 485.265625 176.691406 C 485.265625 177.234375 484.824219 177.675781 484.28125 177.675781 " fill-opacity="1" fill-rule="nonzero"/><path fill="#ffffff" d="M 289.585938 169.714844 C 289.585938 170.851562 288.664062 171.769531 287.53125 171.769531 C 286.394531 171.769531 285.476562 170.851562 285.476562 169.714844 C 285.476562 168.582031 286.394531 167.664062 287.53125 167.664062 C 288.664062 167.664062 289.585938 168.582031 289.585938 169.714844 " fill-opacity="1" fill-rule="nonzero"/><path fill="#ffffff" d="M 297.8125 169.714844 C 297.8125 170.851562 296.894531 171.769531 295.757812 171.769531 C 294.621094 171.769531 293.699219 170.851562 293.699219 169.714844 C 293.699219 168.582031 294.621094 167.664062 295.757812 167.664062 C 296.894531 167.664062 297.8125 168.582031 297.8125 169.714844 " fill-opacity="1" fill-rule="nonzero"/><path fill="#ffffff" d="M 306.039062 169.714844 C 306.039062 170.851562 305.121094 171.769531 303.984375 171.769531 C 302.847656 171.769531 301.929688 170.851562 301.929688 169.714844 C 301.929688 168.582031 302.847656 167.664062 303.984375 167.664062 C 305.121094 167.664062 306.039062 168.582031 306.039062 169.714844 " fill-opacity="1" fill-rule="nonzero"/><path fill="#ffffff" d="M 484.28125 170.484375 L 472.507812 170.484375 C 471.960938 170.484375 471.527344 170.042969 471.527344 169.503906 C 471.527344 168.960938 471.960938 168.519531 472.507812 168.519531 L 484.28125 168.519531 C 484.828125 168.519531 485.269531 168.960938 485.269531 169.503906 C 485.269531 170.042969 484.828125 170.484375 484.28125 170.484375 " fill-opacity="1" fill-rule="nonzero"/><path fill="#ffffff" d="M 467.269531 170.484375 L 334.433594 170.484375 C 333.890625 170.484375 333.453125 170.042969 333.453125 169.503906 C 333.453125 168.960938 333.890625 168.519531 334.433594 168.519531 L 467.269531 168.519531 C 467.8125 168.519531 468.25 168.960938 468.25 169.503906 C 468.25 170.042969 467.8125 170.484375 467.269531 170.484375 " fill-opacity="1" fill-rule="nonzero"/><path fill="#ffffff" d="M 321.347656 170.484375 L 311.53125 170.484375 C 310.992188 170.484375 310.550781 170.042969 310.550781 169.503906 C 310.550781 168.960938 310.992188 168.519531 311.53125 168.519531 L 321.347656 168.519531 C 321.890625 168.519531 322.328125 168.960938 322.328125 169.503906 C 322.328125 170.042969 321.890625 170.484375 321.347656 170.484375 " fill-opacity="1" fill-rule="nonzero"/><path fill="#ffffff" d="M 340.324219 241.082031 L 287.972656 241.082031 L 287.972656 188.785156 L 340.324219 188.785156 L 340.324219 241.082031 " fill-opacity="1" fill-rule="nonzero"/><path fill="#ffffff" d="M 361.265625 200.550781 L 350.140625 200.550781 L 350.140625 188.785156 L 361.265625 188.785156 L 361.265625 200.550781 " fill-opacity="1" fill-rule="nonzero"/><path fill="#ffffff" d="M 479.046875 200.550781 L 369.113281 200.550781 L 369.113281 188.785156 L 479.046875 188.785156 L 479.046875 200.550781 " fill-opacity="1" fill-rule="nonzero"/><path fill="#ffffff" d="M 361.265625 220.816406 L 350.140625 220.816406 L 350.140625 209.703125 L 361.265625 209.703125 L 361.265625 220.816406 " fill-opacity="1" fill-rule="nonzero"/><path fill="#ffffff" d="M 479.050781 220.816406 L 369.117188 220.816406 L 369.117188 209.050781 L 479.050781 209.050781 L 479.050781 220.816406 " fill-opacity="1" fill-rule="nonzero"/><path fill="#ffffff" d="M 361.265625 241.730469 L 350.136719 241.730469 L 350.136719 229.964844 L 361.265625 229.964844 L 361.265625 241.730469 " fill-opacity="1" fill-rule="nonzero"/><path fill="#ffffff" d="M 479.050781 241.082031 L 369.113281 241.082031 L 369.113281 229.96875 L 479.050781 229.96875 L 479.050781 241.082031 " fill-opacity="1" fill-rule="nonzero"/><path fill="#f4f4f4" d="M 201.234375 266.730469 C 200.78125 266.070312 200.78125 265.214844 201.234375 264.554688 C 201.863281 263.636719 202.207031 262.65625 202.207031 261.625 C 202.207031 256.851562 194.800781 252.976562 185.664062 252.976562 C 176.53125 252.976562 169.121094 256.851562 169.121094 261.625 C 169.121094 262.65625 169.464844 263.636719 170.09375 264.554688 C 170.550781 265.214844 170.550781 266.070312 170.09375 266.730469 C 169.464844 267.644531 169.121094 268.628906 169.121094 269.65625 C 169.121094 271.921875 170.792969 273.984375 173.519531 275.527344 C 173.457031 275.785156 173.421875 276.042969 173.421875 276.3125 C 173.421875 279.84375 178.90625 282.710938 185.664062 282.710938 C 192.425781 282.710938 197.90625 279.84375 197.90625 276.3125 C 197.90625 276.042969 197.871094 275.785156 197.8125 275.527344 C 200.539062 273.984375 202.207031 271.921875 202.207031 269.65625 C 202.207031 268.628906 201.863281 267.644531 201.234375 266.730469 " fill-opacity="1" fill-rule="nonzero"/><path fill="#000000" d="M 185.664062 253.960938 C 177.230469 253.960938 170.105469 257.46875 170.105469 261.625 C 170.105469 262.429688 170.371094 263.226562 170.902344 263.996094 C 171.589844 264.996094 171.589844 266.289062 170.902344 267.285156 C 170.371094 268.054688 170.105469 268.855469 170.105469 269.65625 C 170.105469 271.472656 171.488281 273.253906 174 274.671875 L 174.640625 275.035156 L 174.472656 275.75 C 174.429688 275.949219 174.40625 276.132812 174.40625 276.308594 C 174.40625 279.25 179.5625 281.730469 185.664062 281.730469 C 191.769531 281.730469 196.925781 279.25 196.925781 276.308594 C 196.925781 276.132812 196.902344 275.949219 196.855469 275.75 L 196.6875 275.035156 L 197.328125 274.671875 C 199.84375 273.253906 201.226562 271.472656 201.226562 269.65625 C 201.226562 268.855469 200.957031 268.054688 200.425781 267.285156 C 199.738281 266.289062 199.738281 264.996094 200.425781 263.996094 C 200.957031 263.226562 201.226562 262.429688 201.226562 261.625 C 201.226562 257.46875 194.101562 253.960938 185.664062 253.960938 Z M 185.664062 283.691406 C 178.25 283.691406 172.441406 280.449219 172.441406 276.308594 C 172.441406 276.21875 172.445312 276.125 172.453125 276.035156 C 169.664062 274.292969 168.140625 272.046875 168.140625 269.65625 C 168.140625 268.453125 168.527344 267.277344 169.285156 266.175781 C 169.511719 265.84375 169.511719 265.4375 169.285156 265.109375 C 168.527344 264.003906 168.140625 262.832031 168.140625 261.625 C 168.140625 256.226562 175.839844 251.996094 185.664062 251.996094 C 195.492188 251.996094 203.1875 256.226562 203.1875 261.625 C 203.1875 262.832031 202.804688 264.003906 202.042969 265.109375 C 201.820312 265.4375 201.820312 265.84375 202.042969 266.175781 C 202.804688 267.277344 203.1875 268.453125 203.1875 269.65625 C 203.1875 272.046875 201.664062 274.292969 198.878906 276.03125 C 198.886719 276.125 198.886719 276.21875 198.886719 276.308594 C 198.886719 280.449219 193.082031 283.691406 185.664062 283.691406 " fill-opacity="1" fill-rule="nonzero"/><path fill="#ffffff" d="M 230.570312 195.320312 C 230.570312 170.828125 210.160156 149.9375 185.644531 149.9375 C 161.175781 149.9375 140.988281 170.265625 140.828125 194.710938 C 140.742188 207.15625 146.753906 218.734375 154.949219 226.835938 C 160.859375 232.683594 165.171875 239.945312 167.261719 247.984375 L 167.363281 248.375 C 169.394531 256.179688 176.449219 261.628906 184.519531 261.628906 L 187.832031 261.628906 C 195.902344 261.628906 202.957031 256.179688 204.988281 248.375 L 205.050781 248.140625 C 207.128906 240.152344 211.261719 232.820312 217.175781 227.0625 C 225.4375 219.007812 230.570312 207.765625 230.570312 195.320312 " fill-opacity="1" fill-rule="nonzero"/><path fill="#000000" d="M 185.644531 150.917969 C 161.632812 150.917969 141.96875 170.566406 141.808594 194.714844 C 141.734375 205.921875 146.773438 217.375 155.640625 226.140625 C 161.761719 232.195312 166.113281 239.664062 168.214844 247.742188 L 168.3125 248.132812 C 170.234375 255.5 176.898438 260.644531 184.519531 260.644531 L 187.832031 260.644531 C 195.457031 260.644531 202.121094 255.5 204.039062 248.128906 L 204.101562 247.894531 C 206.257812 239.605469 210.542969 232.15625 216.488281 226.363281 C 224.933594 218.128906 229.585938 207.105469 229.585938 195.320312 C 229.585938 171.253906 209.464844 150.917969 185.644531 150.917969 Z M 187.832031 262.609375 L 184.519531 262.609375 C 176.003906 262.609375 168.558594 256.855469 166.414062 248.621094 L 166.3125 248.234375 C 164.300781 240.496094 160.132812 233.339844 154.257812 227.535156 C 145.019531 218.402344 139.765625 206.433594 139.847656 194.703125 C 139.925781 182.605469 144.75 171.15625 153.425781 162.46875 C 162.121094 153.753906 173.566406 148.957031 185.644531 148.957031 C 210.527344 148.957031 231.546875 170.191406 231.546875 195.320312 C 231.546875 207.636719 226.6875 219.160156 217.859375 227.765625 C 212.167969 233.308594 208.066406 240.441406 206 248.386719 L 205.9375 248.621094 C 203.792969 256.855469 196.347656 262.609375 187.832031 262.609375 " fill-opacity="1" fill-rule="nonzero"/><path fill="#000000" d="M 192.667969 187.605469 C 192.070312 188.15625 191.527344 188.832031 191.066406 189.644531 C 187.914062 195.195312 188.929688 198.148438 189.816406 199.410156 C 190.730469 200.722656 192.316406 201.398438 193.851562 201.140625 C 195.070312 200.9375 195.949219 200.175781 196.273438 199.054688 C 197.425781 195.035156 195.492188 190.371094 192.667969 187.605469 Z M 179.394531 188 C 178.019531 189.582031 176.90625 191.738281 176.09375 194.402344 C 175.1875 197.375 175.472656 199.878906 176.871094 201.28125 C 177.769531 202.183594 179.027344 202.503906 180.230469 202.144531 C 181.722656 201.691406 182.800781 200.3125 183.199219 198.355469 C 183.789062 195.417969 182.171875 189.6875 179.394531 188 Z M 188.164062 256.261719 C 188.160156 256.261719 188.160156 256.261719 188.160156 256.261719 C 187.617188 256.261719 187.179688 255.820312 187.179688 255.277344 C 187.277344 231.382812 201.238281 204.421875 204.035156 199.257812 C 205.6875 196.210938 206.320312 193.726562 205.96875 191.652344 C 205.445312 188.582031 203.878906 186.609375 201.308594 185.789062 C 199.496094 185.207031 196.699219 185.140625 194.285156 186.445312 C 197.410156 189.664062 199.515625 194.851562 198.160156 199.59375 C 197.628906 201.445312 196.140625 202.746094 194.175781 203.074219 C 191.898438 203.457031 189.554688 202.460938 188.207031 200.535156 C 187.054688 198.894531 185.675781 195.167969 189.355469 188.675781 C 189.875 187.765625 190.476562 186.992188 191.132812 186.351562 C 191.074219 186.308594 191.007812 186.269531 190.949219 186.230469 C 189.109375 185.070312 186.085938 184.226562 183.105469 185.335938 C 182.300781 185.632812 181.546875 186.0625 180.839844 186.613281 C 184.171875 189.066406 185.828125 195.246094 185.121094 198.742188 C 184.578125 201.433594 183.003906 203.355469 180.796875 204.019531 C 178.917969 204.585938 176.878906 204.066406 175.480469 202.667969 C 173.554688 200.738281 173.09375 197.515625 174.214844 193.835938 C 175.089844 190.957031 176.230469 188.839844 177.449219 187.273438 C 172.566406 185.996094 169.167969 188.335938 168.238281 190.621094 C 167.132812 193.339844 167.535156 196.578125 169.289062 199.078125 C 173.386719 204.929688 182.96875 222.007812 183.4375 254.179688 C 183.445312 254.722656 183.011719 255.167969 182.46875 255.179688 C 182.464844 255.179688 182.457031 255.179688 182.457031 255.179688 C 181.921875 255.179688 181.480469 254.75 181.472656 254.210938 C 181.011719 222.578125 171.671875 205.90625 167.679688 200.203125 C 165.519531 197.121094 165.046875 193.261719 166.417969 189.890625 C 167.921875 186.175781 172.960938 183.675781 178.925781 185.671875 C 180.136719 184.554688 181.355469 183.894531 182.421875 183.5 C 186.070312 182.140625 189.757812 183.164062 191.996094 184.570312 C 192.246094 184.730469 192.492188 184.902344 192.738281 185.082031 C 195.816406 183.125 199.546875 183.164062 201.910156 183.917969 C 205.183594 184.972656 207.257812 187.53125 207.902344 191.320312 C 208.335938 193.875 207.65625 196.699219 205.761719 200.191406 C 203.003906 205.28125 189.238281 231.859375 189.144531 255.289062 C 189.140625 255.828125 188.703125 256.261719 188.164062 256.261719 " fill-opacity="1" fill-rule="nonzero"/><path fill="#000000" d="M 206.234375 224.132812 C 205.90625 224.132812 205.585938 223.972656 205.402344 223.675781 C 205.113281 223.21875 205.25 222.613281 205.710938 222.324219 C 213.617188 217.355469 219.3125 209.285156 221.328125 200.1875 C 221.445312 199.65625 221.96875 199.324219 222.496094 199.441406 C 223.027344 199.558594 223.359375 200.082031 223.242188 200.609375 C 221.113281 210.21875 215.105469 218.738281 206.753906 223.984375 C 206.59375 224.085938 206.410156 224.132812 206.234375 224.132812 " fill-opacity="1" fill-rule="nonzero"/><path fill="#000000" d="M 157.914062 218.996094 C 157.644531 218.996094 157.375 218.886719 157.179688 218.667969 C 151.144531 211.882812 147.824219 203.148438 147.824219 194.066406 C 147.824219 179.898438 155.714844 167.183594 168.421875 160.882812 C 168.90625 160.640625 169.496094 160.839844 169.734375 161.324219 C 169.976562 161.804688 169.777344 162.394531 169.292969 162.636719 C 157.261719 168.605469 149.785156 180.652344 149.785156 194.066406 C 149.785156 202.671875 152.933594 210.941406 158.648438 217.363281 C 159.007812 217.769531 158.972656 218.390625 158.566406 218.746094 C 158.378906 218.917969 158.148438 218.996094 157.914062 218.996094 " fill-opacity="1" fill-rule="nonzero"/><path fill="#ffffff" d="M 188.492188 267.230469 C 188.023438 267.230469 187.609375 266.890625 187.527344 266.414062 C 187.433594 265.878906 187.792969 265.375 188.328125 265.285156 C 189.828125 265.023438 191.285156 264.699219 192.664062 264.308594 C 193.179688 264.164062 193.726562 264.46875 193.875 264.988281 C 194.019531 265.507812 193.71875 266.050781 193.195312 266.195312 C 191.753906 266.605469 190.226562 266.945312 188.660156 267.214844 C 188.605469 267.226562 188.546875 267.230469 188.492188 267.230469 " fill-opacity="1" fill-rule="nonzero"/><path fill="#ffffff" d="M 181.519531 275.730469 C 180.980469 275.730469 180.542969 275.296875 180.539062 274.753906 C 180.535156 274.214844 180.96875 273.769531 181.511719 273.765625 C 184.902344 273.738281 189.875 273.265625 194.3125 271.195312 C 194.804688 270.964844 195.386719 271.175781 195.617188 271.664062 C 195.847656 272.160156 195.636719 272.742188 195.144531 272.96875 C 190.386719 275.191406 185.113281 275.695312 181.527344 275.730469 C 181.523438 275.730469 181.523438 275.730469 181.519531 275.730469 " fill-opacity="1" fill-rule="nonzero"/><path fill="#000000" d="M 185.890625 140.25 C 185.882812 140.25 185.875 140.25 185.867188 140.25 C 185.328125 140.238281 184.898438 139.789062 184.90625 139.25 L 185.316406 119.660156 C 185.328125 119.125 185.761719 118.703125 186.296875 118.703125 C 186.304688 118.703125 186.308594 118.703125 186.316406 118.703125 C 186.859375 118.714844 187.289062 119.164062 187.277344 119.703125 L 186.871094 139.289062 C 186.859375 139.824219 186.421875 140.25 185.890625 140.25 " fill-opacity="1" fill-rule="nonzero"/><path fill="#000000" d="M 129.058594 180.148438 L 116.539062 180.140625 C 115.996094 180.140625 115.558594 179.703125 115.558594 179.160156 C 115.558594 178.621094 115.996094 178.179688 116.539062 178.179688 C 116.539062 178.179688 116.539062 178.179688 116.542969 178.179688 L 129.0625 178.1875 C 129.601562 178.1875 130.042969 178.628906 130.039062 179.167969 C 130.039062 179.710938 129.601562 180.148438 129.058594 180.148438 " fill-opacity="1" fill-rule="nonzero"/><path fill="#000000" d="M 140.613281 154 C 140.453125 154 140.292969 153.960938 140.144531 153.878906 L 126.023438 146.234375 C 125.550781 145.976562 125.371094 145.382812 125.628906 144.90625 C 125.886719 144.433594 126.484375 144.253906 126.960938 144.511719 L 141.082031 152.15625 C 141.554688 152.414062 141.734375 153.007812 141.476562 153.484375 C 141.296875 153.8125 140.960938 154 140.613281 154 " fill-opacity="1" fill-rule="nonzero"/><path fill="#000000" d="M 242.269531 180.148438 C 241.730469 180.148438 241.289062 179.710938 241.289062 179.167969 C 241.289062 178.628906 241.730469 178.1875 242.269531 178.1875 L 254.789062 178.179688 C 254.789062 178.179688 254.789062 178.179688 254.792969 178.179688 C 255.332031 178.179688 255.773438 178.621094 255.773438 179.160156 C 255.773438 179.703125 255.335938 180.140625 254.792969 180.140625 L 242.273438 180.148438 C 242.269531 180.148438 242.269531 180.148438 242.269531 180.148438 " fill-opacity="1" fill-rule="nonzero"/><path fill="#000000" d="M 230.722656 154 C 230.371094 154 230.035156 153.8125 229.855469 153.484375 C 229.597656 153.007812 229.777344 152.414062 230.253906 152.15625 L 244.371094 144.511719 C 244.847656 144.253906 245.445312 144.433594 245.703125 144.90625 C 245.960938 145.382812 245.78125 145.976562 245.304688 146.234375 L 231.1875 153.878906 C 231.039062 153.960938 230.878906 154 230.722656 154 " fill-opacity="1" fill-rule="nonzero"/><path fill="#f4f4f4" d="M 54.839844 594.542969 C 51.949219 604.402344 47.425781 618.046875 52.4375 624.59375 C 61.542969 636.496094 69.09375 634.585938 80.332031 630.492188 C 102.8125 622.304688 138.679688 609.375 149.152344 616.5625 L 149.617188 594.542969 L 54.839844 594.542969 " fill-opacity="1" fill-rule="nonzero"/><path fill="#000000" d="M 219.015625 630.53125 C 215.128906 601.675781 212.242188 583.199219 212.242188 583.199219 L 81.75 560.558594 L 68.726562 597.46875 C 64.824219 608.644531 59.484375 625.171875 54.507812 645.511719 C 54.117188 647.101562 53.671875 648.949219 53.210938 650.925781 C 52.519531 653.898438 54.523438 656.84375 57.550781 657.273438 C 108.195312 664.503906 164.757812 658.597656 216.210938 635.546875 C 218.152344 634.679688 219.296875 632.640625 219.015625 630.53125 " fill-opacity="1" fill-rule="nonzero"/><path fill="#df3a44" d="M 183.734375 383.394531 C 202.402344 383.308594 219.457031 393.855469 227.625 410.511719 C 237.085938 429.8125 250.445312 480.316406 250.964844 502.375 C 251.875 540.933594 218.066406 543.101562 217.0625 543.160156 C 217.050781 543.160156 217.039062 543.171875 217.042969 543.183594 C 217.148438 544.296875 221.097656 586.191406 221.410156 593.628906 C 221.980469 607.230469 196.726562 628.453125 167.722656 617.996094 C 138.859375 607.59375 60.015625 586.871094 52.007812 604.515625 C 51.996094 604.542969 51.960938 604.53125 51.96875 604.503906 L 85.046875 481.925781 C 85.050781 481.910156 85.039062 481.894531 85.023438 481.898438 L 57.871094 483.207031 C 57.867188 483.207031 57.863281 483.207031 57.859375 483.203125 L 35.746094 470.429688 C 35.738281 470.425781 35.734375 470.414062 35.734375 470.402344 L 41.335938 445.628906 C 51.972656 403.296875 80.429688 383.875 117.160156 383.703125 L 183.734375 383.394531 " fill-opacity="1" fill-rule="nonzero"/><path fill="#ffffff" d="M 96.664062 477.960938 C 91.589844 477.023438 92.976562 471.148438 75.144531 470.085938 C 23.691406 467.019531 48.628906 440.921875 78.101562 445.894531 C 87.875 447.542969 91.714844 453.855469 95.390625 455.460938 C 126.230469 468.902344 106.78125 479.828125 96.664062 477.960938 " fill-opacity="1" fill-rule="nonzero"/><path fill="#000000" d="M 96.84375 476.996094 C 101.949219 477.941406 109.597656 475.347656 110.902344 471.089844 C 112.242188 466.714844 106.445312 461.347656 95 456.355469 C 93.683594 455.785156 92.425781 454.730469 90.964844 453.511719 C 87.996094 451.027344 84.300781 447.933594 77.941406 446.863281 C 64.464844 444.589844 52.046875 448.914062 47.824219 454.40625 C 46.351562 456.324219 46.015625 458.183594 46.816406 459.9375 C 47.871094 462.25 52.75 467.769531 75.203125 469.105469 C 87.5 469.839844 90.957031 472.84375 93.480469 475.039062 C 94.617188 476.023438 95.4375 476.734375 96.84375 476.996094 Z M 99.136719 479.15625 C 98.222656 479.15625 97.328125 479.078125 96.484375 478.925781 C 94.550781 478.566406 93.40625 477.570312 92.191406 476.515625 C 89.878906 474.507812 86.714844 471.753906 75.085938 471.066406 C 58.285156 470.0625 47.609375 466.402344 45.03125 460.753906 C 43.933594 458.355469 44.375 455.675781 46.265625 453.214844 C 50.84375 447.261719 64.066406 442.53125 78.265625 444.929688 C 85.152344 446.089844 89.242188 449.511719 92.226562 452.003906 C 93.570312 453.132812 94.730469 454.101562 95.78125 454.558594 C 111.996094 461.628906 113.976562 467.761719 112.78125 471.664062 C 111.359375 476.292969 104.789062 479.15625 99.136719 479.15625 " fill-opacity="1" fill-rule="nonzero"/><path fill="#ffffff" d="M 161.441406 390.613281 C 163.15625 389.144531 162.25 386.339844 160 386.070312 L 156.511719 385.652344 C 152.765625 385.203125 149.636719 382.710938 148.417969 379.265625 L 142.671875 336.867188 L 130.886719 341.078125 L 115.289062 333.375 L 116.683594 378.679688 C 116.570312 382.628906 113.992188 386.117188 110.179688 387.480469 L 105.621094 389.109375 C 103.222656 389.964844 103.109375 393.214844 105.433594 394.226562 C 114.714844 398.269531 152.445312 398.300781 161.441406 390.613281 " fill-opacity="1" fill-rule="nonzero"/><path fill="#000000" d="M 116.320312 334.976562 L 117.664062 378.648438 C 117.539062 383.085938 114.730469 386.894531 110.507812 388.402344 L 105.949219 390.03125 C 105.214844 390.292969 104.761719 390.898438 104.738281 391.644531 C 104.710938 392.390625 105.121094 393.019531 105.828125 393.328125 C 114.394531 397.058594 152.09375 397.308594 160.800781 389.867188 C 161.289062 389.449219 161.46875 388.835938 161.277344 388.214844 C 161.128906 387.710938 160.679688 387.140625 159.882812 387.046875 L 156.394531 386.625 C 152.261719 386.128906 148.851562 383.433594 147.492188 379.589844 C 147.472656 379.527344 147.457031 379.464844 147.445312 379.394531 L 141.863281 338.195312 L 131.214844 342 C 130.964844 342.089844 130.6875 342.074219 130.449219 341.957031 Z M 128.402344 397.933594 C 118.335938 397.933594 109.046875 396.871094 105.042969 395.125 C 103.59375 394.496094 102.722656 393.132812 102.773438 391.582031 C 102.828125 390.023438 103.792969 388.71875 105.289062 388.183594 L 109.847656 386.554688 C 113.304688 385.324219 115.601562 382.21875 115.703125 378.652344 L 114.308594 333.402344 C 114.296875 333.058594 114.46875 332.734375 114.757812 332.546875 C 115.046875 332.359375 115.414062 332.339844 115.722656 332.492188 L 130.945312 340.011719 L 142.339844 335.941406 C 142.621094 335.84375 142.929688 335.875 143.179688 336.027344 C 143.433594 336.183594 143.605469 336.445312 143.644531 336.738281 L 149.378906 379.03125 C 150.507812 382.113281 153.277344 384.273438 156.628906 384.675781 L 160.117188 385.097656 C 161.570312 385.273438 162.734375 386.25 163.160156 387.644531 C 163.570312 389.011719 163.160156 390.433594 162.078125 391.355469 C 156.59375 396.042969 141.8125 397.933594 128.402344 397.933594 " fill-opacity="1" fill-rule="nonzero"/><path fill="#ffffff" d="M 147.898438 303.152344 C 167.984375 310.542969 164.53125 323.523438 164.53125 323.523438 C 164.28125 327.097656 164.136719 333.636719 164.800781 336.007812 C 165.351562 337.964844 168.5625 341.640625 168.714844 342.730469 C 168.867188 343.816406 167.132812 346.046875 163.652344 346.835938 C 163.652344 346.835938 162.332031 364.191406 157.777344 367.03125 C 153.226562 369.875 135.691406 364.417969 135.691406 364.417969 L 132.742188 363.238281 C 123.238281 359.433594 117.433594 351.519531 114.667969 341.71875 C 114.667969 341.71875 101.875 286.226562 147.898438 303.152344 " fill-opacity="1" fill-rule="nonzero"/><path fill="#000000" d="M 136.019531 363.492188 C 140.808594 364.980469 153.847656 368.332031 157.257812 366.199219 C 160.269531 364.320312 162.179688 353.28125 162.675781 346.761719 C 162.707031 346.335938 163.015625 345.976562 163.433594 345.882812 C 166.5 345.183594 167.777344 343.332031 167.742188 342.863281 C 167.664062 342.53125 166.871094 341.375 166.289062 340.527344 C 165.261719 339.027344 164.195312 337.476562 163.855469 336.269531 C 163.066406 333.449219 163.367188 326.066406 163.550781 323.457031 C 163.554688 323.394531 163.566406 323.332031 163.582031 323.273438 C 163.710938 322.78125 166.496094 311.039062 147.5625 304.074219 C 135.527344 299.648438 126.601562 299.890625 121.03125 304.792969 C 109.632812 314.824219 115.5625 341.238281 115.621094 341.5 C 118.496094 351.679688 124.546875 358.898438 133.105469 362.328125 Z M 153.488281 368.820312 C 146.785156 368.820312 136.816406 365.796875 135.398438 365.355469 C 135.375 365.347656 135.347656 365.339844 135.324219 365.332031 L 132.375 364.148438 C 123.230469 360.484375 116.78125 352.820312 113.722656 341.984375 C 113.449219 340.808594 107.464844 314.113281 119.734375 303.320312 C 125.886719 297.90625 135.476562 297.542969 148.238281 302.234375 C 167.933594 309.480469 165.789062 322.328125 165.503906 323.664062 C 165.246094 327.425781 165.148438 333.609375 165.746094 335.742188 C 166 336.636719 167.058594 338.179688 167.910156 339.421875 C 168.980469 340.980469 169.589844 341.894531 169.6875 342.59375 C 169.921875 344.253906 167.898438 346.613281 164.574219 347.609375 C 164.253906 351.226562 162.75 365.085938 158.300781 367.863281 C 157.195312 368.550781 155.488281 368.820312 153.488281 368.820312 " fill-opacity="1" fill-rule="nonzero"/><path fill="#000000" d="M 141.285156 293.757812 C 146.566406 295.046875 151.726562 298.335938 154.457031 298.628906 C 158.855469 299.097656 162.03125 293.457031 167.589844 295.503906 C 172.476562 297.304688 175.222656 301.460938 175.921875 306.140625 C 176.035156 306.921875 176.070312 307.75 175.992188 308.632812 C 174.960938 320.472656 167.542969 322.988281 164.53125 323.523438 C 164.53125 323.523438 147.089844 321.914062 143.6875 322.738281 C 140.507812 323.507812 135.589844 328.457031 134.105469 335.488281 C 133.917969 336.394531 133.125 337.054688 132.195312 337.125 C 131.101562 337.207031 130.117188 336.457031 129.933594 335.386719 C 129.347656 332.011719 127.757812 325.261719 124.324219 325.0625 C 120.324219 324.832031 115.226562 332.734375 120.457031 337.6875 C 122.070312 339.214844 121.535156 341.988281 119.46875 342.820312 C 117.757812 343.507812 115.609375 343.546875 113.289062 341.667969 C 113.289062 341.667969 102.964844 323.589844 107.890625 308.328125 C 112.8125 293.066406 134.261719 292.042969 141.285156 293.757812 " fill-opacity="1" fill-rule="nonzero"/><path fill="#000000" d="M 169.332031 342.410156 C 169.066406 342.410156 168.804688 342.308594 168.609375 342.097656 C 168.242188 341.699219 168.265625 341.078125 168.664062 340.710938 C 169.871094 339.59375 170.742188 337.074219 170.886719 334.296875 C 170.992188 332.292969 170.714844 330.40625 170.113281 328.984375 C 169.625 327.832031 168.957031 327.117188 168.328125 327.085938 C 167.324219 327.046875 165.875 328.835938 165.285156 331.9375 C 165.183594 332.472656 164.667969 332.824219 164.136719 332.722656 C 163.601562 332.617188 163.253906 332.105469 163.355469 331.574219 C 164.113281 327.601562 166.160156 325.003906 168.429688 325.128906 C 169.867188 325.203125 171.109375 326.300781 171.921875 328.222656 C 172.636719 329.910156 172.96875 332.101562 172.847656 334.394531 C 172.675781 337.707031 171.582031 340.679688 169.996094 342.148438 C 169.808594 342.324219 169.570312 342.410156 169.332031 342.410156 " fill-opacity="1" fill-rule="nonzero"/><path fill="#000000" d="M 150.703125 333.957031 L 150.707031 333.957031 Z M 156.160156 326.839844 C 153.921875 326.839844 151.886719 330.074219 151.683594 334.007812 C 151.578125 336.0625 151.964844 338 152.773438 339.472656 C 153.503906 340.789062 154.476562 341.546875 155.511719 341.601562 C 157.804688 341.707031 159.898438 338.4375 160.105469 334.4375 C 160.210938 332.382812 159.824219 330.445312 159.011719 328.972656 C 158.28125 327.652344 157.3125 326.898438 156.277344 326.84375 C 156.238281 326.839844 156.199219 326.839844 156.160156 326.839844 Z M 155.632812 343.566406 C 155.558594 343.566406 155.484375 343.5625 155.410156 343.558594 C 153.671875 343.472656 152.125 342.355469 151.058594 340.414062 C 150.070312 338.628906 149.597656 336.320312 149.722656 333.90625 C 149.992188 328.667969 152.925781 324.714844 156.375 324.886719 C 158.113281 324.972656 159.660156 326.085938 160.730469 328.027344 C 161.71875 329.8125 162.191406 332.125 162.066406 334.539062 C 161.800781 339.660156 158.996094 343.566406 155.632812 343.566406 " fill-opacity="1" fill-rule="nonzero"/><path fill="#000000" d="M 151.324219 331.257812 C 151.292969 331.257812 151.261719 331.253906 151.234375 331.253906 L 132.066406 329.539062 C 131.527344 329.492188 131.128906 329.015625 131.179688 328.476562 C 131.226562 327.9375 131.703125 327.539062 132.242188 327.585938 L 151.410156 329.300781 C 151.949219 329.351562 152.347656 329.824219 152.300781 330.363281 C 152.253906 330.875 151.824219 331.257812 151.324219 331.257812 " fill-opacity="1" fill-rule="nonzero"/><path fill="#ffffff" d="M 120.769531 413.996094 C 120.769531 413.996094 128.230469 425.6875 134.953125 423.621094 C 138.488281 422.535156 141.933594 411.003906 143.339844 410.59375 C 147.847656 409.285156 156.425781 407.144531 161.699219 397.742188 C 166.617188 388.960938 165.546875 384.269531 164.277344 382.113281 C 163.691406 381.121094 163.703125 379.890625 164.347656 378.933594 C 165.292969 377.546875 166.203125 375.449219 165.253906 373.285156 C 164.917969 372.527344 164.949219 371.65625 165.277344 370.898438 C 166.527344 367.988281 168.84375 361.296875 164.34375 359.976562 C 163.125 359.621094 161.804688 360.074219 161.0625 361.101562 C 159.632812 363.070312 156.652344 366.777344 152.964844 369.121094 C 147.75 372.433594 144.625 374.703125 142.003906 376.191406 C 139.761719 377.472656 138.578125 366.28125 133.183594 362.078125 C 128.398438 358.347656 126.765625 360.234375 126.289062 361.988281 C 125.8125 363.742188 128.773438 364.4375 130.464844 372.777344 C 132.441406 382.535156 130.375 390.75 129.773438 395.140625 C 129.070312 400.292969 120.769531 413.996094 120.769531 413.996094 " fill-opacity="1" fill-rule="nonzero"/><path fill="#000000" d="M 121.929688 413.96875 C 124.1875 417.296875 129.996094 424.117188 134.664062 422.683594 C 136.410156 422.148438 138.574219 417.5 140.003906 414.425781 C 141.488281 411.234375 142.128906 409.925781 143.066406 409.65625 L 143.636719 409.488281 C 148.253906 408.15625 155.980469 405.9375 160.839844 397.265625 C 165.601562 388.773438 164.503906 384.4375 163.429688 382.609375 C 162.640625 381.265625 162.679688 379.648438 163.535156 378.386719 C 164.335938 377.207031 165.125 375.433594 164.355469 373.679688 C 163.921875 372.699219 163.929688 371.542969 164.375 370.507812 C 165.949219 366.847656 166.417969 363.828125 165.664062 362.222656 C 165.355469 361.570312 164.832031 361.144531 164.066406 360.917969 C 163.246094 360.679688 162.359375 360.980469 161.855469 361.675781 C 160.371094 363.726562 157.304688 367.523438 153.488281 369.949219 C 151.222656 371.390625 149.375 372.617188 147.742188 373.703125 C 145.648438 375.089844 143.996094 376.1875 142.492188 377.046875 C 142.054688 377.292969 141.566406 377.339844 141.113281 377.183594 C 139.902344 376.753906 139.203125 374.96875 138.144531 372.269531 C 136.933594 369.183594 135.273438 364.953125 132.582031 362.851562 C 129.96875 360.816406 128.707031 360.800781 128.191406 360.972656 C 127.640625 361.15625 127.367188 361.765625 127.234375 362.246094 C 127.171875 362.480469 127.304688 362.726562 127.863281 363.570312 C 128.800781 364.988281 130.367188 367.355469 131.425781 372.582031 C 133.117188 380.941406 131.917969 388.128906 131.125 392.886719 C 130.976562 393.773438 130.839844 394.574219 130.746094 395.277344 C 130.09375 400.039062 123.492188 411.34375 121.929688 413.96875 Z M 133.320312 424.847656 C 126.617188 424.847656 120.234375 414.976562 119.941406 414.519531 C 119.742188 414.207031 119.738281 413.804688 119.929688 413.484375 C 120.011719 413.351562 128.132812 399.902344 128.800781 395.011719 C 128.898438 394.292969 129.035156 393.472656 129.1875 392.5625 C 129.957031 387.949219 131.125 380.976562 129.5 372.972656 C 128.515625 368.117188 127.082031 365.949219 126.226562 364.652344 C 125.585938 363.6875 125.035156 362.851562 125.339844 361.730469 C 125.703125 360.402344 126.496094 359.46875 127.570312 359.113281 C 129.175781 358.578125 131.210938 359.296875 133.789062 361.308594 C 136.90625 363.738281 138.679688 368.253906 139.972656 371.554688 C 140.507812 372.921875 141.226562 374.753906 141.683594 375.246094 C 143.089844 374.433594 144.671875 373.382812 146.65625 372.066406 C 148.292969 370.980469 150.152344 369.746094 152.4375 368.292969 C 155.976562 366.042969 158.863281 362.460938 160.269531 360.523438 C 161.257812 359.164062 163.003906 358.5625 164.621094 359.039062 C 165.9375 359.421875 166.886719 360.214844 167.4375 361.386719 C 168.734375 364.136719 167.46875 368.289062 166.179688 371.285156 C 165.949219 371.820312 165.9375 372.40625 166.152344 372.890625 C 167.046875 374.929688 166.703125 377.210938 165.160156 379.484375 C 164.734375 380.113281 164.71875 380.933594 165.125 381.617188 C 166.699219 384.292969 167.53125 389.34375 162.554688 398.222656 C 157.300781 407.59375 148.765625 410.054688 144.179688 411.375 L 143.734375 411.5 C 143.332031 411.925781 142.476562 413.765625 141.785156 415.25 C 139.539062 420.078125 137.632812 423.828125 135.242188 424.558594 C 134.601562 424.753906 133.957031 424.847656 133.320312 424.847656 " fill-opacity="1" fill-rule="nonzero"/><path fill="#df3a44" d="M 145.359375 419.167969 L 122.761719 404.78125 C 122.761719 404.78125 92.210938 454.125 69.074219 470.878906 C 57.808594 479.03125 35.957031 469.445312 35.957031 469.445312 C 35.957031 469.445312 14.980469 549.984375 55.472656 561.5 C 122.925781 580.679688 145.359375 419.167969 145.359375 419.167969 " fill-opacity="1" fill-rule="nonzero"/><path fill="#ffffff" d="M 213.507812 545.101562 C 188.027344 545.101562 151.367188 524.664062 126.636719 506.261719 C 126.203125 505.941406 126.113281 505.328125 126.433594 504.890625 C 126.757812 504.457031 127.375 504.367188 127.808594 504.691406 C 153.777344 524.015625 192.945312 545.621094 217.878906 542.910156 C 218.414062 542.851562 218.902344 543.242188 218.960938 543.777344 C 219.019531 544.316406 218.628906 544.804688 218.089844 544.859375 C 216.609375 545.019531 215.078125 545.101562 213.507812 545.101562 " fill-opacity="1" fill-rule="nonzero"/><path fill="#ffffff" d="M 179.125 483.050781 C 164.996094 483.050781 138.96875 470.878906 137.757812 470.308594 C 137.265625 470.074219 137.054688 469.492188 137.289062 469.003906 C 137.519531 468.511719 138.105469 468.304688 138.59375 468.53125 C 138.914062 468.683594 170.824219 483.613281 182.605469 480.734375 C 202.398438 475.886719 197.695312 450.542969 197.648438 450.289062 C 197.542969 449.757812 197.890625 449.242188 198.421875 449.136719 C 198.957031 449.035156 199.46875 449.382812 199.574219 449.914062 C 199.625 450.1875 204.664062 477.355469 183.070312 482.636719 C 181.910156 482.921875 180.578125 483.050781 179.125 483.050781 " fill-opacity="1" fill-rule="nonzero"/><path fill="#ffffff" d="M 67.09375 474.203125 C 66.792969 474.203125 66.5 474.066406 66.304688 473.808594 C 65.980469 473.375 66.070312 472.761719 66.503906 472.4375 C 90.84375 454.261719 121.015625 404.378906 121.320312 403.878906 C 121.597656 403.414062 122.199219 403.265625 122.667969 403.542969 C 123.132812 403.824219 123.28125 404.429688 123 404.890625 C 122.699219 405.398438 92.324219 455.605469 67.679688 474.007812 C 67.503906 474.136719 67.296875 474.203125 67.09375 474.203125 " fill-opacity="1" fill-rule="nonzero"/><path fill="#ffffff" d="M 65.136719 564.847656 C 64.261719 564.847656 63.390625 564.808594 62.511719 564.730469 C 61.972656 564.6875 61.574219 564.210938 61.621094 563.671875 C 61.664062 563.132812 62.144531 562.738281 62.683594 562.777344 C 90.449219 565.183594 111.152344 526.105469 123.648438 492.914062 C 136.296875 459.300781 143.269531 424.765625 144.269531 419.636719 L 134.980469 413.726562 C 134.523438 413.4375 134.386719 412.832031 134.679688 412.375 C 134.96875 411.917969 135.578125 411.78125 136.035156 412.070312 L 145.886719 418.339844 C 146.226562 418.554688 146.398438 418.953125 146.324219 419.347656 C 146.253906 419.722656 139.191406 457.183594 125.492188 493.582031 C 117.429688 515.007812 108.675781 531.886719 99.472656 543.761719 C 88.621094 557.761719 77.082031 564.847656 65.136719 564.847656 " fill-opacity="1" fill-rule="nonzero"/><path fill="#df3a44" d="M 462.347656 551.925781 C 445.5625 547.542969 435.515625 530.402344 439.902344 513.632812 C 444.289062 496.867188 461.449219 486.824219 478.234375 491.207031 C 495.019531 495.59375 505.066406 512.738281 500.679688 529.503906 C 496.292969 546.269531 479.132812 556.308594 462.347656 551.925781 Z M 529.820312 543.410156 L 532.90625 531.613281 L 521.070312 525.496094 C 521.292969 522.640625 521.28125 519.800781 521.027344 517.007812 L 532.777344 510.75 L 529.542969 498.996094 L 516.230469 499.609375 C 515.003906 497.054688 513.570312 494.605469 511.9375 492.289062 L 518.992188 480.988281 L 510.3125 472.425781 L 499.101562 479.597656 C 496.785156 478.007812 494.3125 476.609375 491.703125 475.40625 L 492.15625 462.101562 L 480.351562 459.019531 L 474.226562 470.84375 C 471.363281 470.621094 468.523438 470.632812 465.722656 470.878906 L 459.460938 459.148438 L 447.699219 462.375 L 448.3125 475.675781 C 445.757812 476.898438 443.304688 478.335938 440.984375 479.964844 L 429.667969 472.917969 L 421.097656 481.589844 L 428.277344 492.789062 C 426.683594 495.101562 425.285156 497.574219 424.082031 500.175781 L 410.765625 499.726562 L 407.675781 511.519531 L 419.511719 517.636719 C 419.289062 520.496094 419.300781 523.335938 419.550781 526.128906 L 407.808594 532.386719 L 411.039062 544.140625 L 424.351562 543.527344 C 425.574219 546.078125 427.011719 548.527344 428.640625 550.84375 L 421.589844 562.144531 L 430.269531 570.710938 L 441.484375 563.539062 C 443.796875 565.128906 446.273438 566.527344 448.875 567.726562 L 448.425781 581.03125 L 460.230469 584.117188 L 466.355469 572.292969 C 469.21875 572.515625 472.058594 572.503906 474.855469 572.253906 L 481.121094 583.988281 L 492.886719 580.761719 L 492.269531 567.457031 C 494.828125 566.234375 497.277344 564.800781 499.601562 563.171875 L 510.914062 570.214844 L 519.488281 561.542969 L 512.304688 550.347656 C 513.898438 548.03125 515.296875 545.5625 516.5 542.960938 L 529.820312 543.410156 " fill-opacity="1" fill-rule="nonzero"/><path fill="#000000" d="M 467.257812 485.992188 C 453.753906 485.992188 441.386719 495.058594 437.816406 508.707031 C 435.761719 516.5625 436.890625 524.75 440.996094 531.757812 C 445.101562 538.761719 451.699219 543.75 459.5625 545.804688 C 467.425781 547.855469 475.617188 546.726562 482.628906 542.625 C 489.648438 538.523438 494.640625 531.9375 496.695312 524.082031 C 498.753906 516.226562 497.621094 508.042969 493.515625 501.035156 C 489.40625 494.027344 482.816406 489.039062 474.953125 486.984375 C 472.382812 486.316406 469.796875 485.992188 467.257812 485.992188 Z M 467.308594 548.765625 C 464.5625 548.765625 461.792969 548.414062 459.066406 547.703125 C 450.691406 545.515625 443.675781 540.203125 439.300781 532.746094 C 434.933594 525.289062 433.730469 516.574219 435.914062 508.214844 C 438.101562 499.847656 443.421875 492.839844 450.890625 488.472656 C 458.355469 484.105469 467.074219 482.902344 475.445312 485.089844 C 483.816406 487.273438 490.835938 492.585938 495.207031 500.042969 C 499.578125 507.503906 500.785156 516.214844 498.59375 524.578125 C 496.40625 532.9375 491.089844 539.953125 483.625 544.316406 C 478.59375 547.261719 472.992188 548.765625 467.308594 548.765625 Z M 446.398438 575.109375 L 456.683594 577.792969 L 462.449219 566.667969 C 462.632812 566.316406 463 566.109375 463.398438 566.140625 C 466.203125 566.359375 469.011719 566.351562 471.730469 566.105469 C 472.128906 566.070312 472.5 566.273438 472.6875 566.621094 L 478.582031 577.660156 L 488.832031 574.847656 L 488.253906 562.328125 C 488.238281 561.9375 488.457031 561.570312 488.808594 561.402344 C 491.3125 560.207031 493.730469 558.789062 495.996094 557.199219 C 496.320312 556.96875 496.746094 556.957031 497.082031 557.167969 L 507.726562 563.796875 L 515.199219 556.238281 L 508.445312 545.703125 C 508.230469 545.371094 508.234375 544.941406 508.464844 544.621094 C 510.007812 542.367188 511.390625 539.929688 512.570312 537.371094 C 512.738281 537.019531 513.105469 536.796875 513.496094 536.804688 L 526.03125 537.226562 L 528.722656 526.953125 L 517.582031 521.195312 C 517.226562 521.015625 517.023438 520.640625 517.050781 520.25 C 517.277344 517.441406 517.261719 514.644531 517.015625 511.921875 C 516.980469 511.53125 517.183594 511.152344 517.535156 510.96875 L 528.585938 505.082031 L 525.773438 494.839844 L 513.238281 495.417969 C 512.859375 495.429688 512.480469 495.214844 512.3125 494.859375 C 511.105469 492.363281 509.695312 489.945312 508.097656 487.679688 C 507.871094 487.359375 507.859375 486.929688 508.070312 486.601562 L 514.707031 475.960938 L 507.140625 468.5 L 496.59375 475.25 C 496.261719 475.460938 495.835938 475.453125 495.511719 475.230469 C 493.253906 473.683594 490.8125 472.304688 488.257812 471.125 C 487.902344 470.960938 487.675781 470.59375 487.6875 470.199219 L 488.117188 457.679688 L 477.824219 454.996094 L 472.0625 466.121094 C 471.882812 466.472656 471.503906 466.675781 471.113281 466.648438 C 468.308594 466.429688 465.503906 466.441406 462.773438 466.6875 C 462.390625 466.714844 462.007812 466.515625 461.820312 466.171875 L 455.929688 455.128906 L 445.675781 457.941406 L 446.253906 470.457031 C 446.273438 470.851562 446.050781 471.214844 445.699219 471.390625 C 443.195312 472.585938 440.777344 474.003906 438.511719 475.59375 C 438.1875 475.816406 437.757812 475.828125 437.429688 475.621094 L 426.785156 468.992188 L 419.308594 476.550781 L 426.066406 487.085938 C 426.277344 487.417969 426.269531 487.84375 426.050781 488.167969 C 424.503906 490.421875 423.121094 492.855469 421.9375 495.414062 C 421.773438 495.773438 421.410156 495.996094 421.011719 495.984375 L 408.476562 495.558594 L 405.789062 505.835938 L 416.929688 511.59375 C 417.28125 511.773438 417.488281 512.148438 417.457031 512.542969 C 417.238281 515.34375 417.25 518.148438 417.496094 520.867188 C 417.527344 521.261719 417.324219 521.636719 416.980469 521.820312 L 405.925781 527.707031 L 408.738281 537.953125 L 421.273438 537.371094 C 421.652344 537.355469 422.035156 537.574219 422.199219 537.925781 C 423.398438 540.425781 424.8125 542.84375 426.410156 545.109375 C 426.636719 545.429688 426.648438 545.855469 426.441406 546.191406 L 419.804688 556.824219 L 427.367188 564.289062 L 437.914062 557.542969 C 438.25 557.328125 438.675781 557.332031 439 557.554688 C 441.257812 559.101562 443.695312 560.484375 446.25 561.664062 C 446.613281 561.828125 446.832031 562.195312 446.820312 562.585938 Z M 457.195312 579.921875 C 457.113281 579.921875 457.03125 579.914062 456.949219 579.890625 L 445.144531 576.808594 C 444.699219 576.691406 444.390625 576.285156 444.410156 575.828125 L 444.839844 563.167969 C 442.597656 562.097656 440.445312 560.878906 438.433594 559.539062 L 427.765625 566.363281 C 427.378906 566.609375 426.875 566.558594 426.546875 566.234375 L 417.867188 557.667969 C 417.539062 557.34375 417.480469 556.84375 417.722656 556.453125 L 424.429688 545.699219 C 423.050781 543.683594 421.800781 541.554688 420.71875 539.363281 L 408.046875 539.945312 C 407.582031 539.964844 407.179688 539.667969 407.054688 539.226562 L 403.824219 527.472656 C 403.703125 527.03125 403.90625 526.5625 404.308594 526.347656 L 415.484375 520.394531 C 415.300781 517.980469 415.285156 515.511719 415.453125 513.039062 L 404.1875 507.21875 C 403.785156 507.003906 403.574219 506.542969 403.691406 506.097656 L 406.78125 494.304688 C 406.894531 493.859375 407.296875 493.558594 407.757812 493.574219 L 420.433594 494 C 421.5 491.761719 422.722656 489.613281 424.066406 487.601562 L 417.234375 476.945312 C 416.988281 476.5625 417.042969 476.054688 417.363281 475.730469 L 425.9375 467.058594 C 426.257812 466.730469 426.765625 466.671875 427.15625 466.914062 L 437.917969 473.617188 C 439.9375 472.234375 442.066406 470.992188 444.261719 469.902344 L 443.683594 457.246094 C 443.65625 456.792969 443.957031 456.378906 444.402344 456.257812 L 456.167969 453.03125 C 456.609375 452.90625 457.078125 453.109375 457.289062 453.511719 L 463.25 464.675781 C 465.667969 464.492188 468.144531 464.480469 470.617188 464.644531 L 476.441406 453.394531 C 476.652344 452.988281 477.121094 452.78125 477.5625 452.898438 L 489.367188 455.980469 C 489.8125 456.097656 490.113281 456.503906 490.097656 456.960938 L 489.671875 469.621094 C 491.914062 470.6875 494.0625 471.90625 496.082031 473.25 L 506.742188 466.425781 C 507.132812 466.175781 507.636719 466.230469 507.960938 466.554688 L 516.644531 475.117188 C 516.96875 475.441406 517.03125 475.945312 516.785156 476.335938 L 510.074219 487.089844 C 511.457031 489.105469 512.707031 491.234375 513.792969 493.425781 L 526.464844 492.84375 C 526.917969 492.820312 527.335938 493.121094 527.457031 493.5625 L 530.6875 505.320312 C 530.808594 505.761719 530.605469 506.226562 530.203125 506.441406 L 519.027344 512.394531 C 519.210938 514.808594 519.222656 517.277344 519.058594 519.75 L 530.316406 525.574219 C 530.726562 525.785156 530.933594 526.25 530.820312 526.691406 L 527.734375 538.484375 C 527.617188 538.925781 527.195312 539.21875 526.75 539.214844 L 514.078125 538.785156 C 513.007812 541.027344 511.792969 543.175781 510.449219 545.191406 L 517.277344 555.839844 C 517.523438 556.230469 517.472656 556.730469 517.152344 557.058594 L 508.574219 565.730469 C 508.25 566.058594 507.75 566.117188 507.355469 565.875 L 496.589844 559.171875 C 494.570312 560.554688 492.441406 561.800781 490.246094 562.882812 L 490.832031 575.539062 C 490.851562 576 490.550781 576.410156 490.109375 576.535156 L 478.34375 579.761719 C 477.898438 579.882812 477.433594 579.679688 477.214844 579.273438 L 471.257812 568.109375 C 468.84375 568.296875 466.371094 568.308594 463.894531 568.140625 L 458.066406 579.390625 C 457.898438 579.722656 457.554688 579.921875 457.195312 579.921875 " fill-opacity="1" fill-rule="nonzero"/><path fill="#df3a44" d="M 526.105469 451.894531 C 514.269531 450.792969 505.578125 440.320312 506.675781 428.5 C 507.777344 416.683594 518.265625 407.996094 530.09375 409.097656 C 541.925781 410.195312 550.625 420.671875 549.519531 432.488281 C 548.421875 444.308594 537.933594 452.996094 526.105469 451.894531 Z M 570.757812 438.660156 L 571.53125 430.347656 L 562.855469 427.523438 C 562.691406 425.566406 562.363281 423.648438 561.882812 421.789062 L 569.128906 416.257812 L 565.636719 408.671875 L 556.707031 410.5625 C 555.597656 408.972656 554.355469 407.476562 552.992188 406.089844 L 556.503906 397.671875 L 549.683594 392.84375 L 542.910156 398.9375 C 541.164062 398.117188 539.335938 397.449219 537.441406 396.925781 L 536.273438 387.882812 L 527.949219 387.109375 L 525.121094 395.777344 C 523.164062 395.941406 521.242188 396.265625 519.382812 396.746094 L 513.847656 389.511719 L 506.253906 392.996094 L 508.144531 401.917969 C 506.554688 403.027344 505.054688 404.269531 503.667969 405.625 L 495.238281 402.121094 L 490.410156 408.933594 L 496.503906 415.703125 C 495.6875 417.445312 495.019531 419.269531 494.492188 421.160156 L 485.441406 422.332031 L 484.660156 430.648438 L 493.34375 433.46875 C 493.507812 435.425781 493.832031 437.34375 494.308594 439.203125 L 487.066406 444.734375 L 490.5625 452.320312 L 499.488281 450.429688 C 500.601562 452.019531 501.84375 453.515625 503.203125 454.902344 L 499.691406 463.320312 L 506.511719 468.148438 L 513.289062 462.058594 C 515.03125 462.875 516.855469 463.542969 518.757812 464.066406 L 519.925781 473.109375 L 528.246094 473.886719 L 531.074219 465.214844 C 533.03125 465.050781 534.957031 464.726562 536.816406 464.246094 L 542.351562 471.484375 L 549.945312 467.996094 L 548.054688 459.074219 C 549.640625 457.964844 551.144531 456.722656 552.53125 455.367188 L 560.957031 458.875 L 565.789062 452.0625 L 559.691406 445.289062 C 560.511719 443.550781 561.179688 441.726562 561.707031 439.832031 L 570.757812 438.660156 " fill-opacity="1" fill-rule="nonzero"/><path fill="#000000" d="M 525.4375 406.824219 C 520.667969 406.824219 516.082031 408.46875 512.363281 411.550781 C 508.144531 415.046875 505.539062 419.976562 505.027344 425.433594 C 504.519531 430.886719 506.167969 436.214844 509.675781 440.429688 C 513.171875 444.648438 518.105469 447.25 523.570312 447.757812 C 524.214844 447.816406 524.851562 447.847656 525.488281 447.847656 C 535.957031 447.847656 544.929688 439.855469 545.917969 429.238281 C 546.425781 423.78125 544.773438 418.453125 541.277344 414.238281 C 537.773438 410.023438 532.839844 407.421875 527.375 406.914062 C 526.730469 406.851562 526.082031 406.824219 525.4375 406.824219 Z M 525.488281 449.808594 C 524.792969 449.808594 524.09375 449.773438 523.386719 449.710938 C 517.402344 449.152344 512 446.304688 508.160156 441.683594 C 504.324219 437.066406 502.519531 431.226562 503.074219 425.253906 C 503.632812 419.273438 506.488281 413.871094 511.109375 410.039062 C 515.734375 406.207031 521.574219 404.40625 527.558594 404.960938 C 533.542969 405.515625 538.949219 408.367188 542.789062 412.988281 C 546.625 417.609375 548.429688 423.445312 547.871094 429.421875 C 546.785156 441.050781 536.960938 449.808594 525.488281 449.808594 Z M 568.132812 435.496094 L 568.140625 435.496094 Z M 518.175781 469.046875 L 524.933594 469.675781 L 527.515625 461.75 C 527.640625 461.375 527.972656 461.113281 528.363281 461.078125 C 530.273438 460.914062 532.148438 460.601562 533.945312 460.136719 C 534.328125 460.039062 534.730469 460.175781 534.972656 460.492188 L 540.03125 467.105469 L 546.199219 464.273438 L 544.46875 456.117188 C 544.382812 455.734375 544.542969 455.335938 544.867188 455.113281 C 546.40625 454.03125 547.871094 452.820312 549.21875 451.503906 C 549.5 451.230469 549.914062 451.148438 550.28125 451.300781 L 557.984375 454.503906 L 561.910156 448.972656 L 556.335938 442.78125 C 556.074219 442.492188 556.011719 442.070312 556.179688 441.714844 C 556.964844 440.035156 557.625 438.25 558.136719 436.410156 C 558.238281 436.027344 558.5625 435.75 558.953125 435.699219 L 567.230469 434.625 L 567.855469 427.875 L 559.921875 425.296875 C 559.550781 425.171875 559.285156 424.835938 559.25 424.445312 C 559.089844 422.539062 558.773438 420.664062 558.3125 418.871094 C 558.210938 418.492188 558.351562 418.089844 558.664062 417.847656 L 565.28125 412.792969 L 562.453125 406.632812 L 554.285156 408.359375 C 553.898438 408.445312 553.5 408.289062 553.277344 407.964844 C 552.199219 406.421875 550.984375 404.960938 549.667969 403.617188 C 549.390625 403.335938 549.3125 402.917969 549.464844 402.554688 L 552.671875 394.859375 L 547.136719 390.9375 L 540.9375 396.503906 C 540.644531 396.765625 540.222656 396.828125 539.863281 396.664062 C 538.183594 395.875 536.398438 395.21875 534.554688 394.707031 C 534.175781 394.605469 533.894531 394.28125 533.84375 393.890625 L 532.769531 385.625 L 526.011719 384.996094 L 523.429688 392.921875 C 523.308594 393.296875 522.976562 393.5625 522.578125 393.59375 C 520.671875 393.753906 518.800781 394.070312 517 394.535156 C 516.617188 394.632812 516.214844 394.492188 515.976562 394.179688 L 510.914062 387.566406 L 504.75 390.398438 L 506.480469 398.554688 C 506.5625 398.941406 506.40625 399.335938 506.078125 399.5625 C 504.539062 400.636719 503.074219 401.851562 501.730469 403.167969 C 501.449219 403.441406 501.035156 403.523438 500.667969 403.371094 L 492.960938 400.164062 L 489.039062 405.699219 L 494.609375 411.886719 C 494.871094 412.179688 494.933594 412.601562 494.769531 412.960938 C 493.980469 414.636719 493.320312 416.421875 492.8125 418.261719 C 492.707031 418.640625 492.382812 418.921875 491.992188 418.972656 L 483.722656 420.042969 L 483.085938 426.796875 L 491.019531 429.375 C 491.398438 429.5 491.664062 429.832031 491.695312 430.226562 C 491.859375 432.128906 492.175781 434.003906 492.640625 435.800781 C 492.734375 436.179688 492.597656 436.585938 492.285156 436.820312 L 485.664062 441.875 L 488.496094 448.039062 L 496.660156 446.308594 C 497.046875 446.230469 497.441406 446.386719 497.671875 446.707031 C 498.742188 448.25 499.964844 449.710938 501.277344 451.054688 C 501.554688 451.335938 501.632812 451.753906 501.484375 452.117188 L 498.277344 459.8125 L 503.8125 463.734375 L 510.011719 458.167969 C 510.300781 457.90625 510.726562 457.84375 511.082031 458.007812 C 512.757812 458.792969 514.546875 459.453125 516.390625 459.960938 C 516.769531 460.070312 517.050781 460.390625 517.101562 460.78125 Z M 525.625 471.707031 C 525.59375 471.707031 525.5625 471.703125 525.535156 471.699219 L 517.210938 470.925781 C 516.753906 470.882812 516.386719 470.53125 516.328125 470.078125 L 515.242188 461.675781 C 513.722656 461.222656 512.253906 460.683594 510.84375 460.054688 L 504.542969 465.714844 C 504.199219 466.019531 503.691406 466.054688 503.320312 465.785156 L 496.503906 460.960938 C 496.125 460.695312 495.984375 460.203125 496.160156 459.785156 L 499.425781 451.957031 C 498.351562 450.828125 497.351562 449.621094 496.4375 448.363281 L 488.136719 450.117188 C 487.6875 450.214844 487.230469 449.984375 487.042969 449.570312 L 483.550781 441.984375 C 483.359375 441.566406 483.480469 441.074219 483.847656 440.796875 L 490.578125 435.65625 C 490.222656 434.15625 489.964844 432.609375 489.796875 431.042969 L 481.734375 428.417969 C 481.300781 428.277344 481.019531 427.851562 481.0625 427.394531 L 481.835938 419.082031 C 481.878906 418.625 482.230469 418.257812 482.6875 418.199219 L 491.101562 417.109375 C 491.550781 415.601562 492.089844 414.125 492.71875 412.71875 L 487.054688 406.425781 C 486.746094 406.085938 486.71875 405.578125 486.984375 405.207031 L 491.8125 398.390625 C 492.078125 398.019531 492.570312 397.878906 492.992188 398.054688 L 500.824219 401.3125 C 501.960938 400.246094 503.167969 399.242188 504.425781 398.332031 L 502.664062 390.039062 C 502.570312 389.589844 502.800781 389.136719 503.21875 388.941406 L 510.8125 385.457031 C 511.226562 385.265625 511.71875 385.390625 512 385.753906 L 517.144531 392.476562 C 518.648438 392.121094 520.195312 391.859375 521.761719 391.703125 L 524.390625 383.640625 C 524.535156 383.207031 524.957031 382.929688 525.414062 382.96875 L 533.734375 383.746094 C 534.195312 383.789062 534.558594 384.140625 534.617188 384.597656 L 535.707031 393 C 537.222656 393.445312 538.695312 393.988281 540.105469 394.617188 L 546.40625 388.957031 C 546.746094 388.648438 547.253906 388.621094 547.628906 388.882812 L 554.445312 393.714844 C 554.824219 393.976562 554.960938 394.464844 554.789062 394.890625 L 551.519531 402.714844 C 552.59375 403.84375 553.59375 405.046875 554.507812 406.3125 L 562.808594 404.550781 C 563.253906 404.460938 563.714844 404.683594 563.90625 405.101562 L 567.394531 412.6875 C 567.585938 413.105469 567.460938 413.597656 567.097656 413.878906 L 560.371094 419.015625 C 560.722656 420.515625 560.984375 422.0625 561.144531 423.628906 L 569.214844 426.253906 C 569.648438 426.394531 569.925781 426.820312 569.882812 427.273438 L 569.109375 435.589844 C 569.070312 436.046875 568.714844 436.414062 568.257812 436.46875 L 559.84375 437.558594 C 559.398438 439.070312 558.855469 440.542969 558.226562 441.949219 L 563.894531 448.242188 C 564.199219 448.585938 564.230469 449.09375 563.964844 449.46875 L 559.132812 456.277344 C 558.867188 456.652344 558.378906 456.792969 557.953125 456.617188 L 550.121094 453.355469 C 548.988281 454.425781 547.78125 455.425781 546.519531 456.339844 L 548.285156 464.632812 C 548.378906 465.082031 548.148438 465.539062 547.730469 465.726562 L 540.136719 469.214844 C 539.71875 469.402344 539.222656 469.28125 538.945312 468.917969 L 533.800781 462.191406 C 532.300781 462.546875 530.75 462.808594 529.179688 462.972656 L 526.558594 471.027344 C 526.425781 471.433594 526.046875 471.707031 525.625 471.707031 " fill-opacity="1" fill-rule="nonzero"/><path fill="#000000" d="M 427.054688 378.414062 C 416.925781 392.25 397.488281 395.269531 383.636719 385.152344 C 369.785156 375.035156 366.765625 355.617188 376.894531 341.78125 C 387.019531 327.945312 406.457031 324.925781 420.308594 335.042969 C 434.164062 345.160156 437.183594 364.578125 427.054688 378.414062 Z M 423.019531 330 C 406.503906 317.941406 383.324219 321.535156 371.253906 338.035156 C 359.179688 354.53125 362.78125 377.6875 379.292969 389.746094 C 395.808594 401.808594 418.984375 398.210938 431.0625 381.710938 C 443.132812 365.214844 439.535156 342.0625 423.019531 330 " fill-opacity="1" fill-rule="nonzero"/><path fill="#000000" d="M 342.726562 443.554688 C 340.433594 441.882812 339.9375 438.667969 341.613281 436.378906 L 380.449219 383.304688 L 388.75 389.367188 L 349.90625 442.441406 C 348.234375 444.726562 345.015625 445.230469 342.726562 443.554688 " fill-opacity="1" fill-rule="nonzero"/><path fill="#ffffff" d="M 418.996094 381.988281 C 418.703125 381.988281 418.417969 381.863281 418.226562 381.621094 C 417.886719 381.199219 417.957031 380.578125 418.378906 380.242188 C 424.570312 375.308594 428.117188 367.949219 428.117188 360.046875 C 428.117188 356.023438 427.214844 352.164062 425.4375 348.585938 C 425.195312 348.101562 425.394531 347.511719 425.882812 347.273438 C 426.367188 347.03125 426.953125 347.226562 427.199219 347.710938 C 429.109375 351.566406 430.082031 355.714844 430.082031 360.046875 C 430.082031 368.546875 426.261719 376.46875 419.605469 381.773438 C 419.425781 381.917969 419.207031 381.988281 418.996094 381.988281 " fill-opacity="1" fill-rule="nonzero"/><path fill="#ffffff" d="M 420.671875 341.523438 C 420.429688 341.523438 420.1875 341.433594 419.996094 341.253906 C 417.746094 339.136719 415.167969 337.457031 412.332031 336.257812 C 411.832031 336.046875 411.597656 335.472656 411.808594 334.972656 C 412.019531 334.472656 412.59375 334.238281 413.097656 334.453125 C 416.144531 335.738281 418.921875 337.546875 421.34375 339.828125 C 421.738281 340.199219 421.757812 340.820312 421.386719 341.214844 C 421.191406 341.417969 420.929688 341.523438 420.671875 341.523438 " fill-opacity="1" fill-rule="nonzero"/><path fill="#ffffff" d="M 402.269531 387.832031 C 387.984375 387.832031 376.09375 377.144531 374.613281 362.96875 C 374.554688 362.429688 374.945312 361.945312 375.488281 361.890625 C 376.019531 361.835938 376.507812 362.226562 376.5625 362.765625 C 377.941406 375.9375 388.992188 385.867188 402.269531 385.867188 C 403.4375 385.867188 404.609375 385.792969 405.757812 385.636719 C 406.292969 385.5625 406.789062 385.941406 406.859375 386.476562 C 406.933594 387.011719 406.554688 387.507812 406.015625 387.578125 C 404.785156 387.746094 403.523438 387.832031 402.269531 387.832031 " fill-opacity="1" fill-rule="nonzero"/></svg>