<svg xmlns="http://www.w3.org/2000/svg" xmlns:xlink="http://www.w3.org/1999/xlink" width="793" zoomAndPan="magnify" viewBox="0 0 595.5 842.249979" height="1122" preserveAspectRatio="xMidYMid meet" version="1.0"><defs><clipPath id="6df4dd330c"><path d="M 98.417969 233.269531 L 527.925781 233.269531 L 527.925781 608.636719 L 98.417969 608.636719 Z M 98.417969 233.269531 " clip-rule="nonzero"/></clipPath><clipPath id="f27b0a09fa"><path d="M 59.539062 232.585938 L 489.046875 232.585938 L 489.046875 607.953125 L 59.539062 607.953125 Z M 59.539062 232.585938 " clip-rule="nonzero"/></clipPath></defs><g clip-path="url(#6df4dd330c)"><path fill="#df3a44" d="M 115.445312 293.203125 C 80.621094 350.507812 105.15625 406.285156 135.988281 435.886719 L 316.261719 608.636719 L 492.726562 436.503906 C 521.402344 404.660156 532.394531 370.878906 526.289062 333.265625 C 517.859375 281.234375 474.929688 240.867188 421.898438 235.101562 C 389.375 231.605469 357.957031 240.796875 333.4375 261.152344 C 326.835938 266.628906 320.9375 272.75 315.796875 279.402344 C 309.695312 271.828125 302.542969 264.898438 294.453125 258.753906 C 266.253906 237.351562 230.359375 228.851562 195.882812 235.460938 C 163.226562 241.761719 133.914062 262.800781 115.445312 293.203125 " fill-opacity="1" fill-rule="nonzero"/></g><g clip-path="url(#f27b0a09fa)"><path fill="#ffffff" d="M 76.570312 292.519531 C 41.746094 349.824219 66.277344 405.601562 97.109375 435.203125 L 277.382812 607.953125 L 453.847656 435.820312 C 482.527344 403.976562 493.515625 370.199219 487.414062 332.585938 C 478.980469 280.554688 436.050781 240.1875 383.023438 234.421875 C 350.496094 230.921875 319.078125 240.117188 294.558594 260.46875 C 287.957031 265.945312 282.058594 272.066406 276.917969 278.722656 C 270.816406 271.144531 263.664062 264.214844 255.574219 258.074219 C 227.375 236.667969 191.480469 228.167969 157.003906 234.777344 C 124.347656 241.078125 95.039062 262.117188 76.570312 292.519531 " fill-opacity="1" fill-rule="nonzero"/></g></svg>