<svg xmlns="http://www.w3.org/2000/svg" xmlns:xlink="http://www.w3.org/1999/xlink" width="500" zoomAndPan="magnify" viewBox="0 0 375 374.999991" height="500" preserveAspectRatio="xMidYMid meet" version="1.0"><defs><clipPath id="386f4a785d"><path d="M 143.601562 137 L 175 137 L 175 165 L 143.601562 165 Z M 143.601562 137 " clip-rule="nonzero"/></clipPath><clipPath id="af64600552"><path d="M 161 107.53125 L 201 107.53125 L 201 165 L 161 165 Z M 161 107.53125 " clip-rule="nonzero"/></clipPath><clipPath id="d8e02ee5f8"><path d="M 200 142 L 231.351562 142 L 231.351562 170 L 200 170 Z M 200 142 " clip-rule="nonzero"/></clipPath><clipPath id="a3eff321b1"><path d="M 174 142 L 214 142 L 214 199.78125 L 174 199.78125 Z M 174 142 " clip-rule="nonzero"/></clipPath></defs><g clip-path="url(#386f4a785d)"><path fill="#262b42" d="M 157.003906 137.964844 L 174.070312 137.964844 C 174.070312 154.359375 166.9375 164.214844 161.386719 164.683594 C 161.039062 164.695312 160.6875 164.699219 160.332031 164.699219 L 157.003906 164.699219 C 153.304688 164.699219 149.953125 163.203125 147.527344 160.785156 C 145.101562 158.367188 143.601562 155.023438 143.601562 151.335938 C 143.601562 143.949219 149.601562 137.964844 157.003906 137.964844 " fill-opacity="1" fill-rule="nonzero"/></g><g clip-path="url(#af64600552)"><path fill="#df3a44" d="M 200.882812 120.949219 L 200.882812 128.613281 C 200.882812 134.601562 198.496094 140.347656 194.25 144.582031 L 183.785156 155.015625 C 177.816406 160.96875 169.804688 164.417969 161.386719 164.683594 C 166.9375 164.214844 174.070312 154.359375 174.070312 137.964844 L 174.070312 120.949219 C 174.070312 113.566406 180.074219 107.582031 187.476562 107.582031 C 194.878906 107.582031 200.882812 113.566406 200.882812 120.949219 " fill-opacity="1" fill-rule="nonzero"/></g><g clip-path="url(#d8e02ee5f8)"><path fill="#262b42" d="M 217.949219 169.355469 L 200.882812 169.355469 C 200.882812 152.964844 208.015625 143.109375 213.566406 142.640625 C 213.917969 142.628906 214.265625 142.625 214.621094 142.625 L 217.949219 142.625 C 221.648438 142.625 225 144.117188 227.425781 146.539062 C 229.851562 148.957031 231.355469 152.296875 231.355469 155.988281 C 231.355469 163.371094 225.351562 169.355469 217.949219 169.355469 " fill-opacity="1" fill-rule="nonzero"/></g><g clip-path="url(#a3eff321b1)"><path fill="#df3a44" d="M 174.070312 186.375 L 174.070312 178.707031 C 174.070312 172.71875 176.457031 166.976562 180.703125 162.742188 L 191.167969 152.308594 C 197.136719 146.355469 205.152344 142.90625 213.566406 142.640625 C 208.015625 143.109375 200.882812 152.964844 200.882812 169.355469 L 200.882812 186.375 C 200.882812 193.757812 194.878906 199.742188 187.476562 199.742188 C 180.074219 199.742188 174.070312 193.757812 174.070312 186.375 " fill-opacity="1" fill-rule="nonzero"/></g></svg>