<svg xmlns="http://www.w3.org/2000/svg" xmlns:xlink="http://www.w3.org/1999/xlink" width="500" zoomAndPan="magnify" viewBox="0 0 375 374.999991" height="500" preserveAspectRatio="xMidYMid meet" version="1.0"><defs><clipPath id="b82b5af94a"><path d="M 34.023438 116 L 141 116 L 141 210 L 34.023438 210 Z M 34.023438 116 " clip-rule="nonzero"/></clipPath><clipPath id="098c1322c8"><path d="M 96 9.5 L 235 9.5 L 235 210 L 96 210 Z M 96 9.5 " clip-rule="nonzero"/></clipPath><clipPath id="ae89e7f34a"><path d="M 234 132 L 340.773438 132 L 340.773438 227 L 234 227 Z M 234 132 " clip-rule="nonzero"/></clipPath><clipPath id="19d1035022"><path d="M 140 132 L 279 132 L 279 332.75 L 140 332.75 Z M 140 132 " clip-rule="nonzero"/></clipPath></defs><g clip-path="url(#b82b5af94a)"><path fill="#262b42" d="M 80.878906 116.140625 L 140.539062 116.140625 C 140.539062 173.585938 115.601562 208.121094 96.199219 209.761719 C 94.972656 209.804688 93.746094 209.828125 92.511719 209.828125 L 80.878906 209.828125 C 67.9375 209.828125 56.222656 204.585938 47.742188 196.109375 C 39.261719 187.628906 34.019531 175.921875 34.019531 162.984375 C 34.019531 137.113281 55 116.140625 80.878906 116.140625 " fill-opacity="1" fill-rule="nonzero"/></g><g clip-path="url(#098c1322c8)"><path fill="#df3a44" d="M 234.257812 56.503906 L 234.257812 83.367188 C 234.257812 104.351562 225.921875 124.476562 211.074219 139.316406 L 174.496094 175.882812 C 153.625 196.746094 125.613281 208.832031 96.199219 209.761719 C 115.601562 208.121094 140.539062 173.585938 140.539062 116.140625 L 140.539062 56.503906 C 140.539062 30.632812 161.515625 9.660156 187.398438 9.660156 C 213.277344 9.660156 234.257812 30.632812 234.257812 56.503906 " fill-opacity="1" fill-rule="nonzero"/></g><g clip-path="url(#ae89e7f34a)"><path fill="#262b42" d="M 293.914062 226.144531 L 234.257812 226.144531 C 234.257812 168.699219 259.195312 134.164062 278.597656 132.523438 C 279.824219 132.480469 281.050781 132.457031 282.28125 132.457031 L 293.914062 132.457031 C 306.855469 132.457031 318.570312 137.699219 327.050781 146.179688 C 335.53125 154.65625 340.777344 166.367188 340.777344 179.300781 C 340.777344 205.171875 319.796875 226.144531 293.914062 226.144531 " fill-opacity="1" fill-rule="nonzero"/></g><g clip-path="url(#19d1035022)"><path fill="#df3a44" d="M 140.539062 285.78125 L 140.539062 258.917969 C 140.539062 237.933594 148.875 217.808594 163.71875 202.96875 L 200.300781 166.402344 C 221.171875 145.539062 249.179688 133.453125 278.597656 132.523438 C 259.195312 134.164062 234.257812 168.699219 234.257812 226.144531 L 234.257812 285.78125 C 234.257812 311.652344 213.277344 332.625 187.398438 332.625 C 161.515625 332.625 140.539062 311.652344 140.539062 285.78125 " fill-opacity="1" fill-rule="nonzero"/></g></svg>