<svg xmlns="http://www.w3.org/2000/svg" xmlns:xlink="http://www.w3.org/1999/xlink" width="500" zoomAndPan="magnify" viewBox="0 0 375 374.999991" height="500" preserveAspectRatio="xMidYMid meet" version="1.0"><path fill="#df3a44" d="M 92.425781 227.460938 C 93.550781 220.359375 99.386719 211.140625 109.421875 200.964844 C 117.757812 192.507812 128.394531 183.972656 140.605469 175.847656 C 142.484375 177.414062 144.742188 178.539062 147.222656 179.078125 C 147.140625 181.886719 147.09375 184.691406 147.09375 187.5 C 147.09375 200 147.878906 212.582031 149.375 224.589844 C 143.535156 226.800781 139.375 232.429688 139.375 239.039062 C 139.375 239.484375 139.40625 239.921875 139.441406 240.355469 C 136.207031 241.015625 133.035156 241.570312 129.976562 241.992188 C 115.875 243.933594 105.027344 243.101562 98.65625 239.78125 C 96.316406 235.832031 94.226562 231.722656 92.425781 227.460938 Z M 108.242188 121.597656 C 112.273438 132.4375 122.726562 144.792969 136.777344 156.859375 C 135.667969 158.992188 135.039062 161.40625 135.039062 163.96875 C 135.039062 166.28125 135.554688 168.46875 136.46875 170.441406 C 124.015625 178.757812 113.140625 187.5 104.574219 196.1875 C 97.191406 203.683594 91.902344 210.792969 88.773438 217.292969 C 85.917969 207.855469 84.367188 197.855469 84.367188 187.5 C 84.367188 162.457031 93.34375 139.480469 108.242188 121.597656 Z M 149.613281 148.546875 C 146.421875 148.730469 143.492188 149.875 141.109375 151.703125 C 125.125 137.898438 115.523438 124.898438 113.613281 115.648438 C 128.476562 100.375 148.015625 89.683594 169.898438 85.898438 C 160.050781 98.792969 153.085938 122.136719 149.613281 148.546875 Z M 282.574219 147.535156 C 281.449219 154.640625 275.613281 163.859375 265.578125 174.035156 C 258.945312 180.757812 250.867188 187.53125 241.695312 194.105469 C 238.875 191.101562 234.878906 189.21875 230.433594 189.21875 C 224.761719 189.21875 219.820312 192.277344 217.128906 196.832031 C 207.792969 193.097656 198.21875 188.660156 188.679688 183.59375 C 180.097656 179.042969 172.164062 174.320312 164.90625 169.542969 C 165.578125 167.808594 165.960938 165.933594 165.960938 163.96875 C 165.960938 162.941406 165.855469 161.945312 165.664062 160.972656 C 167.902344 159.78125 170.152344 158.609375 172.445312 157.457031 C 220.777344 133.238281 261.199219 127.269531 276.332031 135.199219 C 278.671875 139.15625 280.769531 143.265625 282.574219 147.535156 Z M 245.164062 199.984375 C 254.859375 193.0625 263.417969 185.917969 270.425781 178.8125 C 277.808594 171.324219 283.101562 164.203125 286.226562 157.699219 C 289.078125 167.140625 290.632812 177.144531 290.632812 187.5 C 290.632812 194.132812 289.976562 200.613281 288.777344 206.902344 C 282.730469 210.304688 271.964844 210.984375 257.875 208.710938 C 254.003906 208.085938 249.972656 207.253906 245.820312 206.226562 C 245.867188 205.71875 245.894531 205.203125 245.894531 204.679688 C 245.894531 203.042969 245.636719 201.464844 245.164062 199.984375 Z M 155.960938 223.632812 C 154.648438 212.59375 153.894531 200.492188 153.894531 187.5 C 153.894531 184.621094 153.945312 181.804688 154.015625 179.011719 C 156.75 178.378906 159.199219 177.015625 161.164062 175.148438 C 168.925781 180.285156 177.117188 185.167969 185.488281 189.605469 C 195.386719 194.859375 205.332031 199.453125 215.042969 203.320312 C 215 203.769531 214.972656 204.222656 214.972656 204.679688 C 214.972656 206.6875 215.363281 208.601562 216.058594 210.359375 C 211.679688 212.824219 207.175781 215.222656 202.558594 217.542969 C 191.128906 223.265625 179.683594 228.15625 168.632812 232.085938 C 166.242188 227.359375 161.511719 224.039062 155.960938 223.632812 Z M 187.5 84.367188 C 221.441406 84.367188 251.597656 100.855469 270.402344 126.234375 C 246.878906 121.789062 205.835938 133.121094 169.398438 151.378906 C 167.199219 152.480469 165.035156 153.605469 162.886719 154.746094 C 161.179688 152.457031 158.863281 150.664062 156.167969 149.59375 C 160.441406 115.597656 170.203125 92.054688 180.574219 84.628906 C 182.867188 84.476562 185.171875 84.367188 187.5 84.367188 Z M 104.601562 248.773438 C 108.109375 249.453125 112.035156 249.808594 116.390625 249.808594 C 120.816406 249.808594 125.667969 249.453125 130.90625 248.730469 C 134.332031 248.257812 137.882812 247.628906 141.519531 246.871094 C 144.210938 251.433594 149.160156 254.507812 154.839844 254.507812 C 154.878906 254.507812 154.921875 254.503906 154.964844 254.496094 C 158.71875 268.914062 163.742188 281.046875 169.898438 289.097656 C 143.257812 284.496094 120.078125 269.660156 104.601562 248.773438 Z M 180.574219 290.375 C 173.320312 285.179688 166.359375 272.09375 161.371094 253.046875 C 166.640625 250.582031 170.300781 245.246094 170.300781 239.039062 C 170.300781 238.929688 170.285156 238.824219 170.285156 238.707031 C 181.804688 234.644531 193.722656 229.570312 205.601562 223.617188 C 210.496094 221.167969 215.277344 218.621094 219.921875 215.992188 C 222.683594 218.558594 226.367188 220.140625 230.433594 220.140625 C 236.035156 220.140625 240.929688 217.152344 243.640625 212.6875 C 248.175781 213.820312 252.578125 214.75 256.789062 215.429688 C 262.519531 216.351562 267.777344 216.8125 272.507812 216.8125 C 278.074219 216.8125 282.863281 216.144531 286.90625 214.902344 C 274.871094 258.507812 234.878906 290.632812 187.5 290.632812 C 185.171875 290.632812 182.867188 290.527344 180.574219 290.375 Z M 187.5 73.03125 C 156.933594 73.03125 129.152344 85.09375 108.605469 104.679688 L 108.3125 104.53125 C 108.1875 104.769531 108.101562 105.023438 107.984375 105.269531 C 86.457031 126.09375 73.027344 155.25 73.027344 187.503906 C 73.027344 250.625 124.375 301.972656 187.496094 301.972656 C 250.621094 301.972656 301.96875 250.625 301.96875 187.503906 C 301.96875 124.378906 250.621094 73.03125 187.496094 73.03125 " fill-opacity="1" fill-rule="nonzero"/></svg>