<svg xmlns="http://www.w3.org/2000/svg" xmlns:xlink="http://www.w3.org/1999/xlink" width="793" zoomAndPan="magnify" viewBox="0 0 595.5 842.249979" height="1122" preserveAspectRatio="xMidYMid meet" version="1.0"><defs><clipPath id="42a66a0f80"><path d="M 171.710938 188.464844 L 483.695312 188.464844 L 483.695312 591.191406 L 171.710938 591.191406 Z M 171.710938 188.464844 " clip-rule="nonzero"/></clipPath><clipPath id="1e1d725140"><path d="M 123.847656 188.464844 L 435.832031 188.464844 L 435.832031 591.191406 L 123.847656 591.191406 Z M 123.847656 188.464844 " clip-rule="nonzero"/></clipPath></defs><g clip-path="url(#42a66a0f80)"><path fill="#df3a44" d="M 483.695312 560.726562 C 483.695312 453.289062 413.800781 366.246094 327.703125 366.246094 C 241.609375 366.246094 171.710938 453.289062 171.710938 560.726562 C 171.710938 577.476562 241.609375 591.136719 327.703125 591.136719 C 413.800781 591.136719 483.695312 577.476562 483.695312 560.726562 Z M 327.703125 188.519531 C 374.664062 188.519531 412.707031 226.578125 412.707031 273.558594 C 412.707031 320.539062 374.664062 358.597656 327.703125 358.597656 C 280.742188 358.597656 242.699219 320.539062 242.699219 273.558594 C 242.699219 226.578125 280.742188 188.519531 327.703125 188.519531 Z M 327.703125 188.519531 " fill-opacity="1" fill-rule="evenodd"/></g><g clip-path="url(#1e1d725140)"><path fill="#ffffff" d="M 435.832031 560.726562 C 435.832031 453.289062 365.9375 366.246094 279.839844 366.246094 C 193.746094 366.246094 123.847656 453.289062 123.847656 560.726562 C 123.847656 577.476562 193.746094 591.136719 279.839844 591.136719 C 365.9375 591.136719 435.832031 577.476562 435.832031 560.726562 Z M 279.839844 188.519531 C 326.800781 188.519531 364.84375 226.578125 364.84375 273.558594 C 364.84375 320.539062 326.800781 358.597656 279.839844 358.597656 C 232.878906 358.597656 194.835938 320.539062 194.835938 273.558594 C 194.835938 226.578125 232.878906 188.519531 279.839844 188.519531 Z M 279.839844 188.519531 " fill-opacity="1" fill-rule="evenodd"/></g></svg>