<svg xmlns="http://www.w3.org/2000/svg" xmlns:xlink="http://www.w3.org/1999/xlink" width="793" zoomAndPan="magnify" viewBox="0 0 595.5 842.249979" height="1122" preserveAspectRatio="xMidYMid meet" version="1.0"><defs><clipPath id="68ba5ad1c8"><path d="M 87 252 L 475 252 L 475 553.53125 L 87 553.53125 Z M 87 252 " clip-rule="nonzero"/></clipPath><clipPath id="623a6af0cf"><path d="M 147 252 L 535 252 L 535 553.53125 L 147 553.53125 Z M 147 252 " clip-rule="nonzero"/></clipPath></defs><g clip-path="url(#68ba5ad1c8)"><path fill="#df3a44" d="M 149.6875 347.226562 C 147.992188 347.226562 145.203125 348.25 143.96875 349.53125 L 89.074219 405.554688 C 86.613281 408.039062 86.617188 411.101562 89.074219 413.558594 L 175.367188 495.488281 L 231.40625 551.515625 C 232.648438 552.757812 234.28125 553.785156 235.980469 553.785156 C 237.234375 553.785156 238.425781 552.46875 239.410156 551.515625 L 295.449219 496.632812 L 472.722656 319.410156 C 475.21875 316.960938 475.210938 312.726562 472.722656 310.265625 L 416.679688 254.242188 C 414.191406 251.789062 411.128906 251.753906 408.671875 254.242188 L 235.980469 426.882812 L 154.265625 349.527344 C 153.03125 348.285156 151.386719 347.222656 149.691406 347.222656 Z M 149.6875 347.226562 " fill-opacity="1" fill-rule="nonzero"/></g><g clip-path="url(#623a6af0cf)"><path fill="#ffffff" d="M 209.511719 347.226562 C 207.816406 347.226562 205.027344 348.25 203.792969 349.53125 L 148.898438 405.554688 C 146.4375 408.039062 146.441406 411.101562 148.898438 413.558594 L 235.191406 495.488281 L 291.230469 551.515625 C 292.472656 552.757812 294.105469 553.785156 295.804688 553.785156 C 297.058594 553.785156 298.25 552.46875 299.234375 551.515625 L 355.273438 496.632812 L 532.546875 319.410156 C 535.042969 316.960938 535.035156 312.726562 532.546875 310.265625 L 476.503906 254.242188 C 474.015625 251.789062 470.953125 251.753906 468.496094 254.242188 L 295.800781 426.882812 L 214.089844 349.527344 C 212.855469 348.285156 211.210938 347.222656 209.511719 347.222656 L 209.515625 347.222656 Z M 209.511719 347.226562 " fill-opacity="1" fill-rule="nonzero"/></g></svg>